<?xml version="1.0" ?><svg id="Layer_1_1_" style="enable-background:new 0 0 64 64;" version="1.1" viewBox="0 0 64 64" xml:space="preserve" xmlns="http://www.w3.org/2000/svg" xmlns:xlink="http://www.w3.org/1999/xlink"><g><path d="M53,5V3h-8.551C43.308,1.723,41.713,1,40,1s-3.308,0.723-4.449,2H27v2H17v19H1v11   c0,3.862,1.462,6.842,4.14,8.5C2.461,45.158,1,48.138,1,52v11h16h6h40V5H53z M23,52V35V24V11h4v2h26v-2h4v46H23V52z M21,45.451   c-0.594-0.767-1.299-1.431-2.141-1.951c0.841-0.52,1.547-1.184,2.141-1.951V45.451z M29,5h7.521l0.3-0.397   C37.59,3.584,38.749,3,40,3s2.41,0.584,3.18,1.603L43.479,5H51v6H29V5z M19,7h8v2h-6v15h-2V7z M21,26v2H3v-2H21z M6.842,44.848   C7.37,44.596,7.698,44.08,7.698,43.5s-0.328-1.096-0.856-1.348C3.666,40.644,3,37.43,3,35v-5h18v5c0,2.459-0.682,5.703-3.93,7.193   c-0.519,0.238-0.842,0.739-0.842,1.307s0.323,1.068,0.843,1.308C20.318,46.297,21,49.541,21,52v5h-0.191   C20.184,54.306,17.785,46,12,46s-8.184,8.306-8.809,11H3v-5C3,49.57,3.666,46.356,6.842,44.848z M18.757,57H5.243   c0.825-3.293,3.029-9,6.757-9S17.931,53.707,18.757,57z M17,61H3v-2h18v2H17z M61,61H23v-2h36V9h-6V7h8V61z" style="fill:#44B6FB;"/><rect height="2" style="fill:#44B6FB;" width="26" x="25" y="53"/><rect height="2" style="fill:#44B6FB;" width="2" x="53" y="53"/><rect height="2" style="fill:#44B6FB;" width="24" x="31" y="49"/><rect height="2" style="fill:#44B6FB;" width="4" x="25" y="49"/><rect height="2" style="fill:#44B6FB;" width="30" x="25" y="45"/><rect height="2" style="fill:#44B6FB;" width="26" x="29" y="41"/><rect height="2" style="fill:#44B6FB;" width="2" x="25" y="41"/><rect height="2" style="fill:#44B6FB;" width="30" x="25" y="37"/><path d="M31,22h-6v13h6V22z M29,33h-2v-9h2V33z" style="fill:#44B6FB;"/><path d="M39,19h-6v16h6V19z M37,33h-2V21h2V33z" style="fill:#44B6FB;"/><path d="M47,17h-6v18h6V17z M45,33h-2V19h2V33z" style="fill:#44B6FB;"/><path d="M49,35h6V15h-6V35z M51,17h2v16h-2V17z" style="fill:#44B6FB;"/><rect height="2" style="fill:#44B6FB;" width="2" x="13" y="50"/><rect height="2" style="fill:#44B6FB;" width="2" x="9" y="53"/></g></svg>