<?xml version="1.0" encoding="utf-8"?><svg xmlns="http://www.w3.org/2000/svg" xmlns:xlink="http://www.w3.org/1999/xlink" version="1.1" class="page" pageAlignment="none" x="0px" y="0px" width="512px" height="512px" viewBox="0 0 512 512" enable-background="new 0 0 512 512" xml:space="preserve"><defs/><style type="text/css"/><style type="text/css"/><g type="LAYER" name="workspace" id="workspace" locked="true"/><g/><g/><g/><g/><g/><g/><g/><g/><g/><g/><g/><g/><g/><g/><g transform="matrix(1 0 0 1 -125.7543859649125 44.27067669172932)"><g transform="matrix(1 0 0 1 173.54321071495923 -5.312424070930042)" id="calendar_1_"><path class="st0  " transform="matrix(1 0 0 1 -2.842170943040401e-14 3.552713678800501e-15)" width="376.3228070175441" height="384.66365914786957" stroke-width="8.182158650633971" stroke-miterlimit="3" stroke="none" fill="#44B6FB" d="M366.61125070741394,54.59742258872987 L315.62558007923036,54.59742258872987 L315.62558007923036,30.60764599671222 C315.62558007923036,23.989776592017687 310.7698019241654,18.199140862909967 303.4861346915677,18.199140862909967 C296.2024674589701,18.199140862909967 291.34668930390495,23.16254291643087 291.34668930390495,30.60764599671222 L291.34668930390495,54.59742258872987 L220.93790605546133,54.59742258872987 L220.93790605546133,30.60764599671222 C220.93790605546133,23.989776592017687 216.08212790039624,18.199140862909967 209.60775702697612,18.199140862909967 C203.13338615355605,18.199140862909967 197.46831163931347,23.16254291643087 197.46831163931347,30.60764599671222 L197.46831163931347,54.59742258872987 L127.05952839086967,54.59742258872987 L127.05952839086967,30.60764599671222 C127.05952839086967,23.989776592017687 122.20375023580465,18.199140862909967 115.72937936238452,18.199140862909967 C109.25500848896434,18.199140862909967 104.39923033389931,23.16254291643087 104.39923033389931,30.60764599671222 L104.39923033389931,54.59742258872987 L54.22285606489345,54.59742258872987 C37.227632522165635,54.59742258872987 22.66029805697042,68.66039507370577 22.66029805697042,86.85953593661574 L22.66029805697042,370.6006866628937 C22.66029805697042,387.97259385021687 36.41833616298814,402.86280001077955 54.22285606489345,402.86280001077955 L367.4205470665914,402.86280001077955 C384.4157706093193,402.86280001077955 398.9831050745145,388.7998275258036 398.9831050745145,370.6006866628937 L398.9831050745145,86.0323022610289 C398.1738087153371,68.66039507370577 384.4157706093193,54.59742258872987 366.61125070741394,54.59742258872987 Z M374.704214299189,370.6006866628937 C374.704214299189,374.7368550408277 371.4670288624789,378.87302341876193 366.61125070741394,378.87302341876193 L54.22285606489345,378.87302341876193 C50.17637426900589,378.87302341876193 46.1298924731183,375.5640887164146 46.1298924731183,370.6006866628937 L46.1298924731183,86.0323022610289 C46.1298924731183,81.89613388309483 49.36707790982837,77.75996550516074 54.22285606489345,77.75996550516074 L105.2085266930768,77.75996550516074 L105.2085266930768,101.74974209717841 C105.2085266930768,108.36761150187299 110.06430484814194,113.33101355539385 116.53867572156196,113.33101355539385 C123.01304659498214,113.33101355539385 127.86882475004722,108.36761150187299 127.86882475004722,101.74974209717841 L127.86882475004722,78.58719918074755 L198.2776079984909,78.58719918074755 L198.2776079984909,102.57697577276525 C198.2776079984909,109.19484517745978 203.13338615355605,114.1582472309807 210.4170533861536,114.1582472309807 C216.8914242595738,114.1582472309807 221.74720241463882,109.19484517745978 221.74720241463882,102.57697577276525 L221.74720241463882,78.58719918074755 L292.1559856630825,78.58719918074755 L292.1559856630825,102.57697577276525 C292.1559856630825,109.19484517745978 297.01176381814764,114.1582472309807 304.29543105074526,114.1582472309807 C311.57909828334283,114.1582472309807 316.4348764384079,109.19484517745978 316.4348764384079,102.57697577276525 L316.4348764384079,78.58719918074755 L367.42054706659115,78.58719918074755 C371.4670288624788,78.58719918074755 375.51351065836644,81.89613388309483 375.51351065836644,86.85953593661574 L374.704214299189,370.6006866628937 L374.704214299189,370.6006866628937 Z "/><path class="st0  " transform="matrix(1 0 0 1 104.39923033389928 162.13780041501607)" width="46.93918883229577" height="36.39828172581991" stroke-width="8.182158650633971" stroke-miterlimit="3" stroke="none" fill="#44B6FB" d="M5.684341886080802e-14,-5.684341886080802e-14 L46.93918883229583,-5.684341886080802e-14 L46.93918883229583,36.39828172581986 L5.684341886080802e-14,36.39828172581986 L5.684341886080802e-14,-5.684341886080802e-14 Z "/><path class="st0  " transform="matrix(1 0 0 1 104.39923033389928 222.52585873285364)" width="46.93918883229577" height="36.39828172581991" stroke-width="8.182158650633971" stroke-miterlimit="3" stroke="none" fill="#44B6FB" d="M5.684341886080802e-14,2.842170943040401e-14 L46.93918883229583,2.842170943040401e-14 L46.93918883229583,36.39828172581994 L5.684341886080802e-14,36.39828172581994 L5.684341886080802e-14,2.842170943040401e-14 Z "/><path class="st0  " transform="matrix(1 0 0 1 104.39923033389928 282.08668337510437)" width="46.93918883229577" height="35.57104805023306" stroke-width="8.182158650633971" stroke-miterlimit="3" stroke="none" fill="#44B6FB" d="M5.684341886080802e-14,0 L46.93918883229583,0 L46.93918883229583,35.57104805023306 L5.684341886080802e-14,35.57104805023306 L5.684341886080802e-14,0 Z "/><path class="st0  " transform="matrix(1 0 0 1 186.94745897000573 282.08668337510437)" width="46.93918883229577" height="35.57104805023306" stroke-width="8.182158650633971" stroke-miterlimit="3" stroke="none" fill="#44B6FB" d="M0,0 L46.93918883229577,0 L46.93918883229577,35.57104805023306 L0,35.57104805023306 L0,0 Z "/><path class="st0  " transform="matrix(1 0 0 1 186.94745897000573 222.52585873285364)" width="46.93918883229577" height="36.39828172581991" stroke-width="8.182158650633971" stroke-miterlimit="3" stroke="none" fill="#44B6FB" d="M0,2.842170943040401e-14 L46.93918883229577,2.842170943040401e-14 L46.93918883229577,36.39828172581994 L0,36.39828172581994 L0,2.842170943040401e-14 Z "/><path class="st0  " transform="matrix(1 0 0 1 186.94745897000573 162.13780041501607)" width="46.93918883229577" height="36.39828172581991" stroke-width="8.182158650633971" stroke-miterlimit="3" stroke="none" fill="#44B6FB" d="M0,-5.684341886080802e-14 L46.93918883229577,-5.684341886080802e-14 L46.93918883229577,36.39828172581986 L0,36.39828172581986 L0,-5.684341886080802e-14 Z "/><path class="st0  " transform="matrix(1 0 0 1 268.6863912469347 282.08668337510437)" width="46.93918883229571" height="35.57104805023306" stroke-width="8.182158650633971" stroke-miterlimit="3" stroke="none" fill="#44B6FB" d="M1.1368683772161603e-13,0 L46.93918883229583,0 L46.93918883229583,35.57104805023306 L1.1368683772161603e-13,35.57104805023306 L1.1368683772161603e-13,0 Z "/><path class="st0  " transform="matrix(1 0 0 1 268.6863912469347 222.52585873285364)" width="46.93918883229571" height="36.39828172581991" stroke-width="8.182158650633971" stroke-miterlimit="3" stroke="none" fill="#44B6FB" d="M1.1368683772161603e-13,2.842170943040401e-14 L46.93918883229583,2.842170943040401e-14 L46.93918883229583,36.39828172581994 L1.1368683772161603e-13,36.39828172581994 L1.1368683772161603e-13,2.842170943040401e-14 Z "/><path class="st0  " transform="matrix(1 0 0 1 268.6863912469347 162.13780041501607)" width="46.93918883229571" height="36.39828172581991" stroke-width="8.182158650633971" stroke-miterlimit="3" stroke="none" fill="#44B6FB" d="M1.1368683772161603e-13,-5.684341886080802e-14 L46.93918883229583,-5.684341886080802e-14 L46.93918883229583,36.39828172581986 L1.1368683772161603e-13,36.39828172581986 L1.1368683772161603e-13,-5.684341886080802e-14 Z "/></g></g><g type="LAYER" name="GROUP" id="GROUP"><g transform="matrix(1 0 0 1 47.78882475004673 38.958252620799286)" id="calendar_1_"><path class="st0  " transform="matrix(1 0 0 1 -2.842170943040401e-14 3.552713678800501e-15)" width="376.3228070175441" height="384.66365914786957" stroke-width="8.182158650633971" stroke-miterlimit="3" stroke="#44B6FB" fill="#44B6FB" d="M366.61125070741394,54.59742258872987 L315.62558007923036,54.59742258872987 L315.62558007923036,30.60764599671222 C315.62558007923036,23.989776592017687 310.7698019241654,18.199140862909967 303.4861346915677,18.199140862909967 C296.2024674589701,18.199140862909967 291.34668930390495,23.16254291643087 291.34668930390495,30.60764599671222 L291.34668930390495,54.59742258872987 L220.93790605546133,54.59742258872987 L220.93790605546133,30.60764599671222 C220.93790605546133,23.989776592017687 216.08212790039624,18.199140862909967 209.60775702697612,18.199140862909967 C203.13338615355605,18.199140862909967 197.46831163931347,23.16254291643087 197.46831163931347,30.60764599671222 L197.46831163931347,54.59742258872987 L127.05952839086967,54.59742258872987 L127.05952839086967,30.60764599671222 C127.05952839086967,23.989776592017687 122.20375023580465,18.199140862909967 115.72937936238452,18.199140862909967 C109.25500848896434,18.199140862909967 104.39923033389931,23.16254291643087 104.39923033389931,30.60764599671222 L104.39923033389931,54.59742258872987 L54.22285606489345,54.59742258872987 C37.227632522165635,54.59742258872987 22.66029805697042,68.66039507370577 22.66029805697042,86.85953593661574 L22.66029805697042,370.6006866628937 C22.66029805697042,387.97259385021687 36.41833616298814,402.86280001077955 54.22285606489345,402.86280001077955 L367.4205470665914,402.86280001077955 C384.4157706093193,402.86280001077955 398.9831050745145,388.7998275258036 398.9831050745145,370.6006866628937 L398.9831050745145,86.0323022610289 C398.1738087153371,68.66039507370577 384.4157706093193,54.59742258872987 366.61125070741394,54.59742258872987 Z M374.704214299189,370.6006866628937 C374.704214299189,374.7368550408277 371.4670288624789,378.87302341876193 366.61125070741394,378.87302341876193 L54.22285606489345,378.87302341876193 C50.17637426900589,378.87302341876193 46.1298924731183,375.5640887164146 46.1298924731183,370.6006866628937 L46.1298924731183,86.0323022610289 C46.1298924731183,81.89613388309483 49.36707790982837,77.75996550516074 54.22285606489345,77.75996550516074 L105.2085266930768,77.75996550516074 L105.2085266930768,101.74974209717841 C105.2085266930768,108.36761150187299 110.06430484814194,113.33101355539385 116.53867572156196,113.33101355539385 C123.01304659498214,113.33101355539385 127.86882475004722,108.36761150187299 127.86882475004722,101.74974209717841 L127.86882475004722,78.58719918074755 L198.2776079984909,78.58719918074755 L198.2776079984909,102.57697577276525 C198.2776079984909,109.19484517745978 203.13338615355605,114.1582472309807 210.4170533861536,114.1582472309807 C216.8914242595738,114.1582472309807 221.74720241463882,109.19484517745978 221.74720241463882,102.57697577276525 L221.74720241463882,78.58719918074755 L292.1559856630825,78.58719918074755 L292.1559856630825,102.57697577276525 C292.1559856630825,109.19484517745978 297.01176381814764,114.1582472309807 304.29543105074526,114.1582472309807 C311.57909828334283,114.1582472309807 316.4348764384079,109.19484517745978 316.4348764384079,102.57697577276525 L316.4348764384079,78.58719918074755 L367.42054706659115,78.58719918074755 C371.4670288624788,78.58719918074755 375.51351065836644,81.89613388309483 375.51351065836644,86.85953593661574 L374.704214299189,370.6006866628937 L374.704214299189,370.6006866628937 Z "/><path class="st0  " transform="matrix(1 0 0 1 104.39923033389928 162.13780041501607)" width="46.93918883229577" height="36.39828172581991" stroke-width="8.182158650633971" stroke-miterlimit="3" stroke="#44B6FB" fill="#44B6FB" d="M5.684341886080802e-14,-5.684341886080802e-14 L46.93918883229583,-5.684341886080802e-14 L46.93918883229583,36.39828172581986 L5.684341886080802e-14,36.39828172581986 L5.684341886080802e-14,-5.684341886080802e-14 Z "/><path class="st0  " transform="matrix(1 0 0 1 104.39923033389928 222.52585873285364)" width="46.93918883229577" height="36.39828172581991" stroke-width="8.182158650633971" stroke-miterlimit="3" stroke="#44B6FB" fill="#44B6FB" d="M5.684341886080802e-14,2.842170943040401e-14 L46.93918883229583,2.842170943040401e-14 L46.93918883229583,36.39828172581994 L5.684341886080802e-14,36.39828172581994 L5.684341886080802e-14,2.842170943040401e-14 Z "/><path class="st0  " transform="matrix(1 0 0 1 104.39923033389928 282.08668337510437)" width="46.93918883229577" height="35.57104805023306" stroke-width="8.182158650633971" stroke-miterlimit="3" stroke="#44B6FB" fill="#44B6FB" d="M5.684341886080802e-14,0 L46.93918883229583,0 L46.93918883229583,35.57104805023306 L5.684341886080802e-14,35.57104805023306 L5.684341886080802e-14,0 Z "/><path class="st0  " transform="matrix(1 0 0 1 186.94745897000573 282.08668337510437)" width="46.93918883229577" height="35.57104805023306" stroke-width="8.182158650633971" stroke-miterlimit="3" stroke="#44B6FB" fill="#44B6FB" d="M0,0 L46.93918883229577,0 L46.93918883229577,35.57104805023306 L0,35.57104805023306 L0,0 Z "/><path class="st0  " transform="matrix(1 0 0 1 186.94745897000573 222.52585873285364)" width="46.93918883229577" height="36.39828172581991" stroke-width="8.182158650633971" stroke-miterlimit="3" stroke="#44B6FB" fill="#44B6FB" d="M0,2.842170943040401e-14 L46.93918883229577,2.842170943040401e-14 L46.93918883229577,36.39828172581994 L0,36.39828172581994 L0,2.842170943040401e-14 Z "/><path class="st0  " transform="matrix(1 0 0 1 186.94745897000573 162.13780041501607)" width="46.93918883229577" height="36.39828172581991" stroke-width="8.182158650633971" stroke-miterlimit="3" stroke="#44B6FB" fill="#44B6FB" d="M0,-5.684341886080802e-14 L46.93918883229577,-5.684341886080802e-14 L46.93918883229577,36.39828172581986 L0,36.39828172581986 L0,-5.684341886080802e-14 Z "/><path class="st0  " transform="matrix(1 0 0 1 268.6863912469347 282.08668337510437)" width="46.93918883229571" height="35.57104805023306" stroke-width="8.182158650633971" stroke-miterlimit="3" stroke="#44B6FB" fill="#44B6FB" d="M1.1368683772161603e-13,0 L46.93918883229583,0 L46.93918883229583,35.57104805023306 L1.1368683772161603e-13,35.57104805023306 L1.1368683772161603e-13,0 Z "/><path class="st0  " transform="matrix(1 0 0 1 268.6863912469347 222.52585873285364)" width="46.93918883229571" height="36.39828172581991" stroke-width="8.182158650633971" stroke-miterlimit="3" stroke="#44B6FB" fill="#44B6FB" d="M1.1368683772161603e-13,2.842170943040401e-14 L46.93918883229583,2.842170943040401e-14 L46.93918883229583,36.39828172581994 L1.1368683772161603e-13,36.39828172581994 L1.1368683772161603e-13,2.842170943040401e-14 Z "/><path class="st0  " transform="matrix(1 0 0 1 268.6863912469347 162.13780041501607)" width="46.93918883229571" height="36.39828172581991" stroke-width="8.182158650633971" stroke-miterlimit="3" stroke="#44B6FB" fill="#44B6FB" d="M1.1368683772161603e-13,-5.684341886080802e-14 L46.93918883229583,-5.684341886080802e-14 L46.93918883229583,36.39828172581986 L1.1368683772161603e-13,36.39828172581986 L1.1368683772161603e-13,-5.684341886080802e-14 Z "/></g></g></svg>