<svg xmlns:dc="http://purl.org/dc/elements/1.1/" xmlns:cc="http://creativecommons.org/ns#" xmlns:rdf="http://www.w3.org/1999/02/22-rdf-syntax-ns#" xmlns="http://www.w3.org/2000/svg" xmlns:sodipodi="http://sodipodi.sourceforge.net/DTD/sodipodi-0.dtd" xmlns:inkscape="http://www.inkscape.org/namespaces/inkscape" xmlns:xlink="http://www.w3.org/1999/xlink" version="1.1" viewBox="0 0 65 65" x="0px" y="0px" width="100%" height="100%" ><rect id="svgEditorBackground" x="0" y="0" width="64" height="80" style="fill: none; stroke: none;"/><g><path style="" d="M40,19l5,5l10,-10l5,5l0,-15l-15,0l5,5Z" fill="#4e4e4e" fill-rule="evenodd" stroke="#4e4e4e" stroke-width="1" stroke-linecap="butt" stroke-linejoin="miter" stroke-opacity="1" stroke-miterlimit="4" stroke-dasharray="none" fill-opacity="1" transform="matrix(-0.999957 -0.00921998 0.00921998 -0.999957 99.8688 28.4604)"/><path style="" d="m 20,39 5,5 -10,10 5,5 -15,0 0,-15 5,5 z" fill="#4e4e4e" fill-rule="evenodd" stroke="#4e4e4e" stroke-width="1" stroke-linecap="butt" stroke-linejoin="miter" stroke-opacity="1" stroke-miterlimit="4" stroke-dasharray="none" fill-opacity="1" transform="matrix(-0.999998 0.00181537 -0.00181537 -0.999998 30.0889 97.9727)"/><path style="" d="M45,59l15,0l0,-15l-5,5l-10,-10l-5,5l10,10Z" fill="#4e4e4e" fill-rule="evenodd" stroke="#4e4e4e" stroke-width="1" stroke-linecap="butt" stroke-linejoin="miter" stroke-opacity="1" stroke-miterlimit="4" stroke-dasharray="none" fill-opacity="1" transform="matrix(-1 -0.000992138 0.000992138 -1 99.9514 98.0496)"/><path style="" d="M20.131241000000003,4.222149599999998l-15.0000005,0l0,15.0000004l5.0000005000000005,-5l10,10l5,-5l-10,-10.0000004Z" fill="#4e4e4e" fill-rule="evenodd" stroke="#4e4e4e" stroke-width="1" stroke-linecap="butt" stroke-linejoin="miter" stroke-miterlimit="4" stroke-dasharray="none" stroke-opacity="1" fill-opacity="1" transform="matrix(-0.999946 0.0103538 -0.0103538 -0.999946 30.4089 28.2869)"/></g><text x="0" y="79" fill="#4e4e4e" font-size="5px" font-weight="bold" font-family="'Helvetica Neue', Helvetica, Arial-Unicode, Arial, Sans-serif"/><text x="0" y="84" fill="#4e4e4e" font-size="5px" font-weight="bold" font-family="'Helvetica Neue', Helvetica, Arial-Unicode, Arial, Sans-serif">from the Noun Project</text></svg>