<svg xmlns="http://www.w3.org/2000/svg" width="30" height="30" viewBox="0 0 30 30">
    <path fill="#919FB9" fill-rule="nonzero" d="M29.332 12.387l-3.44-.844a11.572 11.572 0 0 0-.79-1.887c.515-.855 1.6-2.672 1.6-2.672a.877.877 0 0 0-.136-1.072l-2.484-2.49a.87.87 0 0 0-1.072-.129c-.024.012-1.805 1.084-2.672 1.605-.604-.316-1.23-.58-1.875-.785-.258-1.054-.85-3.44-.85-3.44A.882.882 0 0 0 16.758 0h-3.516a.883.883 0 0 0-.855.668c-.24.984-.645 2.625-.844 3.44-.691.216-1.354.503-1.992.849-.375-.228-.938-.562-1.46-.873l-1.318-.791a.885.885 0 0 0-1.072.129L3.217 5.906a.87.87 0 0 0-.13 1.073c.013.017 1.044 1.74 1.718 2.865-.276.545-.51 1.113-.692 1.693-1.172.293-3.41.844-3.44.85a.882.882 0 0 0-.673.855v3.516c0 .404.275.756.668.855.023.006 2.25.551 3.44.844.21.662.48 1.307.808 1.922l-1.535 2.56a.885.885 0 0 0 .129 1.073l2.484 2.484a.87.87 0 0 0 1.072.129c.024-.012 1.729-1.037 2.567-1.535.61.328 1.248.592 1.91.803l.844 3.439c.1.393.45.668.855.668h3.516a.883.883 0 0 0 .855-.668l.844-3.44c.674-.216 1.33-.492 1.951-.826.844.51 2.602 1.565 2.602 1.565a.885.885 0 0 0 1.072-.129l2.484-2.484a.878.878 0 0 0 .135-1.073s-1.072-1.787-1.582-2.63c.31-.592.569-1.208.774-1.846 1.043-.258 3.41-.838 3.439-.844A.883.883 0 0 0 30 16.77v-3.516a.887.887 0 0 0-.668-.867zM21.152 15A6.16 6.16 0 0 1 15 21.152 6.16 6.16 0 0 1 8.848 15 6.16 6.16 0 0 1 15 8.848 6.16 6.16 0 0 1 21.152 15z"/>
</svg>
