<?xml version="1.0" encoding="UTF-8" standalone="no"?>
<!-- Created with Inkscape (http://www.inkscape.org/) -->

<svg
   xmlns:dc="http://purl.org/dc/elements/1.1/"
   xmlns:cc="http://creativecommons.org/ns#"
   xmlns:rdf="http://www.w3.org/1999/02/22-rdf-syntax-ns#"
   xmlns:svg="http://www.w3.org/2000/svg"
   xmlns="http://www.w3.org/2000/svg"
   xmlns:sodipodi="http://sodipodi.sourceforge.net/DTD/sodipodi-0.dtd"
   xmlns:inkscape="http://www.inkscape.org/namespaces/inkscape"
   width="64px"
   height="64px"
   id="svg3310"
   version="1.1"
   inkscape:version="0.48.4 r9939"
   sodipodi:docname="New document 3">
  <defs
     id="defs3312" />
  <sodipodi:namedview
     id="base"
     pagecolor="#ffffff"
     bordercolor="#666666"
     borderopacity="1.0"
     inkscape:pageopacity="0.0"
     inkscape:pageshadow="2"
     inkscape:zoom="5.5"
     inkscape:cx="32"
     inkscape:cy="32"
     inkscape:current-layer="layer1"
     showgrid="true"
     inkscape:document-units="px"
     inkscape:grid-bbox="true"
     inkscape:window-width="1920"
     inkscape:window-height="1018"
     inkscape:window-x="0"
     inkscape:window-y="27"
     inkscape:window-maximized="1" />
  <metadata
     id="metadata3315">
    <rdf:RDF>
      <cc:Work
         rdf:about="">
        <dc:format>image/svg+xml</dc:format>
        <dc:type
           rdf:resource="http://purl.org/dc/dcmitype/StillImage" />
        <dc:title></dc:title>
      </cc:Work>
    </rdf:RDF>
  </metadata>
  <g
     id="layer1"
     inkscape:label="Layer 1"
     inkscape:groupmode="layer">
    <g
       transform="matrix(0.94589474,0,0,0.94589474,-195.54234,-273.32016)"
       id="g297">
      <path
         style="fill:#919fb8"
         inkscape:connector-curvature="0"
         d="m 234.637,340.085 27.848,-16.079 c 0.438,-0.251 0.707,-0.718 0.707,-1.221 0,-0.506 -0.269,-0.972 -0.707,-1.224 l -27.848,-16.079 c -0.438,-0.252 -0.975,-0.252 -1.413,0 -0.435,0.251 -0.704,0.716 -0.704,1.219 v 7.488 h -24.038 c -0.779,0 -1.414,0.633 -1.414,1.413 v 14.36 c 0,0.781 0.634,1.412 1.414,1.412 h 24.038 v 7.488 c 0,0.503 0.269,0.971 0.704,1.223 0.221,0.125 0.465,0.189 0.706,0.189 0.246,10e-4 0.49,-0.06 0.707,-0.189 l 0,0 z m 0,0"
         id="path299" />
      <path
         style="fill:#919fb8"
         inkscape:connector-curvature="0"
         d="M 264.005,289.016 H 235.24 c -0.779,0 -1.413,0.635 -1.413,1.414 v 4.233 c 0,0.779 0.634,1.412 1.413,1.412 h 28.765 c 1.858,0 3.368,1.51 3.368,3.369 v 46.681 c 0,1.855 -1.51,3.369 -3.368,3.369 H 235.24 c -0.779,0 -1.413,0.63 -1.413,1.409 v 4.237 c 0,0.779 0.634,1.413 1.413,1.413 h 28.765 c 5.75,0 10.427,-4.681 10.427,-10.428 v -46.681 c 0,-5.75 -4.677,-10.428 -10.427,-10.428 l 0,0 z m 0,0"
         id="path301" />
    </g>
  </g>
</svg>
