<svg id="Слой_1" data-name="Слой 1" xmlns="http://www.w3.org/2000/svg" viewBox="0 0 64.15 63.8"><defs><style>.cls-1{fill:#3fb8f8;}</style></defs><title>map set-icon</title><g id="Слой_2" data-name="Слой 2"><g id="Layer_1" data-name="Layer 1"><g id="Settings"><path class="cls-1" d="M64,45.7a1,1,0,0,0-1-.8,3.74,3.74,0,0,1-3.7-3.6,3.86,3.86,0,0,1,1.1-2.7.93.93,0,0,0,.1-1.3,21.28,21.28,0,0,0-2.6-2.6.82.82,0,0,0-1.2.1,3.69,3.69,0,0,1-4.1.9,3.59,3.59,0,0,1-2.2-3.5.89.89,0,0,0-.8-1,22.85,22.85,0,0,0-3.7,0,1,1,0,0,0-.8,1,3.57,3.57,0,0,1-6.2,2.6.92.92,0,0,0-1.2-.1A16.61,16.61,0,0,0,35,37.3a1.06,1.06,0,0,0,.1,1.3,3.54,3.54,0,0,1,.9,4,3.59,3.59,0,0,1-3.5,2.2.82.82,0,0,0-.9.8,22.85,22.85,0,0,0,0,3.7,1.08,1.08,0,0,0,1.1.8,3.56,3.56,0,0,1,2.4,6.2.82.82,0,0,0-.1,1.2,16,16,0,0,0,2.6,2.6.82.82,0,0,0,1.2-.1,3.69,3.69,0,0,1,4.1-.9,3.59,3.59,0,0,1,2.2,3.5.91.91,0,0,0,.8,1,12.1,12.1,0,0,0,1.9.1,10.87,10.87,0,0,0,1.8-.1,1,1,0,0,0,.8-1,3.65,3.65,0,0,1,2.2-3.4,3.9,3.9,0,0,1,4,.9.82.82,0,0,0,1.2.1,22.26,22.26,0,0,0,2.7-2.6,1.06,1.06,0,0,0-.1-1.3,3.54,3.54,0,0,1-.9-4,3.72,3.72,0,0,1,3.3-2.2H63a.89.89,0,0,0,1-.8h0A10.87,10.87,0,0,0,64,45.7Zm-14.3,7a5.44,5.44,0,0,1-7.2-6.2,5.6,5.6,0,0,1,4.2-4.3,5.44,5.44,0,0,1,6.6,5.3h0A5.41,5.41,0,0,1,49.7,52.7Z" transform="translate(0 0)"/></g><path class="cls-1" d="M64.1,0V29.3H58.8V5.3h-3L28.5,28.6c-1.1.8-.6.4-4.5,3.3V5.3H18.7v16H5.3v5.3H18.7v2.6h0V46.1a3.91,3.91,0,0,1-.7.9L8.4,58.5h21v5.3H0V0Z" transform="translate(0 0)"/></g></g></svg>