<?xml version="1.0" encoding="UTF-8"?>
<svg width="49px" height="49px" viewBox="0 0 49 49" version="1.1" xmlns="http://www.w3.org/2000/svg" xmlns:xlink="http://www.w3.org/1999/xlink">
    <!-- Generator: Sketch 50.2 (55047) - http://www.bohemiancoding.com/sketch -->
    <title>Group 26</title>
    <desc>Created with Sketch.</desc>
    <defs></defs>
    <g id="mobile---детально+мультимедія" stroke="none" stroke-width="1" fill="none" fill-rule="evenodd">
        <g id="Group-26">
            <g id="Group-16-Copy" fill="#FFF9EE">
                <circle id="Oval-2-Copy-2" cx="24.5" cy="24.5" r="24.5"></circle>
            </g>
            <g id="warning-(1)" transform="translate(11.000000, 11.000000)" fill="#F9AA2A" fill-rule="nonzero">
                <path d="M13.0940823,16.8269663 C12.3668746,16.8269663 11.7573034,17.4417978 11.7573034,18.1752809 C11.7573034,18.908764 12.3668746,19.5235955 13.0940823,19.5235955 C13.7945545,19.5235955 14.4308612,18.908764 14.3987785,18.2076404 C14.4308612,17.4364045 13.8266371,16.8269663 13.0940823,16.8269663 Z" id="Shape"></path>
                <path d="M25.5734024,21.646953 C26.4193377,20.184394 26.4247258,18.4411963 25.5841787,16.9840342 L17.1463787,2.3476501 C16.3112197,0.874297279 14.8025454,0 13.1106749,0 C11.4188045,0 9.91013015,0.879694176 9.07497116,2.3422532 L0.626394987,16.994828 C-0.214152132,18.4681808 -0.20876401,20.2221723 0.642559354,21.6847313 C1.48310647,23.1310996 2.98639267,24 4.6674869,24 L21.5215343,24 C23.2080166,24 24.7220791,23.1203058 25.5734024,21.646953 Z M23.7414408,20.5891612 C23.2726741,21.3986957 22.4429032,21.8790196 21.5161461,21.8790196 L4.66209878,21.8790196 C3.74611795,21.8790196 2.9217352,21.4094895 2.46374478,20.6161457 C2.00036624,19.8120081 1.99497812,18.8513605 2.45835666,18.041826 L10.9069328,3.39464808 C11.3649232,2.59051046 12.1839179,2.11558354 13.1106749,2.11558354 C14.0320439,2.11558354 14.8564267,2.59590735 15.3144171,3.40004497 L23.7576051,18.0472228 C24.2102074,18.8351698 24.2048193,19.7850236 23.7414408,20.5891612 Z" id="Shape"></path>
                <path d="M12.7878963,7.37287123 C12.152453,7.55612009 11.7573034,8.13820472 11.7573034,8.8442518 C11.7893425,9.27003593 11.8160418,9.70120972 11.848081,10.1269938 C11.9388586,11.7492852 12.0296362,13.3392386 12.1204138,14.96153 C12.152453,15.5112766 12.5743019,15.9101124 13.1189676,15.9101124 C13.6636333,15.9101124 14.0908221,15.4843282 14.1175214,14.929192 C14.1175214,14.5950323 14.1175214,14.287821 14.1495606,13.9482716 C14.208299,12.9080648 14.2723774,11.867858 14.3311158,10.8276513 C14.363155,10.1539422 14.4218934,9.48023315 14.4539326,8.8065241 C14.4539326,8.56398884 14.4218934,8.34840194 14.3311158,8.13281504 C14.058783,7.52917173 13.4233396,7.2219604 12.7878963,7.37287123 Z" id="Shape"></path>
            </g>
        </g>
    </g>
</svg>