<?xml version="1.0" encoding="UTF-8"?>
<svg width="49px" height="49px" viewBox="0 0 49 49" version="1.1" xmlns="http://www.w3.org/2000/svg" xmlns:xlink="http://www.w3.org/1999/xlink">
    <!-- Generator: Sketch 50.2 (55047) - http://www.bohemiancoding.com/sketch -->
    <title>Group 27</title>
    <desc>Created with Sketch.</desc>
    <defs></defs>
    <g id="mobile---детально+мультимедія" stroke="none" stroke-width="1" fill="none" fill-rule="evenodd">
        <g id="Group-27">
            <g id="Group-11-Copy" fill="#ECF7EB">
                <circle id="Oval-2-Copy" cx="24.5" cy="24.5" r="24.5"></circle>
            </g>
            <g id="Group-25" transform="translate(19.000000, 5.000000)" fill="#129900" fill-rule="nonzero">
                <path d="M6.52633491,11.7264538 C7.87023853,9.8705394 10,6.6478598 10,4.84847968 C10,2.175063 7.75697704,0 5.0000293,0 C2.24302296,-5.68183432e-05 0,2.175063 0,4.84847968 C0,7.32541854 4.04296085,12.5124219 4.5037998,13.0960031 C4.53708098,13.1381055 4.58489339,13.1625942 4.62725659,13.1942988 C4.65274482,13.213333 4.67167056,13.2369126 4.69956113,13.2518558 C4.79126017,13.3013446 4.89209982,13.3333333 5.0000293,13.3333333 C5.01497067,13.3333333 5.02874018,13.3245265 5.04309562,13.3235606 C5.12500952,13.3177651 5.20598593,13.3044696 5.2780561,13.2697536 C5.27852485,13.2695263 6.44300447,11.8348238 6.52633491,11.7264538 Z M4.9999707,11.7128174 C3.62606714,9.87985761 1.24997803,6.39143861 1.24997803,4.84842286 C1.24997803,2.8431899 2.93208412,1.2120489 4.9999707,1.2120489 C7.06785729,1.2120489 8.74996338,2.8431899 8.74996338,4.84842286 C8.74996338,6.39143861 6.37387427,9.87985761 4.9999707,11.7128174 Z" id="Shape" transform="translate(5.000000, 6.666667) scale(-1, 1) translate(-5.000000, -6.666667) "></path>
                <path d="M6.52633491,11.7264538 C7.87023853,9.8705394 10,6.6478598 10,4.84847968 C10,2.175063 7.75697704,0 5.0000293,0 C2.24302296,-5.68183432e-05 0,2.175063 0,4.84847968 C0,7.32541854 4.04296085,12.5124219 4.5037998,13.0960031 C4.53708098,13.1381055 4.58489339,13.1625942 4.62725659,13.1942988 C4.65274482,13.213333 4.67167056,13.2369126 4.69956113,13.2518558 C4.79126017,13.3013446 4.89209982,13.3333333 5.0000293,13.3333333 C5.01497067,13.3333333 5.02874018,13.3245265 5.04309562,13.3235606 C5.12500952,13.3177651 5.20598593,13.3044696 5.2780561,13.2697536 C5.27852485,13.2695263 6.44300447,11.8348238 6.52633491,11.7264538 Z M4.9999707,11.7128174 C3.62606714,9.87985761 1.24997803,6.39143861 1.24997803,4.84842286 C1.24997803,2.8431899 2.93208412,1.2120489 4.9999707,1.2120489 C7.06785729,1.2120489 8.74996338,2.8431899 8.74996338,4.84842286 C8.74996338,6.39143861 6.37387427,9.87985761 4.9999707,11.7128174 Z" id="Shape"></path>
            </g>
            <g id="wrong" transform="translate(23.000000, 9.000000)" fill="#129900" fill-rule="nonzero" stroke="#129900">
                <polygon id="Shape" points="2 0.117449033 1.11746499 1 2 1.88255097 1.88254054 2 1.00000554 1.11746011 0.11747053 2 0 1.88255097 0.882535007 1 0 0.117449033 0.117459456 0 0.999994463 0.882539893 1.88254054 0"></polygon>
            </g>
            <g id="update-arrows-(1)-copy-04" transform="translate(15.000000, 20.000000)" fill="#129900" fill-rule="nonzero">
                <path d="M15.1159067,0 L3.77897668,0 C1.69190549,-3.20817511e-16 0,1.72499746 0,3.85288967 L0,18.2049037 C0.00887323977,19.1296424 0.507629589,19.9771616 1.30374696,20.4203152 L1.30374696,21.0367776 C1.30374696,21.5687506 1.72672333,22 2.24849113,22 L4.70482597,22 C5.22659377,22 5.64957014,21.5687506 5.64957014,21.0367776 L5.64957014,20.7767075 L13.2075235,20.7767075 L13.2075235,21.0367776 C13.2075235,21.5687506 13.6304999,22 14.1522677,22 L16.6086025,22 C17.1303703,22 17.5533467,21.5687506 17.5533467,21.0367776 L17.5533467,20.4203152 C18.3554351,19.9643528 18.8538582,19.1026703 18.8570936,18.1663748 L18.8570936,3.87215412 C18.8675963,1.75171438 17.1955912,0.0211776303 15.1159067,0 Z M16.3724165,19.0429072 L2.5602567,19.0429072 C2.11001247,19.0376304 1.74774697,18.6639846 1.74777672,18.2049037 L1.74777672,11.7513135 C4.26853227,12.3049124 6.84054356,12.579416 9.41909938,12.5700525 C12.0320505,12.5802433 14.6385915,12.3057726 17.1943439,11.7513135 L17.1943439,18.2049037 C17.1943439,18.6677202 16.8263545,19.0429072 16.3724165,19.0429072 Z M3.82621389,1.7530648 L15.1631439,1.7530648 C16.3110331,1.7530648 17.2415811,2.7018134 17.2415811,3.87215412 L17.2415811,9.94045534 C12.1546505,11.0918687 6.88194451,11.0918687 1.79501392,9.94045534 L1.79501392,3.87215412 C1.7896575,2.71826972 2.69464124,1.77412763 3.82621389,1.7530648 Z" id="Shape"></path>
                <path d="M5.23809524,13.6190476 C4.08092719,13.6190476 3.14285714,14.5571177 3.14285714,15.7142857 C3.14285714,16.8714538 4.08092719,17.8095238 5.23809524,17.8095238 C6.39526329,17.8095238 7.33333333,16.8714538 7.33333333,15.7142857 C7.33333333,14.5571177 6.39526329,13.6190476 5.23809524,13.6190476 Z M5.23809524,16.1658456 C4.99072307,16.161041 4.79134,15.9616579 4.7865353,15.7142857 C4.7865353,15.464896 4.98870557,15.2627258 5.23809524,15.2627258 C5.4874849,15.2627258 5.68965517,15.464896 5.68965517,15.7142857 C5.69975917,15.8401727 5.65668333,15.9645383 5.57087966,16.0572063 C5.48507598,16.1498742 5.3643864,16.2023753 5.23809524,16.2019704 L5.23809524,16.1658456 Z" id="Shape"></path>
                <path d="M13.6190476,13.6190476 C12.4618796,13.6190476 11.5238095,14.5571177 11.5238095,15.7142857 C11.5238095,16.8714538 12.4618796,17.8095238 13.6190476,17.8095238 C14.7762157,17.8095238 15.7142857,16.8714538 15.7142857,15.7142857 C15.7142857,14.5571177 14.7762157,13.6190476 13.6190476,13.6190476 Z M13.6190476,16.1658456 C13.369658,16.1658456 13.1674877,15.9636754 13.1674877,15.7142857 C13.1674877,15.464896 13.369658,15.2627258 13.6190476,15.2627258 C13.8684373,15.2627258 14.0706076,15.464896 14.0706076,15.7142857 C14.0780066,15.8395109 14.0340094,15.9623366 13.948782,16.0543821 C13.8635546,16.1464277 13.7444712,16.1997292 13.6190476,16.2019704 L13.6190476,16.1658456 Z" id="Shape"></path>
            </g>
        </g>
    </g>
</svg>