<svg xmlns="http://www.w3.org/2000/svg" width="49" height="49" viewBox="0 0 49 49">
    <g fill="none" fill-rule="evenodd">
        <circle cx="24.5" cy="24.5" r="24.5" fill="#FFF2F1"/>
        <g fill="#FB5645" fill-rule="nonzero">
            <path d="M37.266 15.103a.928.928 0 0 0-1.103.713l-.675 3.15A12.069 12.069 0 0 0 25.073 13C18.416 13 13 18.415 13 25.071a.929.929 0 0 0 1.857 0c0-5.632 4.583-10.214 10.216-10.214 3.672 0 7.022 1.962 8.835 5.084l-3.096-.663a.929.929 0 1 0-.39 1.816l5.316 1.139a.927.927 0 0 0 1.102-.714l1.14-5.314a.929.929 0 0 0-.714-1.102zM36.03 24c-.515.017-.919.434-.902.933.09 2.652-.891 5.179-2.765 7.116-1.874 1.937-4.415 3.052-7.155 3.14-.114.003-.228.005-.341.005-3.576 0-6.87-1.797-8.73-4.709l3.244.842c.498.129 1.01-.157 1.143-.639a.9.9 0 0 0-.66-1.106l-5.275-1.368a.961.961 0 0 0-.708.09.907.907 0 0 0-.435.548l-1.414 5.105a.9.9 0 0 0 .66 1.106.963.963 0 0 0 .242.031.93.93 0 0 0 .9-.67l.796-2.868C16.84 34.926 20.69 37 24.866 37c.134 0 .27-.002.404-.006 3.238-.104 6.241-1.422 8.455-3.71 2.215-2.29 3.375-5.277 3.268-8.41-.017-.5-.448-.891-.963-.873z"/>
        </g>
    </g>
</svg>
