<svg xmlns="http://www.w3.org/2000/svg" width="63" height="60" viewBox="0 0 63 60">
    <path fill="#44B6FB" fill-rule="nonzero" d="M16.767 4.879L12.575.687A31.57 31.57 0 0 0 0 24.04h5.988c.6-8.084 4.491-14.97 10.78-19.162zM56.888 24.04h5.989C62.277 14.46 57.787 6.076 50.6.687l-4.192 4.192c5.988 4.191 9.88 11.078 10.48 19.162zM50.9 25.538c0-9.282-6.287-16.767-14.97-18.863V4.58c0-2.395-2.096-4.49-4.492-4.49-2.395 0-4.49 2.095-4.49 4.49v2.096c-8.684 2.096-14.971 9.581-14.971 18.863v16.468l-5.989 5.988v2.994h50.9v-2.994L50.9 42.006V25.538zM31.438 59.971h1.198c2.096-.3 3.593-1.797 4.192-3.593.3-.6.599-1.497.599-2.396H25.45c0 3.294 2.695 5.989 5.988 5.989z"/>
</svg>
