<?xml version="1.0" encoding="UTF-8" standalone="no"?>
<!-- Created with Inkscape (http://www.inkscape.org/) -->

<svg
   xmlns:dc="http://purl.org/dc/elements/1.1/"
   xmlns:cc="http://creativecommons.org/ns#"
   xmlns:rdf="http://www.w3.org/1999/02/22-rdf-syntax-ns#"
   xmlns:svg="http://www.w3.org/2000/svg"
   xmlns="http://www.w3.org/2000/svg"
   xmlns:sodipodi="http://sodipodi.sourceforge.net/DTD/sodipodi-0.dtd"
   xmlns:inkscape="http://www.inkscape.org/namespaces/inkscape"
   width="64px"
   height="64px"
   id="svg3408"
   version="1.1"
   inkscape:version="0.48.4 r9939"
   sodipodi:docname="New document 9">
  <defs
     id="defs3410" />
  <sodipodi:namedview
     id="base"
     pagecolor="#ffffff"
     bordercolor="#666666"
     borderopacity="1.0"
     inkscape:pageopacity="0.0"
     inkscape:pageshadow="2"
     inkscape:zoom="5.5"
     inkscape:cx="32"
     inkscape:cy="32"
     inkscape:current-layer="layer1"
     showgrid="true"
     inkscape:document-units="px"
     inkscape:grid-bbox="true"
     inkscape:window-width="1920"
     inkscape:window-height="1018"
     inkscape:window-x="0"
     inkscape:window-y="27"
     inkscape:window-maximized="1" />
  <metadata
     id="metadata3413">
    <rdf:RDF>
      <cc:Work
         rdf:about="">
        <dc:format>image/svg+xml</dc:format>
        <dc:type
           rdf:resource="http://purl.org/dc/dcmitype/StillImage" />
        <dc:title></dc:title>
      </cc:Work>
    </rdf:RDF>
  </metadata>
  <g
     id="layer1"
     inkscape:label="Layer 1"
     inkscape:groupmode="layer">
    <g
       transform="matrix(0.93820044,0,0,0.93820044,-21.701018,-270.56964)"
       id="g289">
      <path
         style="fill:#919fb8"
         inkscape:connector-curvature="0"
         d="M 80.094,313.554 H 42.757 v -4.145 c 0,-8.413 6.845,-15.257 15.257,-15.257 5.693,0 10.875,3.136 13.523,8.183 0.724,1.382 2.433,1.915 3.815,1.19 1.383,-0.725 1.915,-2.433 1.19,-3.815 -3.626,-6.914 -10.726,-11.21 -18.528,-11.21 -11.529,0 -20.909,9.38 -20.909,20.909 v 4.145 h -1.172 c -0.801,0 -1.456,0.655 -1.456,1.456 v 40.034 c 0,0.8 0.655,1.456 1.456,1.456 h 44.161 c 0.801,0 1.456,-0.656 1.456,-1.456 V 315.01 c 0.001,-0.801 -0.655,-1.456 -1.456,-1.456 l 0,0 z M 61.712,337.1 c 0,0.919 0.003,6.11 0.003,6.11 0,2.043 -1.657,3.701 -3.701,3.701 -2.044,0 -3.701,-1.658 -3.701,-3.701 0,0 0.003,-5.19 0.003,-6.11 0,-1.963 -3.771,-1.844 -3.771,-6.488 0,-4.125 3.344,-7.469 7.469,-7.469 4.125,0 7.468,3.343 7.468,7.469 0.001,4.644 -3.77,4.525 -3.77,6.488 l 0,0 z m 0,0"
         id="path291" />
    </g>
  </g>
</svg>
