<svg xmlns="http://www.w3.org/2000/svg" width="15" height="15" viewBox="0 0 15 15">
    <path fill="#94ABD1" fill-rule="nonzero" d="M14.452 4.53l-.663.664L9.81 1.217l.663-.664a1.875 1.875 0 0 1 2.652 0l1.326 1.326c.731.732.731 1.92 0 2.652zM5.17 12.486a.468.468 0 1 0 .663.663l7.293-7.291-.664-.663-7.292 7.291zM1.855 9.171a.468.468 0 1 0 .663.663L9.81 2.542l-.663-.663-7.293 7.292zm8.618-5.966L3.18 10.497a.938.938 0 0 0 1.327 1.325L11.8 4.53l-1.326-1.326zM4.505 13.809c-.224-.224-.332-.509-.372-.802a1.892 1.892 0 0 1-.29.029c-.5 0-.97-.196-1.325-.55a1.864 1.864 0 0 1-.55-1.326c0-.092.014-.18.027-.27a1.39 1.39 0 0 1-.803-.393c-.021-.021-.028-.05-.047-.072L0 15.004l4.568-1.143c-.02-.019-.043-.032-.063-.052z"/>
</svg>
