<?xml version="1.0" encoding="iso-8859-1"?>
<!-- Generator: Adobe Illustrator 16.0.0, SVG Export Plug-In . SVG Version: 6.00 Build 0)  -->
<!DOCTYPE svg PUBLIC "-//W3C//DTD SVG 1.1//EN" "http://www.w3.org/Graphics/SVG/1.1/DTD/svg11.dtd">
<svg xmlns="http://www.w3.org/2000/svg" xmlns:xlink="http://www.w3.org/1999/xlink" version="1.1" id="Capa_1" x="0px" y="0px" width="512px" height="512px" viewBox="0 0 568.286 568.286" style="enable-background:new 0 0 568.286 568.286;" xml:space="preserve">
<g>
	<path d="M507.086,109.286h-40.654c-7.082,0-13.552-4.372-16.175-11.016l-16.698-36.807c-8.48-18.797-27.19-30.862-47.736-30.862   h-89.701c-20.546,0-39.256,12.065-47.736,30.862L231.686,98.27c-2.623,6.645-9.092,11.016-16.174,11.016h-44.676   c-2.973,0-5.683-1.486-7.344-3.934l-9.705-14.513c-3.235-4.896-8.656-7.781-14.513-7.781h-33.748   c-5.858,0-11.278,2.885-14.513,7.781l-9.705,14.513c-1.661,2.448-4.372,3.934-7.344,3.934H61.2c-33.835,0-61.2,27.365-61.2,61.2   v305.999c0,33.836,27.365,61.201,61.2,61.201h445.886c33.835,0,61.2-27.365,61.2-61.201V170.486   C568.286,136.651,540.921,109.286,507.086,109.286z M179.229,214.2c-12.065,0-21.857-9.792-21.857-21.857   c0-12.065,9.792-21.857,21.857-21.857c12.065,0,21.857,9.792,21.857,21.857C201.086,204.408,191.294,214.2,179.229,214.2z    M336.6,459c-74.838,0-135.514-60.676-135.514-135.516c0-74.838,60.675-135.513,135.514-135.513   c74.839,0,135.515,60.675,135.515,135.513C472.114,398.325,411.438,459,336.6,459z M227.314,332.229   c-4.835,0-8.743-3.908-8.743-8.744c0-65.081,52.947-118.028,118.028-118.028c4.835,0,8.743,3.908,8.743,8.743   c0,4.834-3.908,8.743-8.743,8.743c-55.438,0-100.542,45.104-100.542,100.542C236.057,328.321,232.149,332.229,227.314,332.229z" fill="#44b6fb"/>
</g>
<g>
</g>
<g>
</g>
<g>
</g>
<g>
</g>
<g>
</g>
<g>
</g>
<g>
</g>
<g>
</g>
<g>
</g>
<g>
</g>
<g>
</g>
<g>
</g>
<g>
</g>
<g>
</g>
<g>
</g>
</svg>
