<?xml version="1.0" encoding="UTF-8" standalone="no"?>
<!-- Created with Inkscape (http://www.inkscape.org/) -->

<svg
   xmlns:dc="http://purl.org/dc/elements/1.1/"
   xmlns:cc="http://creativecommons.org/ns#"
   xmlns:rdf="http://www.w3.org/1999/02/22-rdf-syntax-ns#"
   xmlns:svg="http://www.w3.org/2000/svg"
   xmlns="http://www.w3.org/2000/svg"
   xmlns:sodipodi="http://sodipodi.sourceforge.net/DTD/sodipodi-0.dtd"
   xmlns:inkscape="http://www.inkscape.org/namespaces/inkscape"
   width="64px"
   height="64px"
   id="svg3380"
   version="1.1"
   inkscape:version="0.48.4 r9939"
   sodipodi:docname="New document 2">
  <defs
     id="defs3382" />
  <sodipodi:namedview
     id="base"
     pagecolor="#ffffff"
     bordercolor="#666666"
     borderopacity="1.0"
     inkscape:pageopacity="0.0"
     inkscape:pageshadow="2"
     inkscape:zoom="5.5"
     inkscape:cx="32"
     inkscape:cy="32"
     inkscape:current-layer="layer1"
     showgrid="true"
     inkscape:document-units="px"
     inkscape:grid-bbox="true"
     inkscape:window-width="1920"
     inkscape:window-height="1018"
     inkscape:window-x="0"
     inkscape:window-y="27"
     inkscape:window-maximized="1" />
  <metadata
     id="metadata3385">
    <rdf:RDF>
      <cc:Work
         rdf:about="">
        <dc:format>image/svg+xml</dc:format>
        <dc:type
           rdf:resource="http://purl.org/dc/dcmitype/StillImage" />
        <dc:title></dc:title>
      </cc:Work>
    </rdf:RDF>
  </metadata>
  <g
     id="layer1"
     inkscape:label="Layer 1"
     inkscape:groupmode="layer">
    <g
       transform="matrix(0.96146987,0,0,0.96146987,-36.60376,-1230.4638)"
       id="g383">
      <path
         style="fill:#283140"
         inkscape:connector-curvature="0"
         d="m 71.349,1280.024 c -18.236,0 -33.028,14.785 -33.028,33.028 0,18.243 14.792,33.036 33.028,33.036 18.244,0 33.036,-14.793 33.036,-33.036 0,-18.243 -14.785,-33.028 -33.036,-33.028 l 0,0 z m 0,9.876 c 6.036,0 10.933,4.896 10.933,10.925 0,6.036 -4.896,10.924 -10.933,10.924 -6.028,0 -10.917,-4.888 -10.917,-10.924 0,-6.029 4.889,-10.925 10.917,-10.925 l 0,0 z m -0.007,47.552 c -6.014,0 -11.533,-2.196 -15.784,-5.823 -1.034,-0.886 -1.63,-2.175 -1.63,-3.542 0,-6.114 4.953,-11.01 11.067,-11.01 h 12.717 c 6.121,0 11.05,4.896 11.05,11.01 0,1.367 -0.593,2.656 -1.627,3.542 -4.252,3.627 -9.77,5.823 -15.793,5.823 l 0,0 z m 0,0"
         id="path385" />
    </g>
  </g>
</svg>
