<svg xmlns="http://www.w3.org/2000/svg" width="15" height="17" viewBox="0 0 15 17">
    <g fill="#919FB9" fill-rule="nonzero" stroke="#919FB9" stroke-width=".6">
        <path d="M11.628 5.985a.44.44 0 0 1-.312-.753l1.74-1.74-1.74-1.74a.441.441 0 0 1 .623-.623l2.052 2.052a.441.441 0 0 1 0 .623L11.94 5.856a.44.44 0 0 1-.311.129z"/>
        <path d="M1.491 8.465a.44.44 0 0 1-.44-.44V5.367a2.318 2.318 0 0 1 2.315-2.316h10.313a.44.44 0 0 1 0 .881H3.366c-.79 0-1.434.644-1.434 1.435v2.656a.44.44 0 0 1-.441.44zM11.804 13.934H1.468a.44.44 0 0 1 0-.882h10.336c.791 0 1.434-.643 1.434-1.434V8.909a.44.44 0 0 1 .882 0v2.709a2.318 2.318 0 0 1-2.316 2.316z"/>
        <path d="M3.52 15.986a.44.44 0 0 1-.312-.13l-2.052-2.051a.441.441 0 0 1 0-.624l2.052-2.051a.44.44 0 0 1 .623.623l-1.74 1.74 1.74 1.74a.441.441 0 0 1-.311.753z"/>
    </g>
</svg>
