<?xml version="1.0" encoding="utf-8"?>
<!-- Generator: Adobe Illustrator 17.1.0, SVG Export Plug-In . SVG Version: 6.00 Build 0)  -->
<!DOCTYPE svg PUBLIC "-//W3C//DTD SVG 1.1//EN" "http://www.w3.org/Graphics/SVG/1.1/DTD/svg11.dtd">
<svg version="1.1"
	 id="svg4042" inkscape:version="0.48.4 r9939" sodipodi:docname="New document 25" xmlns:dc="http://purl.org/dc/elements/1.1/" xmlns:cc="http://creativecommons.org/ns#" xmlns:rdf="http://www.w3.org/1999/02/22-rdf-syntax-ns#" xmlns:svg="http://www.w3.org/2000/svg" xmlns:sodipodi="http://sodipodi.sourceforge.net/DTD/sodipodi-0.dtd" xmlns:inkscape="http://www.inkscape.org/namespaces/inkscape"
	 xmlns="http://www.w3.org/2000/svg" xmlns:xlink="http://www.w3.org/1999/xlink" x="0px" y="0px" viewBox="0 0 64 64"
	 enable-background="new 0 0 64 64" xml:space="preserve">
<sodipodi:namedview  id="base" inkscape:window-maximized="1" inkscape:window-y="27" inkscape:document-units="px" inkscape:pageshadow="2" inkscape:pageopacity="0.0" inkscape:window-x="0" inkscape:window-height="1018" inkscape:current-layer="layer1" inkscape:grid-bbox="true" inkscape:window-width="1920" showgrid="true" inkscape:cy="32" inkscape:cx="32" inkscape:zoom="5.5" borderopacity="1.0" bordercolor="#666666" pagecolor="#ffffff">
	</sodipodi:namedview>
<g id="layer1" inkscape:groupmode="layer" inkscape:label="Layer 1">
	<g id="g128" transform="matrix(0.86248777,0,0,0.86248777,-448.69591,-36.91191)">
		<g id="g130">
			<path id="path132" inkscape:connector-curvature="0" fill="#44B6FB" d="M569.5,76c-0.1-0.7-0.3-1.3-0.7-1.8l2.8-17.2
				c0.1-0.6-0.3-1.2-0.9-1.4l0,0c-0.6-0.1-1.3,0.2-1.5,0.8l-5,16.6c-1.2,0.6-2.1,1.9-2.1,3.4c0,2.1,1.7,3.8,3.8,3.8
				c0.4,0,0.8-0.1,1.1-0.2l10.5,5.5c0.6,0.3,1.3,0.1,1.6-0.4l0,0c0.4-0.5,0.2-1.3-0.3-1.7L569.5,76z M563.9,76.4
				c0-1,0.8-1.9,1.9-1.9c1,0,1.9,0.8,1.9,1.9s-0.8,1.9-1.9,1.9C564.7,78.3,563.9,77.4,563.9,76.4L563.9,76.4z M594.4,76.4
				c0,12.7-8.3,23.5-19.8,27.2l0-4.1c9.3-3.5,16-12.6,16-23.1c0-13.6-11.1-24.7-24.7-24.7S541,62.8,541,76.4c0,1.4,0.1,2.7,0.3,4
				h-3.9c-0.2-1.3-0.3-2.7-0.3-4c0-15.8,12.8-28.6,28.6-28.6S594.4,60.6,594.4,76.4L594.4,76.4L594.4,76.4z M558.7,102.8
				c-2.5,0-4.6,2.1-4.6,4.6s2.1,4.6,4.6,4.6s4.6-2.1,4.6-4.6S561.2,102.8,558.7,102.8L558.7,102.8z M558.7,109.4c-1.1,0-2-0.9-2-2
				s0.9-2,2-2c1.1,0,2,0.9,2,2S559.8,109.4,558.7,109.4L558.7,109.4z M531.8,102.8c-2.5,0-4.6,2.1-4.6,4.6s2.1,4.6,4.6,4.6
				c2.5,0,4.6-2.1,4.6-4.6S534.3,102.8,531.8,102.8L531.8,102.8z M531.8,109.4c-1.1,0-2-0.9-2-2s0.9-2,2-2c1.1,0,2,0.9,2,2
				S532.9,109.4,531.8,109.4L531.8,109.4z M523.1,84.3c-1.5,0-2.7,1.2-2.7,2.7v17.7c0,1.5,1.2,2.7,2.7,2.7h3.3c0-3,2.4-5.4,5.4-5.4
				s5.4,2.4,5.4,5.4h16.1c0-3,2.4-5.4,5.4-5.4c3,0,5.4,2.4,5.4,5.4h2.8c1.5,0,2.7-1.2,2.7-2.7v-6.3c0-1.5-0.2-3.9-0.5-5.4l-1.6-6
				c-0.3-1.5-1.8-2.7-3.3-2.7H523.1L523.1,84.3L523.1,84.3z M558.3,95.8v-9.9h5.4c1.1,0,2.2,0.9,2.4,2l1.5,5.9
				c0.2,0.9-0.3,1.7-1.2,2l-1.3-3c-0.2-0.4-0.7-0.6-1.1-0.4c-0.4,0.2-0.6,0.7-0.4,1.1l1,2.4L558.3,95.8L558.3,95.8L558.3,95.8z
				 M546.1,85.9h10.5v9.9h-10.5V85.9z M533.9,85.9h10.5v9.9h-10.5V85.9z M522,87.9c0-1.1,0.9-2.1,2.1-2.1h8.2v9.9H524
				c-1.1,0-2.1-0.9-2.1-2.1V87.9z"/>
		</g>
	</g>
</g>
</svg>
