<?xml version="1.0" encoding="utf-8"?>
<!-- Generator: Adobe Illustrator 17.1.0, SVG Export Plug-In . SVG Version: 6.00 Build 0)  -->
<!DOCTYPE svg PUBLIC "-//W3C//DTD SVG 1.1//EN" "http://www.w3.org/Graphics/SVG/1.1/DTD/svg11.dtd">
<svg version="1.1"
	 id="svg4094" inkscape:version="0.48.4 r9939" sodipodi:docname="New document 28" xmlns:dc="http://purl.org/dc/elements/1.1/" xmlns:cc="http://creativecommons.org/ns#" xmlns:rdf="http://www.w3.org/1999/02/22-rdf-syntax-ns#" xmlns:svg="http://www.w3.org/2000/svg" xmlns:sodipodi="http://sodipodi.sourceforge.net/DTD/sodipodi-0.dtd" xmlns:inkscape="http://www.inkscape.org/namespaces/inkscape"
	 xmlns="http://www.w3.org/2000/svg" xmlns:xlink="http://www.w3.org/1999/xlink" x="0px" y="0px" viewBox="0 0 64 64"
	 enable-background="new 0 0 64 64" xml:space="preserve">
<sodipodi:namedview  id="base" inkscape:window-maximized="1" inkscape:window-y="27" inkscape:document-units="px" inkscape:pageshadow="2" inkscape:pageopacity="0.0" inkscape:window-x="0" inkscape:window-height="1018" inkscape:current-layer="layer1" inkscape:grid-bbox="true" inkscape:window-width="1920" showgrid="true" inkscape:cy="32" inkscape:cx="32" inkscape:zoom="5.5" borderopacity="1.0" bordercolor="#666666" pagecolor="#ffffff">
	</sodipodi:namedview>
<g id="layer1" inkscape:groupmode="layer" inkscape:label="Layer 1">
	<g id="g55" transform="matrix(0.86125856,0,0,0.86125856,-13.088177,-121.81303)">
		<path id="path57" inkscape:connector-curvature="0" fill="#44B6FB" d="M72.8,185.6c-3.8,0-6.8,3.1-6.8,6.8c0,3.8,3.1,6.8,6.8,6.8
			c3.8,0,6.8-3.1,6.8-6.8C79.6,188.6,76.5,185.6,72.8,185.6L72.8,185.6z M72.8,195.4c-1.6,0-3-1.3-3-3s1.3-3,3-3c1.6,0,3,1.3,3,3
			S74.4,195.4,72.8,195.4L72.8,195.4z"/>
		<path id="path59" inkscape:connector-curvature="0" fill="#44B6FB" d="M32.7,185.6c-3.8,0-6.8,3.1-6.8,6.8c0,3.8,3.1,6.8,6.8,6.8
			c3.8,0,6.8-3.1,6.8-6.8C39.6,188.6,36.5,185.6,32.7,185.6L32.7,185.6z M32.7,195.4c-1.6,0-3-1.3-3-3s1.3-3,3-3c1.6,0,3,1.3,3,3
			S34.4,195.4,32.7,195.4L32.7,195.4z"/>
		<path id="path61" inkscape:connector-curvature="0" fill="#44B6FB" d="M19.7,158c-2.2,0-4.1,1.8-4.1,4.1v26.3
			c0,2.2,1.8,4.1,4.1,4.1h5c0-4.4,3.6-8,8-8c4.4,0,8,3.6,8,8h23.9c0-4.4,3.6-8,8-8c4.4,0,8,3.6,8,8H85c2.2,0,4.1-1.8,4.1-4.1V179
			c0-2.2-0.4-5.9-0.8-8.1l-2.4-8.9c-0.4-2.2-2.6-4-4.9-4L19.7,158L19.7,158L19.7,158z M72.1,175.2v-14.7h8.1c1.7,0,3.3,1.4,3.6,3
			l2.2,8.7c0.3,1.4-0.5,2.6-1.8,2.9l-1.9-4.4c-0.3-0.6-1-0.9-1.6-0.7s-0.9,1-0.7,1.6l1.5,3.6L72.1,175.2L72.1,175.2L72.1,175.2z
			 M54,160.4h15.7v14.7H54V160.4z M35.9,160.4h15.7v14.7H35.9C35.9,175.2,35.9,160.4,35.9,160.4z M18.2,163.5c0-1.7,1.4-3.1,3.1-3.1
			h12.2v14.7H21.2c-1.7,0-3.1-1.4-3.1-3.1C18.2,172.1,18.2,163.5,18.2,163.5z"/>
	</g>
</g>
</svg>
