<?xml version="1.0" encoding="utf-8"?>
<!-- Generator: Adobe Illustrator 17.1.0, SVG Export Plug-In . SVG Version: 6.00 Build 0)  -->
<!DOCTYPE svg PUBLIC "-//W3C//DTD SVG 1.1//EN" "http://www.w3.org/Graphics/SVG/1.1/DTD/svg11.dtd">
<svg version="1.1"
	 id="svg3574" inkscape:version="0.48.4 r9939" sodipodi:docname="New document 8" xmlns:dc="http://purl.org/dc/elements/1.1/" xmlns:cc="http://creativecommons.org/ns#" xmlns:rdf="http://www.w3.org/1999/02/22-rdf-syntax-ns#" xmlns:svg="http://www.w3.org/2000/svg" xmlns:sodipodi="http://sodipodi.sourceforge.net/DTD/sodipodi-0.dtd" xmlns:inkscape="http://www.inkscape.org/namespaces/inkscape"
	 xmlns="http://www.w3.org/2000/svg" xmlns:xlink="http://www.w3.org/1999/xlink" x="0px" y="0px" viewBox="0 0 64 64"
	 enable-background="new 0 0 64 64" xml:space="preserve">
<sodipodi:namedview  id="base" inkscape:window-maximized="1" inkscape:window-y="27" inkscape:document-units="px" inkscape:pageshadow="2" inkscape:pageopacity="0.0" inkscape:window-x="0" inkscape:window-height="1018" inkscape:current-layer="layer1" inkscape:grid-bbox="true" inkscape:window-width="1920" showgrid="true" inkscape:cy="32" inkscape:cx="32" inkscape:zoom="5.5" borderopacity="1.0" bordercolor="#666666" pagecolor="#ffffff">
	</sodipodi:namedview>
<g id="layer1" inkscape:groupmode="layer" inkscape:label="Layer 1">
	<g id="g43" transform="matrix(0.98867212,0,0,0.98867212,-132.76418,-46.689306)">
		<g id="g45">
			<path id="path47" inkscape:connector-curvature="0" fill="#44B6FB" d="M147.8,49.5l-11.6,11.7h11.6L147.8,49.5L147.8,49.5z"/>
			<path id="path49" inkscape:connector-curvature="0" fill="#44B6FB" d="M163.9,87.7c0-11,8.9-19.9,19.9-19.9
				c1.1,0,2.1,0.1,3.1,0.2V48h-36.3v16.1h-16.1v47.5h52.4v-4.1c-1,0.2-2,0.2-3.1,0.2C172.8,107.7,163.9,98.7,163.9,87.7
				C163.9,87.7,163.9,87.7,163.9,87.7z"/>
		</g>
		<g id="g51">
			<path id="path53" inkscape:connector-curvature="0" fill="#44B6FB" d="M186.4,71.5c-6.8,0-12.4,5.6-12.4,12.4
				c0,2.6,0.8,5.1,2.3,7.2l0.3,0.5l8.9,12.6c0.2,0.3,0.5,0.4,0.8,0.4c0.3,0,0.6-0.2,0.8-0.4l8.8-12.4l0.4-0.6
				c1.5-2.1,2.3-4.6,2.3-7.2C198.8,77.1,193.2,71.5,186.4,71.5L186.4,71.5z M186.4,88.1c-2.3,0-4.1-1.9-4.1-4.1
				c0-2.3,1.9-4.1,4.1-4.1c2.3,0,4.1,1.9,4.1,4.1S188.6,88.1,186.4,88.1L186.4,88.1z"/>
		</g>
	</g>
</g>
</svg>
