<?xml version="1.0" encoding="utf-8"?>
<!-- Generator: Adobe Illustrator 17.1.0, SVG Export Plug-In . SVG Version: 6.00 Build 0)  -->
<!DOCTYPE svg PUBLIC "-//W3C//DTD SVG 1.1//EN" "http://www.w3.org/Graphics/SVG/1.1/DTD/svg11.dtd">
<svg version="1.1"
	 id="svg4381" inkscape:version="0.48.4 r9939" sodipodi:docname="New document 43" xmlns:dc="http://purl.org/dc/elements/1.1/" xmlns:cc="http://creativecommons.org/ns#" xmlns:rdf="http://www.w3.org/1999/02/22-rdf-syntax-ns#" xmlns:svg="http://www.w3.org/2000/svg" xmlns:sodipodi="http://sodipodi.sourceforge.net/DTD/sodipodi-0.dtd" xmlns:inkscape="http://www.inkscape.org/namespaces/inkscape"
	 xmlns="http://www.w3.org/2000/svg" xmlns:xlink="http://www.w3.org/1999/xlink" x="0px" y="0px" viewBox="0 0 64 64"
	 enable-background="new 0 0 64 64" xml:space="preserve">
<sodipodi:namedview  id="base" inkscape:window-maximized="1" inkscape:window-y="27" inkscape:document-units="px" inkscape:pageshadow="2" inkscape:pageopacity="0.0" inkscape:window-x="0" inkscape:window-height="1018" inkscape:current-layer="layer1" inkscape:grid-bbox="true" inkscape:window-width="1920" showgrid="true" inkscape:cy="32" inkscape:cx="32" inkscape:zoom="5.5" borderopacity="1.0" bordercolor="#666666" pagecolor="#ffffff">
	</sodipodi:namedview>
<g id="layer1" inkscape:groupmode="layer" inkscape:label="Layer 1">
	<g id="g262" transform="matrix(1.0606162,0,0,1.0606162,-562.14869,-152.88449)">
		<g id="g264">
			<g id="g266">
				<g id="g268">
					<path id="path270" inkscape:connector-curvature="0" fill="#44B6FB" d="M558.3,166.5c0-3.5-2.9-5-5.6-5c-4.3,0-5.8,3.5-5.8,3.5
						l3,2c0,0,0.9-1.7,2.4-1.7c0.8,0,1.8,0.5,1.8,1.6c0,2.4-7.1,3.4-7.1,9.5c0,0.6,0.1,1.1,0.2,1.8h11.3v-3.4h-6.9
						C551.7,172.6,558.3,171.6,558.3,166.5L558.3,166.5z"/>
					<path id="path272" inkscape:connector-curvature="0" fill="#44B6FB" d="M571.4,161.8h-4.9l-6.3,10v2.4h7.2v4h4v-4h1.9v-3.3
						h-1.9L571.4,161.8L571.4,161.8z M567.4,167.2v3.7l0,0h-3.2v0l2.5-3.7c0.5-0.7,0.8-1.7,0.8-1.7h0
						C567.6,165.4,567.4,166.3,567.4,167.2L567.4,167.2z"/>
					<path id="path274" inkscape:connector-curvature="0" fill="#44B6FB" d="M565.7,144.8C565.7,144.8,565.6,144.8,565.7,144.8
						c-0.2,0-0.3-0.1-0.5-0.1c0,0,0,0,0,0c-0.3,0-0.5-0.1-0.8-0.1c-0.1,0-0.2,0-0.2,0c-0.1,0-0.3,0-0.4-0.1c-0.1,0-0.3,0-0.4,0
						c-0.1,0-0.2,0-0.3,0c-0.2,0-0.3,0-0.5,0c-0.1,0-0.2,0-0.2,0c-0.2,0-0.3,0-0.5,0c-0.1,0-0.1,0-0.2,0c-0.2,0-0.4,0-0.6,0
						c-0.1,0-0.1,0-0.2,0c-0.2,0-0.4,0-0.7,0c0,0,0,0,0,0c0,0,0,0,0,0h0c0,0,0,0,0,0c-0.2,0-0.4,0-0.6,0c-0.1,0-0.1,0-0.2,0
						c-0.2,0-0.4,0-0.6,0c-0.1,0-0.1,0-0.2,0c-0.2,0-0.3,0-0.5,0c-0.1,0-0.2,0-0.3,0c-0.2,0-0.3,0-0.5,0c-0.1,0-0.2,0-0.3,0
						c-0.1,0-0.3,0-0.4,0c-0.1,0-0.3,0-0.4,0.1c-0.1,0-0.2,0-0.2,0c-0.3,0-0.5,0.1-0.8,0.1c0,0,0,0,0,0c-0.1,0-0.3,0.1-0.4,0.1
						c0,0,0,0,0,0c-13.6,2.6-24,14.6-24,28.9c0,11.2,6.3,21,15.6,26c-0.1-0.6-0.2-1.3-0.2-2c0-1,0.3-1.9,0.7-2.8
						c-6.2-3.9-10.6-10.5-11.5-18.2l5.1-3l-5.1-3c0.5-4,1.9-7.7,4-10.9c0,0,0,0,0,0c3.9-5.8,10-9.9,17.1-10.9c0,0,0,0,0,0
						c0.2,0,0.5-0.1,0.7-0.1l3,5.1l0,0l0,0l3-5.1c0.2,0,0.5,0.1,0.7,0.1c0,0,0,0,0,0c7.1,1.1,13.3,5.2,17.1,10.9c0,0,0,0,0,0
						c2.1,3.2,3.6,6.9,4,10.9l-5.1,3l5.1,3c-0.9,7.6-5.3,14.2-11.5,18.2c0.4,0.9,0.6,1.8,0.7,2.8c0,0.7,0,1.4-0.2,2
						c9.2-5,15.6-14.7,15.6-26C589.6,159.4,579.3,147.4,565.7,144.8L565.7,144.8z"/>
				</g>
			</g>
		</g>
		<g id="g276">
			<g id="g278">
				<path id="path280" inkscape:connector-curvature="0" fill="#44B6FB" d="M570.9,197.2c-2,0-3.6,1.6-3.6,3.6c0,2,1.6,3.6,3.6,3.6
					s3.6-1.6,3.6-3.6C574.4,198.8,572.8,197.2,570.9,197.2L570.9,197.2z M570.9,202.3c-0.9,0-1.6-0.7-1.6-1.6c0-0.9,0.7-1.6,1.6-1.6
					s1.6,0.7,1.6,1.6C572.4,201.6,571.7,202.3,570.9,202.3L570.9,202.3z"/>
				<path id="path282" inkscape:connector-curvature="0" fill="#44B6FB" d="M549.9,197.2c-2,0-3.6,1.6-3.6,3.6c0,2,1.6,3.6,3.6,3.6
					c2,0,3.6-1.6,3.6-3.6C553.5,198.8,551.9,197.2,549.9,197.2L549.9,197.2z M549.9,202.3c-0.9,0-1.6-0.7-1.6-1.6
					c0-0.9,0.7-1.6,1.6-1.6c0.9,0,1.5,0.7,1.5,1.6C551.5,201.6,550.8,202.3,549.9,202.3L549.9,202.3z"/>
				<path id="path284" inkscape:connector-curvature="0" fill="#44B6FB" d="M543.1,182.7c-1.2,0-2.1,1-2.1,2.1v13.7
					c0,1.2,1,2.1,2.1,2.1h2.6c0-2.3,1.9-4.2,4.2-4.2c2.3,0,4.2,1.9,4.2,4.2h12.5c0-2.3,1.9-4.2,4.2-4.2s4.2,1.9,4.2,4.2h2.2
					c1.2,0,2.1-1,2.1-2.1v-4.9c0-1.2-0.2-3.1-0.4-4.2l-1.3-4.7c-0.2-1.1-1.4-2.1-2.6-2.1H543.1L543.1,182.7L543.1,182.7z
					 M570.5,191.7V184h4.2c0.9,0,1.7,0.7,1.9,1.6l1.1,4.6c0.1,0.7-0.3,1.3-0.9,1.5l-1-2.3c-0.1-0.3-0.5-0.5-0.8-0.3
					c-0.3,0.1-0.5,0.5-0.3,0.8l0.8,1.9H570.5L570.5,191.7L570.5,191.7z M561,184h8.2v7.7H561V184z M551.6,184h8.2v7.7h-8.2V184z
					 M542.3,185.6c0-0.9,0.7-1.6,1.6-1.6h6.4v7.7h-6.4c-0.9,0-1.6-0.7-1.6-1.6V185.6L542.3,185.6z"/>
			</g>
		</g>
	</g>
</g>
</svg>
