<?xml version="1.0" encoding="utf-8"?>
<!-- Generator: Adobe Illustrator 17.1.0, SVG Export Plug-In . SVG Version: 6.00 Build 0)  -->
<!DOCTYPE svg PUBLIC "-//W3C//DTD SVG 1.1//EN" "http://www.w3.org/Graphics/SVG/1.1/DTD/svg11.dtd">
<svg version="1.1"
	 id="svg4150" inkscape:version="0.48.4 r9939" sodipodi:docname="New document 31" xmlns:dc="http://purl.org/dc/elements/1.1/" xmlns:cc="http://creativecommons.org/ns#" xmlns:rdf="http://www.w3.org/1999/02/22-rdf-syntax-ns#" xmlns:svg="http://www.w3.org/2000/svg" xmlns:sodipodi="http://sodipodi.sourceforge.net/DTD/sodipodi-0.dtd" xmlns:inkscape="http://www.inkscape.org/namespaces/inkscape"
	 xmlns="http://www.w3.org/2000/svg" xmlns:xlink="http://www.w3.org/1999/xlink" x="0px" y="0px" viewBox="0 0 64 64"
	 enable-background="new 0 0 64 64" xml:space="preserve">
<sodipodi:namedview  id="base" inkscape:window-maximized="1" inkscape:window-y="27" inkscape:document-units="px" inkscape:pageshadow="2" inkscape:pageopacity="0.0" inkscape:window-x="0" inkscape:window-height="1018" inkscape:current-layer="layer1" inkscape:grid-bbox="true" inkscape:window-width="1920" showgrid="true" inkscape:cy="32" inkscape:cx="32" inkscape:zoom="5.5" borderopacity="1.0" bordercolor="#666666" pagecolor="#ffffff">
	</sodipodi:namedview>
<g id="layer1" inkscape:groupmode="layer" inkscape:label="Layer 1">
	<g id="g63" transform="matrix(0.90199871,0,0,0.90199871,-125.97689,-135.18224)">
		<g id="g65">
			<path id="path67" inkscape:connector-curvature="0" fill="#44B6FB" d="M176.5,188.1c0-1.8,1.5-3.3,3.3-3.3c1.8,0,3.3,1.5,3.3,3.3
				c0,0.4-0.1,0.8-0.2,1.1c1.4-0.4,2.8-0.7,4.2-0.9v-13.7l-3-24.3h-40.9l-3.1,24.3V199h3.9v5.6h6.9V199h16.8l2.1-2.1
				c2.5-2.5,5.3-4.5,8.4-6C177.2,190.4,176.5,189.3,176.5,188.1L176.5,188.1L176.5,188.1z M154,152.9h19.2c1.9,0,1.9,2.8,0,2.8H154
				c-0.5,0-0.9-0.2-1.1-0.5C152.3,154.4,152.6,152.9,154,152.9L154,152.9L154,152.9z M147.5,191.4c-1.8,0-3.3-1.5-3.3-3.3
				c0-1.8,1.5-3.3,3.3-3.3c1.8,0,3.3,1.5,3.3,3.3C150.8,189.9,149.3,191.4,147.5,191.4L147.5,191.4z M144.3,174.7l2-16h34.6l2,16
				H144.3L144.3,174.7z"/>
		</g>
		<path id="path69" inkscape:connector-curvature="0" fill="#44B6FB" d="M183.2,204.5c-0.1,0-0.1,0.1-0.2,0.1
			c-1.2,0.7-2.2,1.6-3.2,2.6l5.2,5.1c1.7-1.8,4-2.7,6.4-2.7c2.4,0,4.6,0.9,6.3,2.6l5.2-5.2c-3.1-3.1-7.1-4.7-11.5-4.7
			C188.5,202.2,185.7,203,183.2,204.5L183.2,204.5z"/>
		<path id="path71" inkscape:connector-curvature="0" fill="#44B6FB" d="M187.1,191.8c-2.2,0.3-4.2,0.9-6.3,1.8
			c-3.1,1.3-5.9,3.1-8.3,5.5c-0.1,0.1-0.2,0.2-0.4,0.4l5.2,5.2c1.7-1.7,3.7-3.1,5.8-4c2.6-1.2,5.4-1.8,8.3-1.8c5.3,0,10.2,2,14,5.8
			l5.1-5.2c-5.1-5.1-11.9-7.9-19.1-7.9C190,191.4,188.5,191.5,187.1,191.8L187.1,191.8L187.1,191.8z"/>
		<path id="path73" inkscape:connector-curvature="0" fill="#44B6FB" d="M195.4,216.9c0,2.2-1.8,3.9-3.9,3.9c-2.2,0-3.9-1.8-3.9-3.9
			s1.8-3.9,3.9-3.9C193.6,212.9,195.4,214.7,195.4,216.9L195.4,216.9z"/>
	</g>
</g>
</svg>
