<?xml version="1.0" encoding="utf-8"?>
<!-- Generator: Adobe Illustrator 17.1.0, SVG Export Plug-In . SVG Version: 6.00 Build 0)  -->
<!DOCTYPE svg PUBLIC "-//W3C//DTD SVG 1.1//EN" "http://www.w3.org/Graphics/SVG/1.1/DTD/svg11.dtd">
<svg version="1.1"
	 id="svg4206" inkscape:version="0.48.4 r9939" sodipodi:docname="New document 34" xmlns:dc="http://purl.org/dc/elements/1.1/" xmlns:cc="http://creativecommons.org/ns#" xmlns:rdf="http://www.w3.org/1999/02/22-rdf-syntax-ns#" xmlns:svg="http://www.w3.org/2000/svg" xmlns:sodipodi="http://sodipodi.sourceforge.net/DTD/sodipodi-0.dtd" xmlns:inkscape="http://www.inkscape.org/namespaces/inkscape"
	 xmlns="http://www.w3.org/2000/svg" xmlns:xlink="http://www.w3.org/1999/xlink" x="0px" y="0px" viewBox="0 0 64 64"
	 enable-background="new 0 0 64 64" xml:space="preserve">
<sodipodi:namedview  id="base" inkscape:window-maximized="1" inkscape:window-y="27" inkscape:document-units="px" inkscape:pageshadow="2" inkscape:pageopacity="0.0" inkscape:window-x="0" inkscape:window-height="1018" inkscape:current-layer="layer1" inkscape:grid-bbox="true" inkscape:window-width="1920" showgrid="true" inkscape:cy="32" inkscape:cx="32" inkscape:zoom="5.5" borderopacity="1.0" bordercolor="#666666" pagecolor="#ffffff">
	</sodipodi:namedview>
<g id="layer1" inkscape:groupmode="layer" inkscape:label="Layer 1">
	<g id="g236" transform="matrix(0.98318885,0,0,0.98318885,-230.26864,-139.90762)">
		<path id="path238" inkscape:connector-curvature="0" fill="#44B6FB" d="M282.4,166.1l-10.1,14.9c0,0.2,0.1,0.4,0.1,0.6
			c0,3-2.4,5.4-5.4,5.4c-3,0-5.4-2.4-5.4-5.4s2.4-5.4,5.4-5.4c0.2,0,0.4,0,0.5,0.1L282.4,166.1L282.4,166.1z M266.9,149
			c-17.9,0-32.5,14.6-32.5,32.5c0,6.8,2.2,13.6,6.2,19.2l4.4-3.2c-2.8-3.9-4.5-8.5-5-13.3h2.5v-5.4H240c0.5-5.4,2.7-10.4,6-14.4
			l1.7,1.7l3.8-3.8l-1.7-1.7c4-3.3,9-5.4,14.4-6v2.6h5.4v-2.6c5.4,0.5,10.4,2.7,14.4,6l-1.7,1.7l3.8,3.8l1.7-1.7c3.3,4,5.4,9,6,14.4
			h-2.6v5.4h2.5c-0.5,4.8-2.2,9.4-5,13.3l4.4,3.2c4-5.5,6.2-12.3,6.2-19.2C299.4,163.6,284.8,149,266.9,149L266.9,149L266.9,149z"/>
	</g>
</g>
</svg>
