<?xml version="1.0" encoding="utf-8"?>
<!-- Generator: Adobe Illustrator 17.1.0, SVG Export Plug-In . SVG Version: 6.00 Build 0)  -->
<!DOCTYPE svg PUBLIC "-//W3C//DTD SVG 1.1//EN" "http://www.w3.org/Graphics/SVG/1.1/DTD/svg11.dtd">
<svg version="1.1"
	 id="svg3497" inkscape:version="0.48.4 r9939" sodipodi:docname="New document 5" xmlns:dc="http://purl.org/dc/elements/1.1/" xmlns:cc="http://creativecommons.org/ns#" xmlns:rdf="http://www.w3.org/1999/02/22-rdf-syntax-ns#" xmlns:svg="http://www.w3.org/2000/svg" xmlns:sodipodi="http://sodipodi.sourceforge.net/DTD/sodipodi-0.dtd" xmlns:inkscape="http://www.inkscape.org/namespaces/inkscape"
	 xmlns="http://www.w3.org/2000/svg" xmlns:xlink="http://www.w3.org/1999/xlink" x="0px" y="0px" viewBox="0 0 64 64"
	 enable-background="new 0 0 64 64" xml:space="preserve">
<sodipodi:namedview  id="base" inkscape:window-maximized="1" inkscape:window-y="27" inkscape:document-units="px" inkscape:pageshadow="2" inkscape:pageopacity="0.0" inkscape:window-x="0" inkscape:window-height="1018" inkscape:current-layer="layer1" inkscape:grid-bbox="true" inkscape:window-width="1920" showgrid="true" inkscape:cy="32" inkscape:cx="32" inkscape:zoom="5.5" borderopacity="1.0" bordercolor="#666666" pagecolor="#ffffff">
	</sodipodi:namedview>
<g id="layer1" inkscape:groupmode="layer" inkscape:label="Layer 1">
	<g id="g6" transform="matrix(0.93853702,0,0,0.93853702,-24.390249,-42.953602)">
		<g id="g8">
			<path id="path10" inkscape:connector-curvature="0" fill="#44B6FB" d="M39.4,49.7L27.8,61.4h11.6V49.7z"/>
			<path id="path12" inkscape:connector-curvature="0" fill="#44B6FB" d="M55.5,87.9c0-11,8.9-19.9,19.9-19.9c1.1,0,2.1,0.1,3.1,0.2
				v-20H42.2v16.1H26.2v47.5h52.4v-4.1c-1,0.2-2,0.2-3.1,0.2C64.5,107.8,55.5,98.8,55.5,87.9C55.5,87.9,55.5,87.9,55.5,87.9z"/>
		</g>
		<g id="g14">
			<path id="path16" inkscape:connector-curvature="0" fill="#44B6FB" d="M94.2,87.9c0,9.5-7.7,17.2-17.2,17.2
				c-9.5,0-17.2-7.7-17.2-17.2c0-9.5,7.7-17.2,17.2-17.2S94.2,78.4,94.2,87.9L94.2,87.9z M89.9,87.9C89.9,80.8,84.1,75,77,75
				s-12.9,5.8-12.9,12.9c0,7.1,5.8,12.9,12.9,12.9S89.9,95,89.9,87.9L89.9,87.9z M83.5,87.9H77v-6.4c0-1.2-1-2.1-2.1-2.1
				c-1.2,0-2.1,1-2.1,2.1v8.6c0,1.2,1,2.1,2.1,2.1h8.6c1.2,0,2.1-1,2.1-2.1C85.6,88.9,84.6,87.9,83.5,87.9L83.5,87.9z"/>
		</g>
	</g>
</g>
</svg>
