<?xml version="1.0" encoding="utf-8"?>
<!-- Generator: Adobe Illustrator 17.1.0, SVG Export Plug-In . SVG Version: 6.00 Build 0)  -->
<!DOCTYPE svg PUBLIC "-//W3C//DTD SVG 1.1//EN" "http://www.w3.org/Graphics/SVG/1.1/DTD/svg11.dtd">
<svg version="1.1"
	 id="svg4321" inkscape:version="0.48.4 r9939" sodipodi:docname="New document 40" xmlns:dc="http://purl.org/dc/elements/1.1/" xmlns:cc="http://creativecommons.org/ns#" xmlns:rdf="http://www.w3.org/1999/02/22-rdf-syntax-ns#" xmlns:svg="http://www.w3.org/2000/svg" xmlns:sodipodi="http://sodipodi.sourceforge.net/DTD/sodipodi-0.dtd" xmlns:inkscape="http://www.inkscape.org/namespaces/inkscape"
	 xmlns="http://www.w3.org/2000/svg" xmlns:xlink="http://www.w3.org/1999/xlink" x="0px" y="0px" viewBox="0 0 64 64"
	 enable-background="new 0 0 64 64" xml:space="preserve">
<sodipodi:namedview  id="base" inkscape:window-maximized="1" inkscape:window-y="27" inkscape:document-units="px" inkscape:pageshadow="2" inkscape:pageopacity="0.0" inkscape:window-x="0" inkscape:window-height="1018" inkscape:current-layer="layer1" inkscape:grid-bbox="true" inkscape:window-width="1920" showgrid="true" inkscape:cy="32" inkscape:cx="32" inkscape:zoom="5.5" borderopacity="1.0" bordercolor="#666666" pagecolor="#ffffff">
	</sodipodi:namedview>
<g id="layer1" inkscape:groupmode="layer" inkscape:label="Layer 1">
	<g id="g256" transform="matrix(1.1371498,0,0,1.1371498,-487.85201,-167.00065)">
		<g id="g258">
			<path id="path260" inkscape:connector-curvature="0" fill="#44B6FB" d="M468.7,154.3l-5.9-5.9h7.9l6.9,6.1v-6.1h3.9v15.8h-3.9
				v-6.1l-6.9,6.1h-7.9l5.9-5.9h-19c-0.9,3.4-4,5.9-7.6,5.9c-4.4,0-7.9-3.5-7.9-7.9c0-4.4,3.5-7.9,7.9-7.9c3.7,0,6.8,2.5,7.6,5.9
				H468.7z M472.6,191.2c-2.9,0-5.2,2.3-5.2,5.2c0,2.9,2.3,5.2,5.2,5.2s5.2-2.3,5.2-5.2C477.8,193.6,475.5,191.2,472.6,191.2
				L472.6,191.2z M472.6,198.7c-1.2,0-2.2-1-2.2-2.3c0-1.2,1-2.2,2.2-2.2c1.2,0,2.3,1,2.3,2.2C474.9,197.7,473.9,198.7,472.6,198.7
				L472.6,198.7z M442.3,191.2c-2.9,0-5.2,2.3-5.2,5.2c0,2.9,2.3,5.2,5.2,5.2c2.9,0,5.2-2.3,5.2-5.2
				C447.5,193.6,445.1,191.2,442.3,191.2L442.3,191.2z M442.3,198.7c-1.2,0-2.3-1-2.3-2.3c0-1.2,1-2.2,2.3-2.2c1.2,0,2.2,1,2.2,2.2
				C444.5,197.7,443.5,198.7,442.3,198.7L442.3,198.7z M432.4,170.3c-1.7,0-3.1,1.4-3.1,3.1v19.9c0,1.7,1.4,3.1,3.1,3.1h3.8
				c0-3.4,2.7-6.1,6.1-6.1c3.4,0,6.1,2.7,6.1,6.1h18.2c0-3.4,2.7-6.1,6.1-6.1c3.4,0,6.1,2.7,6.1,6.1h3.2c1.7,0,3.1-1.4,3.1-3.1v-7.1
				c0-1.7-0.3-4.5-0.6-6.1l-1.9-6.8c-0.3-1.7-2-3-3.7-3L432.4,170.3L432.4,170.3L432.4,170.3z M472.1,183.3v-11.2h6.1
				c1.3,0,2.5,1,2.7,2.3l1.7,6.6c0.2,1.1-0.4,2-1.3,2.2l-1.4-3.4c-0.2-0.5-0.7-0.7-1.2-0.5c-0.5,0.2-0.7,0.7-0.5,1.2l1.1,2.7
				L472.1,183.3L472.1,183.3L472.1,183.3z M458.4,172.2h11.9v11.2h-11.9V172.2z M444.6,172.2h11.9v11.2h-11.9V172.2z M431.2,174.5
				c0-1.3,1-2.3,2.3-2.3h9.3v11.2h-9.3c-1.3,0-2.3-1-2.3-2.3V174.5z"/>
		</g>
	</g>
</g>
</svg>
