<?xml version="1.0" encoding="utf-8"?>
<!-- Generator: Adobe Illustrator 17.1.0, SVG Export Plug-In . SVG Version: 6.00 Build 0)  -->
<!DOCTYPE svg PUBLIC "-//W3C//DTD SVG 1.1//EN" "http://www.w3.org/Graphics/SVG/1.1/DTD/svg11.dtd">
<svg version="1.1"
	 id="svg4260" inkscape:version="0.48.4 r9939" sodipodi:docname="New document 37" xmlns:dc="http://purl.org/dc/elements/1.1/" xmlns:cc="http://creativecommons.org/ns#" xmlns:rdf="http://www.w3.org/1999/02/22-rdf-syntax-ns#" xmlns:svg="http://www.w3.org/2000/svg" xmlns:sodipodi="http://sodipodi.sourceforge.net/DTD/sodipodi-0.dtd" xmlns:inkscape="http://www.inkscape.org/namespaces/inkscape"
	 xmlns="http://www.w3.org/2000/svg" xmlns:xlink="http://www.w3.org/1999/xlink" x="0px" y="0px" viewBox="0 0 64 64"
	 enable-background="new 0 0 64 64" xml:space="preserve">
<sodipodi:namedview  id="base" inkscape:window-maximized="1" inkscape:window-y="27" inkscape:document-units="px" inkscape:pageshadow="2" inkscape:pageopacity="0.0" inkscape:window-x="0" inkscape:window-height="1018" inkscape:current-layer="layer1" inkscape:grid-bbox="true" inkscape:window-width="1920" showgrid="true" inkscape:cy="32" inkscape:cx="32" inkscape:zoom="5.5" borderopacity="1.0" bordercolor="#666666" pagecolor="#ffffff">
	</sodipodi:namedview>
<g id="layer1" inkscape:groupmode="layer" inkscape:label="Layer 1">
	<g id="g240" transform="matrix(1.1588163,0,0,1.1588163,-389.51247,-168.68265)">
		<path id="path242" inkscape:connector-curvature="0" fill="#44B6FB" d="M344.9,168.2h-6.1c-1.4,0-2.5,1.1-2.5,2.5v27.5
			c0,1.4,1.1,2.5,2.5,2.5h6.1c1.4,0,2.5-1.1,2.5-2.5v-27.5C347.4,169.3,346.3,168.2,344.9,168.2L344.9,168.2z"/>
		<path id="path244" inkscape:connector-curvature="0" fill="#44B6FB" d="M359.5,175.7h-6.1c-1.4,0-2.5,1.1-2.5,2.5v20
			c0,1.4,1.1,2.5,2.5,2.5h6.1c1.4,0,2.5-1.1,2.5-2.5v-20C362,176.8,360.9,175.7,359.5,175.7L359.5,175.7z"/>
		<path id="path246" inkscape:connector-curvature="0" fill="#44B6FB" d="M374.1,175.7H368c-1.4,0-2.5,1.1-2.5,2.5v20
			c0,1.4,1.1,2.5,2.5,2.5h6.1c1.4,0,2.5-1.1,2.5-2.5v-20C376.6,176.8,375.5,175.7,374.1,175.7L374.1,175.7z"/>
		<path id="path248" inkscape:connector-curvature="0" fill="#44B6FB" d="M388.7,168.2h-6.1c-1.4,0-2.5,1.1-2.5,2.5v27.5
			c0,1.4,1.1,2.5,2.5,2.5h6.1c1.4,0,2.5-1.1,2.5-2.5v-27.5C391.2,169.3,390.1,168.2,388.7,168.2L388.7,168.2z"/>
		<path id="path250" inkscape:connector-curvature="0" fill="#44B6FB" d="M364.5,160.8v4.5c1.4-0.1,2.8-0.7,2.8-2.2
			C367.3,161.5,365.7,161,364.5,160.8L364.5,160.8z"/>
		<path id="path252" inkscape:connector-curvature="0" fill="#44B6FB" d="M360.6,155.4c0,1.1,0.8,1.8,2.6,2.1v-4.1
			C361.6,153.5,360.6,154.4,360.6,155.4L360.6,155.4z"/>
		<path id="path254" inkscape:connector-curvature="0" fill="#44B6FB" d="M363.7,145.7c-7.6,0-13.7,6.2-13.7,13.7
			c0,7.6,6.2,13.7,13.7,13.7c7.6,0,13.7-6.2,13.7-13.7C377.5,151.9,371.3,145.7,363.7,145.7L363.7,145.7z M364.5,167.6v1.4
			c0,0.4-0.3,0.8-0.7,0.8c-0.4,0-0.7-0.4-0.7-0.8v-1.4c-3.8-0.1-5.7-2.4-5.7-4.2c0-0.9,0.5-1.4,1.4-1.4c2.5,0,0.6,3.1,4.3,3.3v-4.7
			c-3.4-0.6-5.4-2.1-5.4-4.6c0-3.1,2.6-4.7,5.4-4.8v-1.2c0-0.4,0.3-0.8,0.7-0.8c0.4,0,0.7,0.4,0.7,0.8v1.2c1.8,0,5.4,1.2,5.4,3.4
			c0,0.9-0.7,1.4-1.4,1.4c-1.5,0-1.5-2.4-4-2.5v4.3c3,0.6,5.7,1.5,5.7,5C370.1,165.8,367.9,167.4,364.5,167.6L364.5,167.6
			L364.5,167.6z"/>
	</g>
</g>
</svg>
