<?xml version="1.0" encoding="utf-8"?>
<!-- Generator: Adobe Illustrator 17.1.0, SVG Export Plug-In . SVG Version: 6.00 Build 0)  -->
<!DOCTYPE svg PUBLIC "-//W3C//DTD SVG 1.1//EN" "http://www.w3.org/Graphics/SVG/1.1/DTD/svg11.dtd">
<svg version="1.1"
	 id="svg3864" inkscape:version="0.48.4 r9939" sodipodi:docname="New document 17" xmlns:dc="http://purl.org/dc/elements/1.1/" xmlns:cc="http://creativecommons.org/ns#" xmlns:rdf="http://www.w3.org/1999/02/22-rdf-syntax-ns#" xmlns:svg="http://www.w3.org/2000/svg" xmlns:sodipodi="http://sodipodi.sourceforge.net/DTD/sodipodi-0.dtd" xmlns:inkscape="http://www.inkscape.org/namespaces/inkscape"
	 xmlns="http://www.w3.org/2000/svg" xmlns:xlink="http://www.w3.org/1999/xlink" x="0px" y="0px" viewBox="0 0 64 64"
	 enable-background="new 0 0 64 64" xml:space="preserve">
<sodipodi:namedview  id="base" inkscape:window-maximized="1" inkscape:window-y="27" inkscape:document-units="px" inkscape:pageshadow="2" inkscape:pageopacity="0.0" inkscape:window-x="0" inkscape:window-height="1018" inkscape:current-layer="layer1" inkscape:grid-bbox="true" inkscape:window-width="1920" showgrid="true" inkscape:cy="32" inkscape:cx="32" inkscape:zoom="5.5" borderopacity="1.0" bordercolor="#666666" pagecolor="#ffffff">
	</sodipodi:namedview>
<g id="layer1" inkscape:groupmode="layer" inkscape:label="Layer 1">
	<g id="g85" transform="matrix(0.98485429,0,0,0.98485429,-326.68083,-48.064904)">
		<rect id="rect87" x="353.1" y="70.4" fill="#44B6FB" width="8.6" height="8.6"/>
		<rect id="rect89" x="366.8" y="70.4" fill="#44B6FB" width="8.6" height="8.6"/>
		<rect id="rect91" x="380.4" y="70.4" fill="#44B6FB" width="8.6" height="8.6"/>
		<rect id="rect93" x="339.5" y="83.3" fill="#44B6FB" width="8.6" height="8.6"/>
		<rect id="rect95" x="353.1" y="83.3" fill="#44B6FB" width="8.6" height="8.6"/>
		<rect id="rect97" x="366.8" y="83.3" fill="#44B6FB" width="8.6" height="8.6"/>
		<rect id="rect99" x="380.4" y="83.3" fill="#44B6FB" width="8.6" height="8.6"/>
		<rect id="rect101" x="339.5" y="96.2" fill="#44B6FB" width="8.6" height="8.6"/>
		<rect id="rect103" x="353.1" y="96.2" fill="#44B6FB" width="8.6" height="8.6"/>
		<g id="g105">
			<rect id="rect107" x="366.8" y="96.2" fill="#44B6FB" width="8.6" height="8.6"/>
			<path id="path109" inkscape:connector-curvature="0" fill="#44B6FB" d="M392.2,51.4h-56c-2.4,0-4.3,1.9-4.3,4.3v10.2h64.6V55.7
				C396.6,53.3,394.6,51.4,392.2,51.4L392.2,51.4z M348.3,62.5c-1.8,0-3.2-1.4-3.2-3.2c0-1.8,1.4-3.2,3.2-3.2c1.8,0,3.2,1.4,3.2,3.2
				C351.5,61.1,350,62.5,348.3,62.5L348.3,62.5z M380.3,62.5c-1.8,0-3.2-1.4-3.2-3.2c0-1.8,1.4-3.2,3.2-3.2c1.8,0,3.2,1.4,3.2,3.2
				C383.5,61.1,382,62.5,380.3,62.5L380.3,62.5z"/>
		</g>
		<path id="path111" inkscape:connector-curvature="0" fill="#44B6FB" d="M393.7,107.1c0,0.8-0.6,1.4-1.4,1.4h-56
			c-0.8,0-1.4-0.6-1.4-1.4V70H332v37c0,2.4,1.9,4.3,4.3,4.3h56c2.4,0,4.3-1.9,4.3-4.3V70h-2.9L393.7,107.1L393.7,107.1L393.7,107.1z
			"/>
	</g>
</g>
</svg>
