<?xml version="1.0" encoding="utf-8"?>
<!-- Generator: Adobe Illustrator 17.1.0, SVG Export Plug-In . SVG Version: 6.00 Build 0)  -->
<!DOCTYPE svg PUBLIC "-//W3C//DTD SVG 1.1//EN" "http://www.w3.org/Graphics/SVG/1.1/DTD/svg11.dtd">
<svg version="1.1"
	 id="svg3796" inkscape:version="0.48.4 r9939" sodipodi:docname="New document 14" xmlns:dc="http://purl.org/dc/elements/1.1/" xmlns:cc="http://creativecommons.org/ns#" xmlns:rdf="http://www.w3.org/1999/02/22-rdf-syntax-ns#" xmlns:svg="http://www.w3.org/2000/svg" xmlns:sodipodi="http://sodipodi.sourceforge.net/DTD/sodipodi-0.dtd" xmlns:inkscape="http://www.inkscape.org/namespaces/inkscape"
	 xmlns="http://www.w3.org/2000/svg" xmlns:xlink="http://www.w3.org/1999/xlink" x="0px" y="0px" viewBox="0 0 64 64"
	 enable-background="new 0 0 64 64" xml:space="preserve">
<sodipodi:namedview  id="base" inkscape:window-maximized="1" inkscape:window-y="27" inkscape:document-units="px" inkscape:pageshadow="2" inkscape:pageopacity="0.0" inkscape:window-x="0" inkscape:window-height="1018" inkscape:current-layer="layer1" inkscape:grid-bbox="true" inkscape:window-width="1920" showgrid="true" inkscape:cy="32" inkscape:cx="32" inkscape:zoom="5.5" borderopacity="1.0" bordercolor="#666666" pagecolor="#ffffff">
	</sodipodi:namedview>
<g id="layer1" inkscape:groupmode="layer" inkscape:label="Layer 1">
	<g id="g134" transform="matrix(0.97222114,0,0,0.97222114,-228.14986,-45.625525)">
		<path id="path136" inkscape:connector-curvature="0" fill="#44B6FB" d="M248.2,49.5l-11.7,11.8h11.7V49.5z"/>
		<path id="path138" inkscape:connector-curvature="0" fill="#44B6FB" d="M264.3,87.8c0-11,9-20,20-20c1.1,0,2.1,0.1,3.1,0.2V48H251
			v16.1h-16.1v47.6h52.5v-4.2c-1,0.2-2,0.2-3.1,0.2C273.3,107.8,264.3,98.9,264.3,87.8L264.3,87.8z"/>
		<path id="path140" inkscape:connector-curvature="0" fill="#44B6FB" d="M280.3,83.3c0,0.5,0.2,0.9,0.6,1.2s1,0.5,1.9,0.7v-3.7
			c-0.9,0.1-1.6,0.3-1.9,0.6C280.5,82.5,280.3,82.9,280.3,83.3L280.3,83.3L280.3,83.3z"/>
		<path id="path142" inkscape:connector-curvature="0" fill="#44B6FB" d="M287.6,90.1c-0.4-0.3-1-0.5-1.8-0.6v3.6
			c1.6-0.2,2.4-0.8,2.4-1.8C288.2,90.8,288,90.4,287.6,90.1L287.6,90.1z"/>
		<path id="path144" inkscape:connector-curvature="0" fill="#44B6FB" d="M284.3,71.8c-8.9,0-16,7.2-16,16c0,8.9,7.2,16,16,16
			c8.9,0,16-7.2,16-16C300.3,79,293.1,71.8,284.3,71.8L284.3,71.8z M290.7,95.1c-1.1,0.9-2.8,1.5-4.9,1.7v2h-3v-1.9
			c-1.3,0-2.4-0.2-3.5-0.3c-1.1-0.2-2-0.4-2.8-0.8V92c0.5,0.2,1,0.3,1.5,0.5c0.5,0.1,1,0.2,1.5,0.3c0.5,0.1,1,0.2,1.6,0.2
			c0.5,0.1,1.2,0.1,1.8,0.1V89c-0.8-0.1-1.6-0.3-2.4-0.5c-0.8-0.2-1.5-0.5-2.1-0.9c-0.6-0.4-1.1-0.9-1.5-1.6
			c-0.4-0.7-0.6-1.5-0.6-2.5c0-0.8,0.2-1.6,0.5-2.3c0.3-0.7,0.7-1.2,1.3-1.7c0.6-0.5,1.3-0.9,2.1-1.2c0.8-0.3,1.8-0.5,2.8-0.6v-2
			h3.1v1.9c0.9,0.1,1.9,0.2,2.8,0.3s1.9,0.4,2.7,0.7v3.8c-2-0.6-3.8-1-5.5-1.1v4.3c0.8,0.1,1.6,0.3,2.4,0.5c0.8,0.2,1.5,0.5,2.1,0.9
			c0.6,0.4,1.1,0.9,1.5,1.6s0.6,1.5,0.6,2.5C292.4,92.9,291.9,94.1,290.7,95.1L290.7,95.1L290.7,95.1z"/>
	</g>
</g>
</svg>
