<?xml version="1.0" encoding="utf-8"?>
<!-- Generator: Adobe Illustrator 17.1.0, SVG Export Plug-In . SVG Version: 6.00 Build 0)  -->
<!DOCTYPE svg PUBLIC "-//W3C//DTD SVG 1.1//EN" "http://www.w3.org/Graphics/SVG/1.1/DTD/svg11.dtd">
<svg version="1.1"
	 id="svg3936" inkscape:version="0.48.4 r9939" sodipodi:docname="New document 20" xmlns:dc="http://purl.org/dc/elements/1.1/" xmlns:cc="http://creativecommons.org/ns#" xmlns:rdf="http://www.w3.org/1999/02/22-rdf-syntax-ns#" xmlns:svg="http://www.w3.org/2000/svg" xmlns:sodipodi="http://sodipodi.sourceforge.net/DTD/sodipodi-0.dtd" xmlns:inkscape="http://www.inkscape.org/namespaces/inkscape"
	 xmlns="http://www.w3.org/2000/svg" xmlns:xlink="http://www.w3.org/1999/xlink" x="0px" y="0px" viewBox="0 0 64 64"
	 enable-background="new 0 0 64 64" xml:space="preserve">
<sodipodi:namedview  id="base" inkscape:window-maximized="1" inkscape:window-y="27" inkscape:document-units="px" inkscape:pageshadow="2" inkscape:pageopacity="0.0" inkscape:window-x="0" inkscape:window-height="1018" inkscape:current-layer="layer1" inkscape:grid-bbox="true" inkscape:window-width="1920" showgrid="true" inkscape:cy="32" inkscape:cx="32" inkscape:zoom="5.5" borderopacity="1.0" bordercolor="#666666" pagecolor="#ffffff">
	</sodipodi:namedview>
<g id="layer1" inkscape:groupmode="layer" inkscape:label="Layer 1">
	<g id="g119" transform="matrix(1.0481375,0,0,1.0481375,-453.4145,-52.812663)">
		<path id="path121" inkscape:connector-curvature="0" fill="#44B6FB" d="M472.8,89.4c-0.5-0.4-0.6-1.2-0.2-1.8
			c2.1-2.5,3.2-5.8,3.2-9.3c0-3.9-1.5-7.4-3.8-10l-7.5,10.3c-0.1,2-1.7,3.5-3.7,3.5c-2.1,0-3.8-1.7-3.8-3.8c0-2,1.6-3.6,3.5-3.8
			l10.3-7.5c-2.7-2.4-6.2-3.8-10-3.8c-8.3,0-15.1,6.8-15.1,15.1c0,3.4,1.2,6.7,3.2,9.3c0.4,0.5,0.4,1.3-0.2,1.8
			c-0.2,0.2-0.5,0.3-0.8,0.3c-0.4,0-0.7-0.1-1-0.5c-2.5-3-3.8-6.9-3.8-10.9c0-9.7,7.9-17.6,17.6-17.6c4.7,0,8.9,1.9,12.1,4.9
			l2.5-1.8l-1.8,2.5c3,3.2,4.8,7.4,4.8,12.1c0,4-1.4,7.9-3.8,10.9C474.2,89.8,473.4,89.9,472.8,89.4L472.8,89.4L472.8,89.4z
			 M469.6,99c-2.5,1.3-5.5,2-8.8,2c-12.6,0-22.7-10.1-22.7-22.7c0-12.6,10.1-22.7,22.7-22.7c11.3,0,20.9,8.6,22.4,19.4l0.2-0.3
			l3,3.8c0.5,0.5,1,1.3,2,2.5c0-1,0.2-1.8,0.2-2.8c0-15.4-12.3-27.7-27.7-27.7c-15.4,0-27.9,12.3-27.9,27.7
			c0,15.4,12.3,27.7,27.7,27.7c3.3,0,6.3-0.5,9.3-1.8c-0.3-1-0.5-2.3-0.5-3.8V99z M483.4,80.9c0,0-10.1,12.8-10.1,19.6
			c0,5.8,4.5,10.6,10.1,10.6c5.5,0,10.1-4.8,10.1-10.6C493.5,93.8,483.4,80.9,483.4,80.9L483.4,80.9z"/>
	</g>
</g>
</svg>
