<?xml version="1.0" encoding="UTF-8" standalone="no"?>
<!DOCTYPE svg PUBLIC "-//W3C//DTD SVG 1.1//EN" "http://www.w3.org/Graphics/SVG/1.1/DTD/svg11.dtd">
<svg version="1.1" xmlns="http://www.w3.org/2000/svg" xmlns:xlink="http://www.w3.org/1999/xlink" preserveAspectRatio="xMidYMid meet" viewBox="0 0 64 64" width="64" height="64"><defs><path d="M0 40.43C0 42.19 0 56.33 0 58.1C0 61.35 2.58 64 5.75 64C7.47 64 21.25 64 22.97 64C26.14 64 28.72 61.35 28.72 58.1C28.72 56.33 28.72 42.19 28.72 40.43C28.72 37.18 26.14 34.53 22.97 34.53C19.52 34.53 7.47 34.53 5.75 34.53C2.58 34.53 0 37.18 0 40.43Z" id="apP61yyJG"></path><path d="M35.28 40.43C35.28 42.19 35.28 56.33 35.28 58.1C35.28 61.35 37.86 64 41.03 64C42.75 64 56.53 64 58.25 64C61.42 64 64 61.35 64 58.1C64 56.33 64 42.19 64 40.43C64 37.18 61.42 34.53 58.25 34.53C54.81 34.53 42.75 34.53 41.03 34.53C37.86 34.53 35.28 37.18 35.28 40.43Z" id="c6bLYqPDLn"></path><path d="M64 23.54C64 21.77 64 7.63 64 5.87C64 2.61 61.42 -0.03 58.25 -0.03C56.53 -0.03 42.75 -0.03 41.03 -0.03C37.86 -0.03 35.28 2.61 35.28 5.87C35.28 7.63 35.28 21.77 35.28 23.54C35.28 26.8 37.86 29.44 41.03 29.44C44.47 29.44 56.53 29.44 58.25 29.44C61.42 29.44 64 26.8 64 23.54Z" id="h3bSfOn9h8"></path><path d="M0 5.9C0 7.67 0 21.8 0 23.57C0 26.82 2.58 29.47 5.75 29.47C7.47 29.47 21.25 29.47 22.97 29.47C26.14 29.47 28.72 26.82 28.72 23.57C28.72 21.8 28.72 7.67 28.72 5.9C28.72 2.65 26.14 0 22.97 0C19.52 0 7.47 0 5.75 0C2.58 0 0 2.65 0 5.9Z" id="a7lbqZoIr"></path></defs><g><g><g><use xlink:href="#apP61yyJG" opacity="1" fill="#1d1d1b" fill-opacity="1"></use><g><use xlink:href="#apP61yyJG" opacity="1" fill-opacity="0" stroke="#000000" stroke-width="1" stroke-opacity="0"></use></g></g><g><use xlink:href="#c6bLYqPDLn" opacity="1" fill="#1d1d1b" fill-opacity="1"></use><g><use xlink:href="#c6bLYqPDLn" opacity="1" fill-opacity="0" stroke="#000000" stroke-width="1" stroke-opacity="0"></use></g></g><g><use xlink:href="#h3bSfOn9h8" opacity="1" fill="#1d1d1b" fill-opacity="1"></use><g><use xlink:href="#h3bSfOn9h8" opacity="1" fill-opacity="0" stroke="#000000" stroke-width="1" stroke-opacity="0"></use></g></g><g><use xlink:href="#a7lbqZoIr" opacity="1" fill="#1d1d1b" fill-opacity="1"></use><g><use xlink:href="#a7lbqZoIr" opacity="1" fill-opacity="0" stroke="#000000" stroke-width="1" stroke-opacity="0"></use></g></g></g></g></svg>