<svg xmlns="http://www.w3.org/2000/svg" width="17" height="16" viewBox="0 0 17 16">
    <g fill="#94ABD1" fill-rule="nonzero">
        <path d="M9.662 14.608a6.65 6.65 0 0 1-.402.087.647.647 0 0 0 .235 1.27c.16-.029.321-.064.48-.103a.646.646 0 1 0-.313-1.254zM14.441 5.945a.644.644 0 0 0 .817.41.646.646 0 0 0 .41-.816 8.029 8.029 0 0 0-.168-.46.646.646 0 1 0-1.2.48c.05.127.098.257.141.386zM11.762 13.685a6.768 6.768 0 0 1-.35.216.646.646 0 0 0 .646 1.12c.14-.081.28-.168.416-.257a.646.646 0 0 0-.712-1.079zM16.07 7.75a.646.646 0 0 0-1.292.051c.006.137.007.275.004.411a.645.645 0 1 0 1.292.029 8.023 8.023 0 0 0-.004-.49zM14.336 11.985a.646.646 0 0 0-.905.13c-.082.109-.169.217-.257.32a.646.646 0 0 0 .984.838 8.03 8.03 0 0 0 .307-.383.646.646 0 0 0-.13-.905zM15.286 9.649a.646.646 0 0 0-.81.423c-.041.13-.087.261-.135.39a.647.647 0 0 0 1.207.46c.058-.153.112-.309.16-.463a.646.646 0 0 0-.422-.81zM6.842 14.7a6.673 6.673 0 0 1-1.657-.526l-.019-.01a7.058 7.058 0 0 1-.367-.186l-.002-.001a6.751 6.751 0 0 1-2.272-9.799 6.716 6.716 0 0 1 1.657-1.649l.024-.016a6.755 6.755 0 0 1 7.57-.06l-.504.729c-.14.203-.054.35.191.329l2.194-.197a.361.361 0 0 0 .327-.472L13.394.72C13.33.482 13.16.453 13.02.656l-.506.732A7.981 7.981 0 0 0 6.053.275H6.05l-.023.007a7.969 7.969 0 0 0-4.42 2.961l-.027.034a7.612 7.612 0 0 0-.28.403l-.017.031a7.968 7.968 0 0 0-1.274 4.7v.016c.008.162.02.327.038.488 0 .01.003.02.005.031a7.976 7.976 0 0 0 2.318 4.814l.008.009.003.002c.316.312.66.6 1.03.86a7.968 7.968 0 0 0 3.204 1.342.646.646 0 1 0 .228-1.272z"/>
        <path d="M7.641 2.84a.523.523 0 0 0-.523.523v5.21l4.765 2.463a.52.52 0 0 0 .704-.225.523.523 0 0 0-.224-.704l-4.2-2.17V3.362a.523.523 0 0 0-.522-.522z"/>
    </g>
</svg>
