<?xml version="1.0" encoding="UTF-8" standalone="no"?>
<!-- Created with Inkscape (http://www.inkscape.org/) -->

<svg
   xmlns:dc="http://purl.org/dc/elements/1.1/"
   xmlns:cc="http://creativecommons.org/ns#"
   xmlns:rdf="http://www.w3.org/1999/02/22-rdf-syntax-ns#"
   xmlns:svg="http://www.w3.org/2000/svg"
   xmlns="http://www.w3.org/2000/svg"
   xmlns:sodipodi="http://sodipodi.sourceforge.net/DTD/sodipodi-0.dtd"
   xmlns:inkscape="http://www.inkscape.org/namespaces/inkscape"
   width="64px"
   height="64px"
   id="svg3712"
   version="1.1"
   inkscape:version="0.48.4 r9939"
   sodipodi:docname="New document 11">
  <defs
     id="defs3714" />
  <sodipodi:namedview
     id="base"
     pagecolor="#ffffff"
     bordercolor="#666666"
     borderopacity="1.0"
     inkscape:pageopacity="0.0"
     inkscape:pageshadow="2"
     inkscape:zoom="5.5"
     inkscape:cx="32"
     inkscape:cy="32"
     inkscape:current-layer="layer1"
     showgrid="true"
     inkscape:document-units="px"
     inkscape:grid-bbox="true"
     inkscape:window-width="1920"
     inkscape:window-height="1018"
     inkscape:window-x="0"
     inkscape:window-y="27"
     inkscape:window-maximized="1" />
  <metadata
     id="metadata3717">
    <rdf:RDF>
      <cc:Work
         rdf:about="">
        <dc:format>image/svg+xml</dc:format>
        <dc:type
           rdf:resource="http://purl.org/dc/dcmitype/StillImage" />
        <dc:title></dc:title>
      </cc:Work>
    </rdf:RDF>
  </metadata>
  <g
     id="layer1"
     inkscape:label="Layer 1"
     inkscape:groupmode="layer">
    <g
       transform="matrix(0.97594122,0,0,0.97594122,-360.59285,-1346.9679)"
       id="g223">
      <g
         id="g225">
        <g
           id="g227">
          <path
             style="fill:#919fb8"
             inkscape:connector-curvature="0"
             id="path229"
             d="m 428.002,1388.29 h -4.949 v -3.377 c 0,-2.484 -2.018,-4.498 -4.498,-4.498 h -0.18 c -2.484,0 -4.498,2.014 -4.498,4.498 v 3.377 h -23.216 v -3.377 c 0,-2.484 -2.015,-4.498 -4.493,-4.498 h -0.186 c -2.48,0 -4.498,2.014 -4.498,4.498 v 3.377 h -4.943 c -2.485,0 -4.499,2.015 -4.499,4.5 v 48.221 c 0,2.484 2.014,4.498 4.499,4.498 h 51.461 c 2.479,0 4.498,-2.014 4.498,-4.498 v -48.221 c 0,-2.485 -2.015,-4.5 -4.498,-4.5 l 0,0 z m -3.06,50.112 H 379.6 v -36.527 h 45.343 l -10e-4,36.527 0,0 z" />
        </g>
        <path
           style="fill:#919fb8"
           inkscape:connector-curvature="0"
           id="path231"
           d="m 385.762,1418.405 h 7.828 c 0.396,0 0.719,-0.322 0.719,-0.72 v -7.826 c 0,-0.398 -0.322,-0.726 -0.719,-0.726 h -7.828 c -0.396,0 -0.719,0.323 -0.719,0.726 v 7.826 c 0,0.398 0.322,0.72 0.719,0.72 l 0,0 z" />
        <path
           style="fill:#919fb8"
           inkscape:connector-curvature="0"
           id="path233"
           d="m 398.357,1418.405 h 7.827 c 0.396,0 0.72,-0.322 0.72,-0.72 v -7.826 c 0,-0.398 -0.322,-0.726 -0.72,-0.726 h -7.827 c -0.396,0 -0.72,0.323 -0.72,0.726 v 7.826 c 10e-4,0.398 0.323,0.72 0.72,0.72 l 0,0 z" />
        <path
           style="fill:#919fb8"
           inkscape:connector-curvature="0"
           id="path235"
           d="m 410.949,1418.405 h 7.827 c 0.397,0 0.722,-0.322 0.722,-0.72 v -7.826 c 0,-0.398 -0.32,-0.726 -0.722,-0.726 h -7.827 c -0.396,0 -0.72,0.323 -0.72,0.726 v 7.826 c 0.004,0.398 0.328,0.72 0.72,0.72 l 0,0 z" />
        <path
           style="fill:#919fb8"
           inkscape:connector-curvature="0"
           id="path237"
           d="m 385.762,1431 h 7.828 c 0.396,0 0.719,-0.321 0.719,-0.72 v -7.825 c 0,-0.398 -0.322,-0.722 -0.719,-0.722 h -7.828 c -0.396,0 -0.719,0.319 -0.719,0.722 v 7.825 c 0,0.399 0.322,0.72 0.719,0.72 l 0,0 z" />
        <path
           style="fill:#919fb8"
           inkscape:connector-curvature="0"
           id="path239"
           d="m 398.357,1431 h 7.827 c 0.396,0 0.72,-0.321 0.72,-0.72 v -7.825 c 0,-0.398 -0.322,-0.722 -0.72,-0.722 h -7.827 c -0.396,0 -0.72,0.319 -0.72,0.722 v 7.825 c 10e-4,0.399 0.323,0.72 0.72,0.72 l 0,0 z" />
        <path
           style="fill:#919fb8"
           inkscape:connector-curvature="0"
           id="path241"
           d="m 410.949,1431 h 7.827 c 0.397,0 0.722,-0.321 0.722,-0.72 v -7.825 c 0,-0.398 -0.32,-0.722 -0.722,-0.722 h -7.827 c -0.396,0 -0.72,0.319 -0.72,0.722 v 7.825 c 0.004,0.399 0.328,0.72 0.72,0.72 l 0,0 z" />
      </g>
    </g>
  </g>
</svg>
