<?xml version="1.0" encoding="utf-8"?>
<!-- Generator: Adobe Illustrator 21.1.0, SVG Export Plug-In . SVG Version: 6.00 Build 0)  -->
<svg height="25px" version="1.1" id="Layer_1" xmlns="http://www.w3.org/2000/svg" xmlns:xlink="http://www.w3.org/1999/xlink" x="0px" y="0px"
	 viewBox="0 0 1662 255.1" style="enable-background:new 0 0 1662 255.1;" xml:space="preserve">
<style type="text/css">
	.st0{fill:#B8242B;}
	.st1{fill:#A2A3A6;}
	.st2{fill:#262424;}
</style>
<g>
	<g>
		<path class="st0" d="M246.7,210.4c0,27.7-62.1,42.1-123.3,42.1C62.1,252.5,0,238,0,210.4c0-22.9,39.9-33.6,63.7-37.9l2.8,15.4
			c-38.4,7-50.9,18.2-50.9,22.5c0,9.3,40.9,26.5,107.7,26.5c66.8,0,107.7-17.2,107.7-26.5c0-4.6-10.7-15.2-50.9-22.5l2.8-15.4
			C225.3,180.2,246.7,192.9,246.7,210.4L246.7,210.4z M123.4,219.7c0,0-62.5-97.8-62.5-152c0-34.4,28.1-62.5,62.5-62.5
			c34.4,0,62.5,28.1,62.5,62.5C185.8,120.8,123.4,219.7,123.4,219.7L123.4,219.7z M123.4,88.5c11.4,0,20.8-9.3,20.8-20.8
			c0-11.4-9.3-20.8-20.8-20.8c-11.5,0-20.8,9.4-20.8,20.8C102.5,79.2,111.9,88.5,123.4,88.5L123.4,88.5z M123.4,88.5"/>
	</g>
	<g>
		<g>
			<path class="st1" d="M314,199.3h9.1v54.5H314V199.3z"/>
			<path class="st1" d="M382.3,253.7h-9.2L346,215v38.7h-9.1v-54.5h9.2l27.1,38.7v-38.7h9V253.7z"/>
			<path class="st1" d="M441.4,253.7h-9.2L405.1,215v38.7H396v-54.5h9.2l27.1,38.7v-38.7h9V253.7z"/>
			<path class="st1" d="M479.8,254.4c-35.9,0-35.9-55.8,0-55.8C515.5,198.6,515.6,254.4,479.8,254.4z M479.8,207.4
				c-23.5,0-23.6,38.2,0,38.2C503.4,245.6,503.4,207.4,479.8,207.4z"/>
			<path class="st1" d="M555.8,199.3L534,255.1l-21.7-55.9h9.8l11.9,32.1l12-32.1H555.8z"/>
			<path class="st1" d="M588.5,247.4h-19.1l-2.3,6.3h-9.8l21.7-56l21.8,56h-9.8L588.5,247.4z M572.3,239.6h13.2l-6.6-18.9
				L572.3,239.6z"/>
			<path class="st1" d="M635.5,207.6h-11.4v46.1h-9v-46.1h-11.4v-8.3h31.9V207.6z"/>
			<path class="st1" d="M644.7,199.3h9.1v54.5h-9.1V199.3z"/>
			<path class="st1" d="M705,199.3l-21.8,55.9l-21.7-55.9h9.8l11.9,32.1l12-32.1H705z"/>
			<path class="st1" d="M721.7,208.4V222h22.6v9h-22.6v13.6h27.2v9.1h-36.3v-54.5h36.3v9.1H721.7z"/>
			<path class="st1" d="M815.2,207.6h-11.4v46.1h-9v-46.1h-11.4v-8.3h31.9V207.6z"/>
			<path class="st1" d="M840.5,231h-7.4v22.7H824v-54.5h18.1c0,0,18.2,0,18.2,15.9c0,8.8-5.6,12.7-10.5,14.5l11.1,24.1h-10
				L840.5,231z M833.1,222h9c0,0,9.1,0,9.1-6.8c0-6.8-9.1-6.8-9.1-6.8h-9V222z"/>
			<path class="st1" d="M897.2,247.4h-19.1l-2.3,6.3h-9.8l21.7-56l21.8,56h-9.8L897.2,247.4z M881,239.6h13.2l-6.6-18.9L881,239.6z"
				/>
			<path class="st1" d="M962.3,253.7h-9.2L926,215v38.7h-9.1v-54.5h9.2l27.1,38.7v-38.7h9V253.7z"/>
			<path class="st1" d="M974.1,238.6h9.1c0.2,4.5,3.9,6.8,7.9,6.8c4.2,0,7.9-2.7,7.9-6.9c0-4.6-4.3-7.5-7.9-7.6
				c-0.5,0-4.2,0-8.2-1.8c-5.7-2.6-8.9-7.5-8.9-13.9c0-10.4,8.2-16.7,17-16.7c9.4,0,16.7,6.4,16.8,15.6h-9c-0.2-4.5-3.7-6.5-7.8-6.5
				c-4.3,0-7.9,2.5-7.9,7.6c0,4.5,3.9,6.9,7.9,6.9c0.4,0,4.2,0,8.1,1.8c5.8,2.6,8.9,8.2,8.9,14.6c0,10.4-8.2,16-16.9,16
				C981.7,254.3,974.2,248.8,974.1,238.6z"/>
			<path class="st1" d="M1056,215.2c0,15.9-18.2,15.9-18.2,15.9h-9.1v22.7h-9.1v-54.6h18.2C1037.8,199.3,1056,199.3,1056,215.2z
				 M1046.9,215.2c0-6.8-9.1-6.8-9.1-6.8h-9.1v13.7h9.1C1037.8,222.1,1046.9,222.1,1046.9,215.2z"/>
			<path class="st1" d="M1090.8,254.4c-35.9,0-35.9-55.8,0-55.8C1126.5,198.6,1126.6,254.4,1090.8,254.4z M1090.8,207.4
				c-23.5,0-23.6,38.2,0,38.2C1114.4,245.6,1114.4,207.4,1090.8,207.4z"/>
			<path class="st1" d="M1145.9,231h-7.4v22.7h-9.1v-54.5h18.1c0,0,18.2,0,18.2,15.9c0,8.8-5.6,12.7-10.5,14.5l11.1,24.1h-10
				L1145.9,231z M1138.5,222h9c0,0,9.1,0,9.1-6.8c0-6.8-9.1-6.8-9.1-6.8h-9V222z"/>
			<path class="st1" d="M1204.7,207.6h-11.4v46.1h-9v-46.1h-11.4v-8.3h31.9V207.6z"/>
			<path class="st1" d="M1239.9,238.6h9.1c0.2,4.5,3.9,6.8,7.9,6.8c4.2,0,7.9-2.7,7.9-6.9c0-4.6-4.3-7.5-7.9-7.6
				c-0.5,0-4.2,0-8.2-1.8c-5.7-2.6-8.9-7.5-8.9-13.9c0-10.4,8.2-16.7,17-16.7c9.4,0,16.7,6.4,16.8,15.6h-9c-0.2-4.5-3.6-6.5-7.8-6.5
				c-4.3,0-7.9,2.5-7.9,7.6c0,4.5,3.9,6.9,7.9,6.9c0.4,0,4.2,0,8.1,1.8c5.8,2.6,8.9,8.2,8.9,14.6c0,10.4-8.2,16-16.9,16
				C1247.5,254.3,1240.1,248.8,1239.9,238.6z"/>
			<path class="st1" d="M1310.2,254.4c-35.9,0-35.8-55.8,0-55.8C1345.9,198.6,1346,254.4,1310.2,254.4z M1310.2,207.4
				c-23.5,0-23.6,38.2,0,38.2C1333.8,245.6,1333.8,207.4,1310.2,207.4z"/>
			<path class="st1" d="M1378.1,244.6v9.1h-29.2v-54.5h9.1v45.4H1378.1z"/>
			<path class="st1" d="M1389.2,236.3v-37h9.1v37c0.5,6.3,5.5,9.1,11.3,9.1c5.7,0,11.3-3,11.3-9.1v-37h9.1v37
				c0,11.6-8.9,18.2-20.5,18.2C1398.4,254.5,1389.2,247.5,1389.2,236.3z"/>
			<path class="st1" d="M1471,207.6h-11.4v46.1h-9v-46.1h-11.4v-8.3h31.9V207.6z"/>
			<path class="st1" d="M1480.1,199.3h9.1v54.5h-9.1V199.3z"/>
			<path class="st1" d="M1527.8,254.4c-35.9,0-35.9-55.8,0-55.8C1563.5,198.6,1563.6,254.4,1527.8,254.4z M1527.8,207.4
				c-23.5,0-23.6,38.2,0,38.2C1551.3,245.6,1551.3,207.4,1527.8,207.4z"/>
			<path class="st1" d="M1611.8,253.7h-9.2l-27.1-38.7v38.7h-9.1v-54.5h9.2l27.1,38.7v-38.7h9V253.7z"/>
			<path class="st1" d="M1623.5,238.6h9.1c0.2,4.5,3.9,6.8,7.9,6.8c4.2,0,7.9-2.7,7.9-6.9c0-4.6-4.3-7.5-7.9-7.6
				c-0.5,0-4.2,0-8.2-1.8c-5.7-2.6-8.9-7.5-8.9-13.9c0-10.4,8.2-16.7,17-16.7c9.4,0,16.7,6.4,16.8,15.6h-9c-0.2-4.5-3.6-6.5-7.8-6.5
				c-4.3,0-7.9,2.5-7.9,7.6c0,4.5,3.9,6.9,7.9,6.9c0.4,0,4.2,0,8.1,1.8c5.8,2.6,8.9,8.2,8.9,14.6c0,10.4-8.2,16-16.9,16
				C1631.2,254.3,1623.7,248.8,1623.5,238.6z"/>
		</g>
		<g>
			<path class="st2" d="M361.4,168.5h-47.6V5h47.6V168.5z"/>
			<path class="st2" d="M513.7,168.5l-72-114.7v114.7H399V4.8h58.5l63.3,104.9L520.4,4.8h46.6v163.7H513.7z"/>
			<path class="st2" d="M643.7,168.5V32h-53.9V5h155.9v27h-53.9v136.5H643.7z"/>
			<path class="st2" d="M771.2,168.5V5h82.2c38.4,0,70,8.6,70,42.2v18.6c0,12.7-6.4,22.8-19.6,31.9l15.3,70.8h-49.1l-12.5-60.1
				c-3.8,0.2-8.6,0.2-38.4,0.2v59.8H771.2z M819,82.2h33.3c12.2,0,23.7-2,23.7-16.4V47.4c0-14.9-12-16.9-23.7-16.9H819V82.2z"/>
			<path class="st2" d="M1257.1,168.5l-72-114.7v114.7h-42.7V4.8h58.5l63.3,104.9l-0.5-104.9h46.6v163.7H1257.1z"/>
			<path class="st2" d="M1479.7,125.4c0,31.6-26.2,45.6-61.6,45.6c-24.9,0-43-1.2-68.9-2.5v-26.2c0,0,42,1.7,66.9,1.7
				c10.4,0,15.3-4.7,15.5-15.9c1-26.5-93.1-32.8-93.1-80.6c0-31.9,26-45.6,61.8-45.6c36.1,0,52.2,1.2,68.9,2.2v26.2
				c0,0-44.3-1.7-66.9-1.7c-9.9,0-16.3,3.9-16.3,13.5C1386.1,62.6,1479.7,73.6,1479.7,125.4z"/>
			<path class="st2" d="M1506.9,86.9c0-68.4,9.7-84.3,76.6-84.3c68.4,0,77.3,16.7,77.3,84.3c0,68.4-9.2,84.1-77.3,84.1
				C1515.5,171,1506.9,153.3,1506.9,86.9z M1614,86.9c0-49.5-2.3-58.8-30.5-58.8c-28.2,0-29.5,10.3-29.5,58.8
				c0,47.8,1.8,58.3,29.5,58.3C1611.4,145.2,1614,136.6,1614,86.9z"/>
			<g>
				<polygon class="st2" points="1003.8,98.4 1006.1,91.1 1003.7,98.4 				"/>
				<polygon class="st2" points="1003.7,98.4 1006.1,91.1 1026.2,29.8 1072.2,168.5 1116.9,168.5 1059.9,5 991.7,5 936,168.5 
					980.8,168.5 1003.8,98.4 				"/>
			</g>
		</g>
	</g>
</g>
</svg>
