<?xml version="1.0" encoding="UTF-8" standalone="no"?>
<!-- Created with Inkscape (http://www.inkscape.org/) -->

<svg
   xmlns:dc="http://purl.org/dc/elements/1.1/"
   xmlns:cc="http://creativecommons.org/ns#"
   xmlns:rdf="http://www.w3.org/1999/02/22-rdf-syntax-ns#"
   xmlns:svg="http://www.w3.org/2000/svg"
   xmlns="http://www.w3.org/2000/svg"
   xmlns:sodipodi="http://sodipodi.sourceforge.net/DTD/sodipodi-0.dtd"
   xmlns:inkscape="http://www.inkscape.org/namespaces/inkscape"
   width="32px"
   height="32px"
   id="svg3144"
   version="1.1"
   inkscape:version="0.48.4 r9939"
   sodipodi:docname="New document 6">
  <defs
     id="defs3146" />
  <sodipodi:namedview
     id="base"
     pagecolor="#ffffff"
     bordercolor="#666666"
     borderopacity="1.0"
     inkscape:pageopacity="0.0"
     inkscape:pageshadow="2"
     inkscape:zoom="11.197802"
     inkscape:cx="16"
     inkscape:cy="16"
     inkscape:current-layer="layer1"
     showgrid="true"
     inkscape:grid-bbox="true"
     inkscape:document-units="px"
     inkscape:window-width="1920"
     inkscape:window-height="1018"
     inkscape:window-x="0"
     inkscape:window-y="27"
     inkscape:window-maximized="1" />
  <metadata
     id="metadata3149">
    <rdf:RDF>
      <cc:Work
         rdf:about="">
        <dc:format>image/svg+xml</dc:format>
        <dc:type
           rdf:resource="http://purl.org/dc/dcmitype/StillImage" />
        <dc:title></dc:title>
      </cc:Work>
    </rdf:RDF>
  </metadata>
  <g
     id="layer1"
     inkscape:label="Layer 1"
     inkscape:groupmode="layer">
    <g
       transform="matrix(0.84353574,0,0,0.84353574,-148.00654,-210.14097)"
       id="g67">
      <path
         style="fill:#2e94ff"
         inkscape:connector-curvature="0"
         d="m 178.89,277.563 v -26.256 h 24.022 v 7.912 c 0.459,-0.091 0.936,-0.15 1.429,-0.15 0.251,0 0.484,0.06 0.728,0.076 v -9.994 h -28.335 v 30.566 h 17.823 v -2.154 H 178.89 z m 0,0"
         id="path69" />
      <path
         style="fill:#2e94ff"
         inkscape:connector-curvature="0"
         d="m 181.957,265.563 h 14.639 c 0.15,-0.811 0.435,-1.553 0.803,-2.255 h -15.441 v 2.255 z m 0,0"
         id="path71" />
      <rect
         style="fill:#2e94ff"
         x="181.957"
         y="256.24799"
         width="17.879"
         height="2.256"
         id="rect73" />
      <path
         style="fill:#2e94ff"
         inkscape:connector-curvature="0"
         d="m 181.957,272.626 h 15.173 c 0.41,-0.251 0.844,-0.453 1.304,-0.577 -0.435,-0.513 -0.803,-1.086 -1.111,-1.689 h -15.366 v 2.266 z m 0,0"
         id="path75" />
      <path
         style="fill:#2e94ff"
         inkscape:connector-curvature="0"
         d="m 204.342,272.851 c 3.259,0 5.882,-2.642 5.882,-5.883 0,-3.252 -2.624,-5.881 -5.882,-5.881 -3.242,0 -5.874,2.629 -5.874,5.881 0,3.241 2.632,5.883 5.874,5.883 l 0,0 z m 0,0"
         id="path77" />
      <path
         style="fill:#2e94ff"
         inkscape:connector-curvature="0"
         d="m 209.063,273.804 h -9.434 c -1.679,0 -3.058,1.544 -3.058,3.441 v 9.469 c 0,0.107 0.05,0.2 0.05,0.309 h 15.441 c 0.008,-0.108 0.059,-0.201 0.059,-0.309 v -9.469 c 0.001,-1.897 -1.37,-3.441 -3.058,-3.441 l 0,0 z m 0,0"
         id="path79" />
    </g>
  </g>
</svg>
