<?xml version="1.0" encoding="UTF-8" standalone="no"?>
<!-- Created with Inkscape (http://www.inkscape.org/) -->

<svg
   xmlns:dc="http://purl.org/dc/elements/1.1/"
   xmlns:cc="http://creativecommons.org/ns#"
   xmlns:rdf="http://www.w3.org/1999/02/22-rdf-syntax-ns#"
   xmlns:svg="http://www.w3.org/2000/svg"
   xmlns="http://www.w3.org/2000/svg"
   xmlns:sodipodi="http://sodipodi.sourceforge.net/DTD/sodipodi-0.dtd"
   xmlns:inkscape="http://www.inkscape.org/namespaces/inkscape"
   width="32px"
   height="32px"
   id="svg3256"
   version="1.1"
   inkscape:version="0.48.4 r9939"
   sodipodi:docname="New document 12">
  <defs
     id="defs3258" />
  <sodipodi:namedview
     id="base"
     pagecolor="#ffffff"
     bordercolor="#666666"
     borderopacity="1.0"
     inkscape:pageopacity="0.0"
     inkscape:pageshadow="2"
     inkscape:zoom="11.197802"
     inkscape:cx="16"
     inkscape:cy="16"
     inkscape:current-layer="layer1"
     showgrid="true"
     inkscape:grid-bbox="true"
     inkscape:document-units="px"
     inkscape:window-width="1920"
     inkscape:window-height="1018"
     inkscape:window-x="0"
     inkscape:window-y="27"
     inkscape:window-maximized="1" />
  <metadata
     id="metadata3261">
    <rdf:RDF>
      <cc:Work
         rdf:about="">
        <dc:format>image/svg+xml</dc:format>
        <dc:type
           rdf:resource="http://purl.org/dc/dcmitype/StillImage" />
        <dc:title></dc:title>
      </cc:Work>
    </rdf:RDF>
  </metadata>
  <g
     id="layer1"
     inkscape:label="Layer 1"
     inkscape:groupmode="layer">
    <g
       transform="matrix(0.87242745,0,0,0.87242745,-287.04422,-214.36316)"
       id="g51">
      <path
         style="fill:#2e94ff"
         inkscape:connector-curvature="0"
         d="m 347.358,257.434 c -3.644,0 -6.615,2.972 -6.615,6.616 0,3.634 2.971,6.615 6.615,6.615 3.635,0 6.615,-2.981 6.615,-6.615 0,-3.645 -2.98,-6.616 -6.615,-6.616 l 0,0 z m 14.726,4.958 c -0.832,-6.946 -6.293,-12.408 -13.07,-13.069 v -3.475 h -3.312 v 3.475 c -6.947,0.662 -12.408,6.124 -13.069,13.069 h -3.476 v 3.313 h 3.476 c 0.822,6.947 6.283,12.408 13.069,13.071 v 3.473 h 3.312 v -3.473 c 6.947,-0.832 12.408,-6.293 13.07,-13.071 h 3.474 v -3.313 h -3.474 z m -14.726,13.233 c -6.454,0 -11.585,-5.122 -11.585,-11.575 0,-6.454 5.131,-11.585 11.585,-11.585 6.454,0 11.576,5.131 11.576,11.585 0,6.452 -5.122,11.575 -11.576,11.575 l 0,0 z m 0,0"
         id="path53" />
    </g>
  </g>
</svg>
