<?xml version="1.0" encoding="UTF-8" standalone="no"?>
<!-- Created with Inkscape (http://www.inkscape.org/) -->

<svg
   xmlns:dc="http://purl.org/dc/elements/1.1/"
   xmlns:cc="http://creativecommons.org/ns#"
   xmlns:rdf="http://www.w3.org/1999/02/22-rdf-syntax-ns#"
   xmlns:svg="http://www.w3.org/2000/svg"
   xmlns="http://www.w3.org/2000/svg"
   xmlns:sodipodi="http://sodipodi.sourceforge.net/DTD/sodipodi-0.dtd"
   xmlns:inkscape="http://www.inkscape.org/namespaces/inkscape"
   width="32px"
   height="32px"
   id="svg3310"
   version="1.1"
   inkscape:version="0.48.4 r9939"
   sodipodi:docname="New document 15">
  <defs
     id="defs3312" />
  <sodipodi:namedview
     id="base"
     pagecolor="#ffffff"
     bordercolor="#666666"
     borderopacity="1.0"
     inkscape:pageopacity="0.0"
     inkscape:pageshadow="2"
     inkscape:zoom="11.197802"
     inkscape:cx="16"
     inkscape:cy="16"
     inkscape:current-layer="layer1"
     showgrid="true"
     inkscape:grid-bbox="true"
     inkscape:document-units="px"
     inkscape:window-width="1920"
     inkscape:window-height="1018"
     inkscape:window-x="0"
     inkscape:window-y="27"
     inkscape:window-maximized="1" />
  <metadata
     id="metadata3315">
    <rdf:RDF>
      <cc:Work
         rdf:about="">
        <dc:format>image/svg+xml</dc:format>
        <dc:type
           rdf:resource="http://purl.org/dc/dcmitype/StillImage" />
        <dc:title></dc:title>
      </cc:Work>
    </rdf:RDF>
  </metadata>
  <g
     id="layer1"
     inkscape:label="Layer 1"
     inkscape:groupmode="layer">
    <g
       transform="matrix(0.81556539,0,0,0.81556539,-324.02797,-199.30722)"
       id="g9">
      <path
         style="fill:#2e94ff"
         inkscape:connector-curvature="0"
         d="m 429.268,246.017 c -3.873,0 -7.023,3.149 -7.023,7.022 0,3.596 5.734,11.497 6.389,12.387 l 0.242,0.328 c 0.088,0.125 0.237,0.199 0.393,0.199 0.154,0 0.301,-0.075 0.393,-0.199 l 0.241,-0.328 c 0.655,-0.89 6.388,-8.791 6.388,-12.387 -0.002,-3.872 -3.15,-7.022 -7.023,-7.022 l 0,0 z m 0,10.503 c -1.59,0 -2.885,-1.292 -2.885,-2.882 0,-1.59 1.295,-2.881 2.885,-2.881 1.59,0 2.881,1.292 2.881,2.881 0,1.589 -1.292,2.882 -2.881,2.882 l 0,0 z m 0,0"
         id="path11" />
      <path
         style="fill:#2e94ff"
         inkscape:connector-curvature="0"
         d="m 429.268,252.033 c -0.885,0 -1.604,0.72 -1.604,1.604 0,0.887 0.72,1.608 1.604,1.608 0.884,0 1.607,-0.721 1.607,-1.608 0,-0.884 -0.724,-1.604 -1.607,-1.604 l 0,0 z m 0,0"
         id="path13" />
      <path
         style="fill:#2e94ff"
         inkscape:connector-curvature="0"
         d="m 411.752,277.393 -0.438,0.327 c 2.824,-4.218 7.02,-11.106 7.02,-14.848 0,-5.728 -4.66,-10.389 -10.391,-10.389 -5.727,0 -10.388,4.662 -10.388,10.389 0,5.319 8.484,17.01 9.448,18.325 l 0.358,0.486 c 0.137,0.184 0.354,0.295 0.582,0.295 0.23,0 0.447,-0.111 0.584,-0.295 l 0.357,-0.486 c 0.129,-0.172 0.393,-0.536 0.747,-1.041 0.182,0.227 0.444,0.345 0.711,0.345 0.19,0 0.384,-0.06 0.548,-0.181 l 1.953,-1.462 c 0.405,-0.301 0.488,-0.875 0.188,-1.28 -0.302,-0.405 -0.875,-0.488 -1.279,-0.185 l 0,0 z m -3.809,-9.371 c -2.351,0 -4.265,-1.911 -4.265,-4.263 0,-2.351 1.914,-4.266 4.265,-4.266 2.353,0 4.264,1.915 4.264,4.266 0.002,2.352 -1.911,4.263 -4.264,4.263 l 0,0 z m 0,0"
         id="path15" />
      <path
         style="fill:#2e94ff"
         inkscape:connector-curvature="0"
         d="m 407.943,261.383 c -1.309,0 -2.375,1.066 -2.375,2.375 0,1.31 1.066,2.376 2.375,2.376 1.311,0 2.377,-1.066 2.377,-2.376 0,-1.309 -1.066,-2.375 -2.377,-2.375 l 0,0 z m 0,0"
         id="path17" />
      <path
         style="fill:#2e94ff"
         inkscape:connector-curvature="0"
         d="m 417.369,273.196 -3.745,2.798 c -0.405,0.304 -0.489,0.875 -0.188,1.28 0.181,0.241 0.456,0.369 0.735,0.369 0.19,0 0.381,-0.06 0.545,-0.184 l 3.748,-2.799 c 0.404,-0.3 0.484,-0.875 0.184,-1.279 -0.302,-0.405 -0.875,-0.489 -1.279,-0.185 l 0,0 z m 0,0"
         id="path19" />
      <path
         style="fill:#2e94ff"
         inkscape:connector-curvature="0"
         d="m 422.989,268.996 -3.748,2.801 c -0.401,0.301 -0.485,0.875 -0.185,1.28 0.182,0.241 0.455,0.366 0.732,0.366 0.193,0 0.384,-0.059 0.547,-0.182 l 3.746,-2.801 c 0.404,-0.301 0.488,-0.875 0.188,-1.28 -0.304,-0.402 -0.878,-0.488 -1.28,-0.184 l 0,0 z m 0,0"
         id="path21" />
      <path
         style="fill:#2e94ff"
         inkscape:connector-curvature="0"
         d="m 426.814,266.138 -1.953,1.458 c -0.404,0.301 -0.488,0.875 -0.184,1.28 0.178,0.241 0.451,0.366 0.731,0.366 0.19,0 0.382,-0.056 0.545,-0.181 l 1.956,-1.459 c 0.404,-0.303 0.484,-0.875 0.184,-1.28 -0.302,-0.405 -0.874,-0.488 -1.279,-0.184 l 0,0 z m 0,0"
         id="path23" />
    </g>
  </g>
</svg>
