<?xml version="1.0" encoding="UTF-8" standalone="no"?>
<!-- Created with Inkscape (http://www.inkscape.org/) -->

<svg
   xmlns:dc="http://purl.org/dc/elements/1.1/"
   xmlns:cc="http://creativecommons.org/ns#"
   xmlns:rdf="http://www.w3.org/1999/02/22-rdf-syntax-ns#"
   xmlns:svg="http://www.w3.org/2000/svg"
   xmlns="http://www.w3.org/2000/svg"
   xmlns:sodipodi="http://sodipodi.sourceforge.net/DTD/sodipodi-0.dtd"
   xmlns:inkscape="http://www.inkscape.org/namespaces/inkscape"
   width="32px"
   height="32px"
   id="svg3377"
   version="1.1"
   inkscape:version="0.48.4 r9939"
   sodipodi:docname="New document 18">
  <defs
     id="defs3379" />
  <sodipodi:namedview
     id="base"
     pagecolor="#ffffff"
     bordercolor="#666666"
     borderopacity="1.0"
     inkscape:pageopacity="0.0"
     inkscape:pageshadow="2"
     inkscape:zoom="11.197802"
     inkscape:cx="16"
     inkscape:cy="16"
     inkscape:current-layer="layer1"
     showgrid="true"
     inkscape:grid-bbox="true"
     inkscape:document-units="px"
     inkscape:window-width="1920"
     inkscape:window-height="1018"
     inkscape:window-x="0"
     inkscape:window-y="27"
     inkscape:window-maximized="1" />
  <metadata
     id="metadata3382">
    <rdf:RDF>
      <cc:Work
         rdf:about="">
        <dc:format>image/svg+xml</dc:format>
        <dc:type
           rdf:resource="http://purl.org/dc/dcmitype/StillImage" />
        <dc:title></dc:title>
      </cc:Work>
    </rdf:RDF>
  </metadata>
  <g
     id="layer1"
     inkscape:label="Layer 1"
     inkscape:groupmode="layer">
    <g
       transform="matrix(0.8922597,0,0,0.8922597,-417.51642,-219.81086)"
       id="g25">
      <g
         id="g27">
        <path
           style="fill:#2e94ff"
           inkscape:connector-curvature="0"
           d="m 499.975,250.755 h -2.715 v -1.852 c 0,-1.362 -1.104,-2.467 -2.465,-2.467 h -0.1 c -1.361,0 -2.467,1.104 -2.467,2.467 v 1.852 H 479.5 v -1.852 c 0,-1.362 -1.105,-2.467 -2.465,-2.467 h -0.102 c -1.361,0 -2.467,1.104 -2.467,2.467 v 1.852 h -2.713 c -1.361,0 -2.467,1.104 -2.467,2.468 v 26.444 c 0,1.361 1.105,2.467 2.467,2.467 h 28.221 c 1.361,0 2.467,-1.105 2.467,-2.467 v -26.444 c 0,-1.364 -1.105,-2.468 -2.466,-2.468 l 0,0 z m -1.678,27.481 h -24.865 v -20.031 h 24.865 v 20.031 z m 0,0"
           id="path29" />
      </g>
      <path
         style="fill:#2e94ff"
         inkscape:connector-curvature="0"
         d="m 476.811,267.269 h 4.293 c 0.217,0 0.395,-0.176 0.395,-0.394 v -4.292 c 0,-0.219 -0.178,-0.396 -0.395,-0.396 h -4.293 c -0.217,0 -0.395,0.177 -0.395,0.396 v 4.292 c 0,0.218 0.178,0.394 0.395,0.394 l 0,0 z m 0,0"
         id="path31" />
      <path
         style="fill:#2e94ff"
         inkscape:connector-curvature="0"
         d="m 483.719,267.269 h 4.291 c 0.219,0 0.396,-0.176 0.396,-0.394 v -4.292 c 0,-0.219 -0.178,-0.396 -0.396,-0.396 h -4.291 c -0.219,0 -0.395,0.177 -0.395,0.396 v 4.292 c 0,0.218 0.176,0.394 0.395,0.394 l 0,0 z m 0,0"
         id="path33" />
      <path
         style="fill:#2e94ff"
         inkscape:connector-curvature="0"
         d="m 490.625,267.269 h 4.293 c 0.219,0 0.393,-0.176 0.393,-0.394 v -4.292 c 0,-0.219 -0.174,-0.396 -0.393,-0.396 h -4.293 c -0.217,0 -0.395,0.177 -0.395,0.396 v 4.292 c 0,0.218 0.178,0.394 0.395,0.394 l 0,0 z m 0,0"
         id="path35" />
      <path
         style="fill:#2e94ff"
         inkscape:connector-curvature="0"
         d="m 476.811,274.177 h 4.293 c 0.217,0 0.395,-0.177 0.395,-0.396 v -4.291 c 0,-0.219 -0.178,-0.396 -0.395,-0.396 h -4.293 c -0.217,0 -0.395,0.177 -0.395,0.396 v 4.291 c 0,0.219 0.178,0.396 0.395,0.396 l 0,0 z m 0,0"
         id="path37" />
      <path
         style="fill:#2e94ff"
         inkscape:connector-curvature="0"
         d="m 483.719,274.177 h 4.291 c 0.219,0 0.396,-0.177 0.396,-0.396 v -4.291 c 0,-0.219 -0.178,-0.396 -0.396,-0.396 h -4.291 c -0.219,0 -0.395,0.177 -0.395,0.396 v 4.291 c 0,0.219 0.176,0.396 0.395,0.396 l 0,0 z m 0,0"
         id="path39" />
      <path
         style="fill:#2e94ff"
         inkscape:connector-curvature="0"
         d="m 490.625,274.177 h 4.293 c 0.219,0 0.393,-0.177 0.393,-0.396 v -4.291 c 0,-0.219 -0.174,-0.396 -0.393,-0.396 h -4.293 c -0.217,0 -0.395,0.177 -0.395,0.396 v 4.291 c 0,0.219 0.178,0.396 0.395,0.396 l 0,0 z m 0,0"
         id="path41" />
    </g>
  </g>
</svg>
