<?xml version="1.0" encoding="UTF-8" standalone="no"?>
<!-- Created with Inkscape (http://www.inkscape.org/) -->

<svg
   xmlns:dc="http://purl.org/dc/elements/1.1/"
   xmlns:cc="http://creativecommons.org/ns#"
   xmlns:rdf="http://www.w3.org/1999/02/22-rdf-syntax-ns#"
   xmlns:svg="http://www.w3.org/2000/svg"
   xmlns="http://www.w3.org/2000/svg"
   xmlns:sodipodi="http://sodipodi.sourceforge.net/DTD/sodipodi-0.dtd"
   xmlns:inkscape="http://www.inkscape.org/namespaces/inkscape"
   width="36"
   height="36"
   id="svg3732"
   version="1.1"
   inkscape:version="0.48.4 r9939"
   sodipodi:docname="red.svg">
  <defs
     id="defs3734" />
  <sodipodi:namedview
     id="base"
     pagecolor="#ffffff"
     bordercolor="#666666"
     borderopacity="1.0"
     inkscape:pageopacity="0.0"
     inkscape:pageshadow="2"
     inkscape:zoom="14"
     inkscape:cx="27.823799"
     inkscape:cy="17.152139"
     inkscape:current-layer="layer1"
     showgrid="true"
     inkscape:grid-bbox="true"
     inkscape:document-units="px"
     inkscape:window-width="1920"
     inkscape:window-height="1018"
     inkscape:window-x="0"
     inkscape:window-y="27"
     inkscape:window-maximized="1" />
  <metadata
     id="metadata3737">
    <rdf:RDF>
      <cc:Work
         rdf:about="">
        <dc:format>image/svg+xml</dc:format>
        <dc:type
           rdf:resource="http://purl.org/dc/dcmitype/StillImage" />
        <dc:title />
      </cc:Work>
    </rdf:RDF>
  </metadata>
  <g
     id="layer1"
     inkscape:label="Layer 1"
     inkscape:groupmode="layer"
     transform="translate(0,-12)">
    <g
       transform="matrix(0.65052993,0,0,0.65052993,-338.886,-891.31708)"
       id="g293">
      <path
         style="fill:#f61051"
         inkscape:connector-curvature="0"
         id="path295"
         d="m 548.94,1388.836 c -11.386,0 -20.646,9.262 -20.646,20.647 0,4.337 1.351,8.497 3.896,12.034 l 0.54,0.764 14.833,20.926 c 0.325,0.433 0.836,0.689 1.376,0.689 0.54,0 1.05,-0.257 1.376,-0.689 l 14.646,-20.677 0.723,-1.002 c 2.551,-3.548 3.897,-7.706 3.897,-12.044 0.004,-11.386 -9.26,-20.648 -20.641,-20.648 l 0,0 z m 0,27.531 c -3.797,0 -6.884,-3.088 -6.884,-6.883 0,-3.798 3.087,-6.886 6.884,-6.886 3.796,0 6.879,3.088 6.879,6.886 0,3.796 -3.083,6.883 -6.879,6.883 l 0,0 z" />
    </g>
  </g>
</svg>
