<?xml version="1.0" encoding="UTF-8" standalone="no"?>
<!-- Created with Inkscape (http://www.inkscape.org/) -->

<svg
   xmlns:dc="http://purl.org/dc/elements/1.1/"
   xmlns:cc="http://creativecommons.org/ns#"
   xmlns:rdf="http://www.w3.org/1999/02/22-rdf-syntax-ns#"
   xmlns:svg="http://www.w3.org/2000/svg"
   xmlns="http://www.w3.org/2000/svg"
   xmlns:sodipodi="http://sodipodi.sourceforge.net/DTD/sodipodi-0.dtd"
   xmlns:inkscape="http://www.inkscape.org/namespaces/inkscape"
   width="64px"
   height="64px"
   id="svg4206"
   version="1.1"
   inkscape:version="0.48.4 r9939"
   sodipodi:docname="New document 34">
  <defs
     id="defs4208" />
  <sodipodi:namedview
     id="base"
     pagecolor="#ffffff"
     bordercolor="#666666"
     borderopacity="1.0"
     inkscape:pageopacity="0.0"
     inkscape:pageshadow="2"
     inkscape:zoom="5.5"
     inkscape:cx="32"
     inkscape:cy="32"
     inkscape:current-layer="layer1"
     showgrid="true"
     inkscape:document-units="px"
     inkscape:grid-bbox="true"
     inkscape:window-width="1920"
     inkscape:window-height="1018"
     inkscape:window-x="0"
     inkscape:window-y="27"
     inkscape:window-maximized="1" />
  <metadata
     id="metadata4211">
    <rdf:RDF>
      <cc:Work
         rdf:about="">
        <dc:format>image/svg+xml</dc:format>
        <dc:type
           rdf:resource="http://purl.org/dc/dcmitype/StillImage" />
        <dc:title></dc:title>
      </cc:Work>
    </rdf:RDF>
  </metadata>
  <g
     id="layer1"
     inkscape:label="Layer 1"
     inkscape:groupmode="layer">
    <g
       transform="matrix(0.98318885,0,0,0.98318885,-230.26864,-139.90762)"
       id="g236">
      <path
         style="fill:#919fb8"
         inkscape:connector-curvature="0"
         id="path238"
         d="m 282.354,166.073 -10.061,14.866 c 0.014,0.185 0.053,0.37 0.053,0.555 0,2.984 -2.416,5.4 -5.399,5.4 -2.985,0 -5.415,-2.416 -5.415,-5.4 0,-2.984 2.43,-5.414 5.415,-5.414 0.182,0 0.355,0.04 0.542,0.053 l 14.865,-10.06 z m -15.407,-17.032 c -17.903,0 -32.455,14.55 -32.455,32.454 0,6.826 2.204,13.625 6.192,19.158 l 4.384,-3.168 c -2.799,-3.882 -4.529,-8.517 -5.016,-13.295 h 2.545 v -5.4 h -2.558 c 0.54,-5.426 2.693,-10.391 5.979,-14.405 l 1.703,1.716 3.829,-3.829 -1.716,-1.703 c 4.016,-3.288 8.976,-5.44 14.404,-5.981 v 2.562 h 5.4 v -2.562 c 5.439,0.542 10.391,2.693 14.404,5.981 l -1.703,1.703 3.816,3.829 1.703,-1.716 c 3.288,4.014 5.44,8.979 5.981,14.405 h -2.562 v 5.4 h 2.548 c -0.488,4.779 -2.205,9.413 -5.017,13.295 l 4.384,3.168 c 4.001,-5.533 6.192,-12.332 6.192,-19.158 0.002,-17.904 -14.548,-32.454 -32.437,-32.454 l 0,0 z m 0,0" />
    </g>
  </g>
</svg>
