<?xml version="1.0" encoding="UTF-8" standalone="no"?>
<!-- Created with Inkscape (http://www.inkscape.org/) -->

<svg
   xmlns:dc="http://purl.org/dc/elements/1.1/"
   xmlns:cc="http://creativecommons.org/ns#"
   xmlns:rdf="http://www.w3.org/1999/02/22-rdf-syntax-ns#"
   xmlns:svg="http://www.w3.org/2000/svg"
   xmlns="http://www.w3.org/2000/svg"
   xmlns:sodipodi="http://sodipodi.sourceforge.net/DTD/sodipodi-0.dtd"
   xmlns:inkscape="http://www.inkscape.org/namespaces/inkscape"
   width="64px"
   height="64px"
   id="svg4042"
   version="1.1"
   inkscape:version="0.48.4 r9939"
   sodipodi:docname="New document 25">
  <defs
     id="defs4044" />
  <sodipodi:namedview
     id="base"
     pagecolor="#ffffff"
     bordercolor="#666666"
     borderopacity="1.0"
     inkscape:pageopacity="0.0"
     inkscape:pageshadow="2"
     inkscape:zoom="5.5"
     inkscape:cx="32"
     inkscape:cy="32"
     inkscape:current-layer="layer1"
     showgrid="true"
     inkscape:document-units="px"
     inkscape:grid-bbox="true"
     inkscape:window-width="1920"
     inkscape:window-height="1018"
     inkscape:window-x="0"
     inkscape:window-y="27"
     inkscape:window-maximized="1" />
  <metadata
     id="metadata4047">
    <rdf:RDF>
      <cc:Work
         rdf:about="">
        <dc:format>image/svg+xml</dc:format>
        <dc:type
           rdf:resource="http://purl.org/dc/dcmitype/StillImage" />
        <dc:title></dc:title>
      </cc:Work>
    </rdf:RDF>
  </metadata>
  <g
     id="layer1"
     inkscape:label="Layer 1"
     inkscape:groupmode="layer">
    <g
       transform="matrix(0.86248777,0,0,0.86248777,-448.69591,-36.91191)"
       id="g128">
      <g
         id="g130">
        <path
           style="fill:#919fb8"
           inkscape:connector-curvature="0"
           id="path132"
           d="m 569.525,75.953 c -0.084,-0.69 -0.346,-1.319 -0.748,-1.845 l 2.768,-17.172 c 0.102,-0.638 -0.309,-1.247 -0.938,-1.393 l -0.031,-0.007 c -0.63,-0.146 -1.266,0.223 -1.453,0.842 l -5.041,16.646 c -1.241,0.625 -2.104,1.898 -2.104,3.381 0,2.093 1.701,3.797 3.796,3.797 0.391,0 0.759,-0.077 1.113,-0.186 l 10.531,5.473 c 0.578,0.301 1.291,0.113 1.647,-0.435 l 0.017,-0.024 c 0.355,-0.547 0.236,-1.276 -0.274,-1.683 l -9.283,-7.394 z m -5.627,0.452 c 0,-1.034 0.841,-1.875 1.875,-1.875 1.035,0 1.877,0.841 1.877,1.875 0,1.034 -0.842,1.875 -1.877,1.875 -1.034,0.001 -1.875,-0.841 -1.875,-1.875 l 0,0 z m 30.46,0 c 0,12.71 -8.341,23.505 -19.835,27.209 l -0.002,-4.07 c 9.337,-3.542 15.994,-12.577 15.994,-23.14 0,-13.643 -11.1,-24.743 -24.742,-24.743 -13.642,0 -24.742,11.1 -24.742,24.743 0,1.369 0.116,2.71 0.332,4.019 h -3.887 c -0.186,-1.314 -0.288,-2.654 -0.288,-4.019 0,-15.762 12.823,-28.585 28.585,-28.585 15.762,0 28.585,12.825 28.585,28.586 l 0,0 z m -35.651,26.408 c -2.532,0 -4.583,2.05 -4.583,4.583 0,2.533 2.051,4.583 4.583,4.583 2.532,0 4.584,-2.051 4.584,-4.583 0,-2.532 -2.052,-4.583 -4.584,-4.583 l 0,0 z m 0,6.576 c -1.1,0 -1.992,-0.892 -1.992,-1.993 0,-1.101 0.893,-1.993 1.992,-1.993 1.101,0 1.992,0.892 1.992,1.993 0,1.101 -0.891,1.993 -1.992,1.993 l 0,0 z m 0,0 m -26.906,-6.576 c -2.532,0 -4.583,2.05 -4.583,4.583 0,2.533 2.051,4.583 4.583,4.583 2.531,0 4.583,-2.051 4.583,-4.583 0,-2.532 -2.052,-4.583 -4.583,-4.583 l 0,0 z m 0,6.576 c -1.102,0 -1.992,-0.892 -1.992,-1.993 0,-1.101 0.891,-1.993 1.992,-1.993 1.1,0 1.992,0.892 1.992,1.993 0,1.101 -0.893,1.993 -1.992,1.993 l 0,0 z m 0,0 m -8.746,-25.135 c -1.508,0 -2.74,1.232 -2.74,2.739 v 17.664 c 0,1.506 1.232,2.738 2.74,2.738 h 3.342 c 0,-2.98 2.424,-5.404 5.404,-5.404 2.98,0 5.404,2.424 5.404,5.404 h 16.098 c 0,-2.98 2.425,-5.404 5.404,-5.404 2.98,0 5.405,2.424 5.405,5.404 h 2.793 c 1.507,0 2.739,-1.232 2.739,-2.738 v -6.299 c 0,-1.505 -0.248,-3.946 -0.547,-5.421 l -1.644,-6 c -0.304,-1.476 -1.781,-2.683 -3.288,-2.683 h -41.11 l 0,0 z m 35.207,11.555 v -9.914 h 5.426 c 1.129,0 2.224,0.908 2.429,2.019 l 1.473,5.875 c 0.174,0.939 -0.341,1.732 -1.188,1.954 l -1.254,-2.97 c -0.178,-0.417 -0.657,-0.614 -1.076,-0.437 -0.418,0.176 -0.614,0.658 -0.438,1.077 l 1.012,2.395 h -6.381 -0.003 z m -12.187,-9.913 h 10.544 v 9.914 h -10.544 v -9.914 z m -12.186,0 h 10.545 v 9.914 h -10.545 v -9.914 z m -11.895,2.053 c 0,-1.13 0.924,-2.054 2.054,-2.054 h 8.196 v 9.914 h -8.196 c -1.13,0 -2.054,-0.925 -2.054,-2.054 v -5.806 z m 0,5.806" />
      </g>
    </g>
  </g>
</svg>
