<?xml version="1.0" encoding="UTF-8" standalone="no"?>
<!-- Created with Inkscape (http://www.inkscape.org/) -->

<svg
   xmlns:dc="http://purl.org/dc/elements/1.1/"
   xmlns:cc="http://creativecommons.org/ns#"
   xmlns:rdf="http://www.w3.org/1999/02/22-rdf-syntax-ns#"
   xmlns:svg="http://www.w3.org/2000/svg"
   xmlns="http://www.w3.org/2000/svg"
   xmlns:sodipodi="http://sodipodi.sourceforge.net/DTD/sodipodi-0.dtd"
   xmlns:inkscape="http://www.inkscape.org/namespaces/inkscape"
   width="64px"
   height="64px"
   id="svg4150"
   version="1.1"
   inkscape:version="0.48.4 r9939"
   sodipodi:docname="New document 31">
  <defs
     id="defs4152" />
  <sodipodi:namedview
     id="base"
     pagecolor="#ffffff"
     bordercolor="#666666"
     borderopacity="1.0"
     inkscape:pageopacity="0.0"
     inkscape:pageshadow="2"
     inkscape:zoom="5.5"
     inkscape:cx="32"
     inkscape:cy="32"
     inkscape:current-layer="layer1"
     showgrid="true"
     inkscape:document-units="px"
     inkscape:grid-bbox="true"
     inkscape:window-width="1920"
     inkscape:window-height="1018"
     inkscape:window-x="0"
     inkscape:window-y="27"
     inkscape:window-maximized="1" />
  <metadata
     id="metadata4155">
    <rdf:RDF>
      <cc:Work
         rdf:about="">
        <dc:format>image/svg+xml</dc:format>
        <dc:type
           rdf:resource="http://purl.org/dc/dcmitype/StillImage" />
        <dc:title></dc:title>
      </cc:Work>
    </rdf:RDF>
  </metadata>
  <g
     id="layer1"
     inkscape:label="Layer 1"
     inkscape:groupmode="layer">
    <g
       transform="matrix(0.90199871,0,0,0.90199871,-125.97689,-135.18224)"
       id="g63">
      <g
         id="g65">
        <path
           style="fill:#919fb8"
           inkscape:connector-curvature="0"
           id="path67"
           d="m 176.531,188.113 c 0.009,-1.792 1.476,-3.26 3.294,-3.26 1.802,0 3.269,1.468 3.26,3.26 0,0.386 -0.069,0.755 -0.189,1.098 1.39,-0.403 2.797,-0.703 4.229,-0.91 v -13.657 l -3.037,-24.346 h -40.877 l -3.088,24.346 v 24.381 h 3.946 v 5.576 h 6.863 v -5.576 h 16.806 l 2.059,-2.059 c 2.471,-2.471 5.302,-4.478 8.433,-5.971 -1.004,-0.566 -1.69,-1.647 -1.699,-2.882 l 0,0 z m -22.51,-35.241 h 19.216 c 1.887,0 1.887,2.831 0,2.831 h -19.216 c -0.515,0 -0.884,-0.206 -1.124,-0.514 -0.626,-0.816 -0.249,-2.317 1.124,-2.317 l 0,0 z m -6.546,38.535 c -1.801,-0.008 -3.269,-1.476 -3.26,-3.294 0,-1.792 1.467,-3.26 3.26,-3.26 1.819,0 3.286,1.468 3.294,3.26 -0.017,1.819 -1.476,3.286 -3.294,3.294 l 0,0 z m -3.14,-16.746 2.016,-16.042 h 34.564 l 2.042,16.042 h -38.622 z m 0,0" />
      </g>
      <path
         style="fill:#919fb8"
         inkscape:connector-curvature="0"
         id="path69"
         d="m 183.188,204.49 c -0.061,0.034 -0.121,0.068 -0.18,0.111 -1.158,0.712 -2.24,1.57 -3.209,2.583 l 5.242,5.07 c 1.69,-1.75 3.963,-2.72 6.4,-2.72 2.376,0 4.616,0.927 6.297,2.608 l 5.156,-5.155 c -3.063,-3.063 -7.129,-4.745 -11.453,-4.745 -2.96,0 -5.782,0.78 -8.253,2.248 l 0,0 z m 0,0" />
      <path
         style="fill:#919fb8"
         inkscape:connector-curvature="0"
         id="path71"
         d="m 187.134,191.776 c -2.153,0.343 -4.247,0.943 -6.271,1.792 -3.081,1.304 -5.851,3.14 -8.262,5.456 -0.128,0.12 -0.249,0.24 -0.377,0.369 l 5.156,5.156 c 1.707,-1.707 3.671,-3.063 5.808,-4.041 2.556,-1.167 5.361,-1.784 8.252,-1.784 5.276,0 10.243,2.042 13.992,5.756 l 5.13,-5.181 c -5.121,-5.079 -11.915,-7.867 -19.122,-7.867 -1.449,0.001 -2.89,0.112 -4.306,0.344 l 0,0 z m 0,0" />
      <path
         style="fill:#919fb8"
         inkscape:connector-curvature="0"
         id="path73"
         d="m 195.387,216.852 c 0,2.18 -1.767,3.946 -3.946,3.946 -2.18,0 -3.946,-1.767 -3.946,-3.946 0,-2.179 1.767,-3.946 3.946,-3.946 2.179,-0.001 3.946,1.766 3.946,3.946 l 0,0 z m 0,0" />
    </g>
  </g>
</svg>
