<?xml version="1.0" encoding="UTF-8" standalone="no"?>
<!-- Created with Inkscape (http://www.inkscape.org/) -->

<svg
   xmlns:dc="http://purl.org/dc/elements/1.1/"
   xmlns:cc="http://creativecommons.org/ns#"
   xmlns:rdf="http://www.w3.org/1999/02/22-rdf-syntax-ns#"
   xmlns:svg="http://www.w3.org/2000/svg"
   xmlns="http://www.w3.org/2000/svg"
   xmlns:sodipodi="http://sodipodi.sourceforge.net/DTD/sodipodi-0.dtd"
   xmlns:inkscape="http://www.inkscape.org/namespaces/inkscape"
   width="64px"
   height="64px"
   id="svg4094"
   version="1.1"
   inkscape:version="0.48.4 r9939"
   sodipodi:docname="New document 28">
  <defs
     id="defs4096" />
  <sodipodi:namedview
     id="base"
     pagecolor="#ffffff"
     bordercolor="#666666"
     borderopacity="1.0"
     inkscape:pageopacity="0.0"
     inkscape:pageshadow="2"
     inkscape:zoom="5.5"
     inkscape:cx="32"
     inkscape:cy="32"
     inkscape:current-layer="layer1"
     showgrid="true"
     inkscape:document-units="px"
     inkscape:grid-bbox="true"
     inkscape:window-width="1920"
     inkscape:window-height="1018"
     inkscape:window-x="0"
     inkscape:window-y="27"
     inkscape:window-maximized="1" />
  <metadata
     id="metadata4099">
    <rdf:RDF>
      <cc:Work
         rdf:about="">
        <dc:format>image/svg+xml</dc:format>
        <dc:type
           rdf:resource="http://purl.org/dc/dcmitype/StillImage" />
        <dc:title></dc:title>
      </cc:Work>
    </rdf:RDF>
  </metadata>
  <g
     id="layer1"
     inkscape:label="Layer 1"
     inkscape:groupmode="layer">
    <g
       transform="matrix(0.86125856,0,0,0.86125856,-13.088177,-121.81303)"
       id="g55">
      <path
         style="fill:#919fb8"
         inkscape:connector-curvature="0"
         id="path57"
         d="m 72.775,185.578 c -3.768,0 -6.819,3.051 -6.819,6.818 0,3.767 3.051,6.818 6.819,6.818 3.767,0 6.819,-3.051 6.819,-6.818 0,-3.767 -3.053,-6.818 -6.819,-6.818 l 0,0 z m 0,9.782 c -1.637,0 -2.965,-1.326 -2.965,-2.964 0,-1.638 1.328,-2.964 2.965,-2.964 1.637,0 2.964,1.326 2.964,2.964 0,1.638 -1.327,2.964 -2.964,2.964 l 0,0 z m 0,0" />
      <path
         style="fill:#919fb8"
         inkscape:connector-curvature="0"
         id="path59"
         d="m 32.746,185.578 c -3.768,0 -6.819,3.051 -6.819,6.818 0,3.767 3.051,6.818 6.819,6.818 3.766,0 6.818,-3.051 6.818,-6.818 -10e-4,-3.767 -3.052,-6.818 -6.818,-6.818 l 0,0 z m 0,9.782 c -1.638,0 -2.965,-1.326 -2.965,-2.964 0,-1.638 1.327,-2.964 2.965,-2.964 1.637,0 2.963,1.326 2.963,2.964 0,1.638 -1.326,2.964 -2.963,2.964 l 0,0 z m 0,0" />
      <path
         style="fill:#919fb8"
         inkscape:connector-curvature="0"
         id="path61"
         d="m 19.733,157.968 c -2.241,0 -4.075,1.833 -4.075,4.075 v 26.28 c 0,2.24 1.833,4.073 4.075,4.073 h 4.972 c 0,-4.434 3.606,-8.04 8.041,-8.04 4.434,0 8.041,3.607 8.041,8.04 h 23.947 c 0,-4.434 3.607,-8.04 8.041,-8.04 4.433,0 8.041,3.607 8.041,8.04 h 4.155 c 2.241,0 4.074,-1.833 4.074,-4.073 v -9.371 c 0,-2.241 -0.367,-5.871 -0.815,-8.067 l -2.445,-8.924 c -0.449,-2.195 -2.648,-3.992 -4.889,-3.992 H 19.733 l 0,-0.001 z m 52.379,17.191 v -14.75 h 8.071 c 1.681,0 3.307,1.352 3.613,3.004 l 2.19,8.742 c 0.259,1.397 -0.507,2.578 -1.767,2.908 l -1.865,-4.418 c -0.263,-0.622 -0.979,-0.914 -1.601,-0.651 -0.622,0.263 -0.913,0.979 -0.651,1.602 l 1.505,3.563 h -9.495 l 0,0 z M 53.981,160.41 h 15.687 v 14.75 H 53.981 v -14.75 z m -18.13,0 h 15.687 v 14.75 H 35.851 v -14.75 z m -17.695,3.056 c 0,-1.681 1.375,-3.057 3.056,-3.057 h 12.194 v 14.75 H 21.212 c -1.681,0 -3.056,-1.375 -3.056,-3.055 v -8.638 z m 0,8.638" />
    </g>
  </g>
</svg>
