<?xml version="1.0" encoding="UTF-8" standalone="no"?>
<!-- Created with Inkscape (http://www.inkscape.org/) -->

<svg
   xmlns:dc="http://purl.org/dc/elements/1.1/"
   xmlns:cc="http://creativecommons.org/ns#"
   xmlns:rdf="http://www.w3.org/1999/02/22-rdf-syntax-ns#"
   xmlns:svg="http://www.w3.org/2000/svg"
   xmlns="http://www.w3.org/2000/svg"
   xmlns:sodipodi="http://sodipodi.sourceforge.net/DTD/sodipodi-0.dtd"
   xmlns:inkscape="http://www.inkscape.org/namespaces/inkscape"
   width="64px"
   height="64px"
   id="svg3936"
   version="1.1"
   inkscape:version="0.48.4 r9939"
   sodipodi:docname="New document 20">
  <defs
     id="defs3938" />
  <sodipodi:namedview
     id="base"
     pagecolor="#ffffff"
     bordercolor="#666666"
     borderopacity="1.0"
     inkscape:pageopacity="0.0"
     inkscape:pageshadow="2"
     inkscape:zoom="5.5"
     inkscape:cx="32"
     inkscape:cy="32"
     inkscape:current-layer="layer1"
     showgrid="true"
     inkscape:document-units="px"
     inkscape:grid-bbox="true"
     inkscape:window-width="1920"
     inkscape:window-height="1018"
     inkscape:window-x="0"
     inkscape:window-y="27"
     inkscape:window-maximized="1" />
  <metadata
     id="metadata3941">
    <rdf:RDF>
      <cc:Work
         rdf:about="">
        <dc:format>image/svg+xml</dc:format>
        <dc:type
           rdf:resource="http://purl.org/dc/dcmitype/StillImage" />
        <dc:title></dc:title>
      </cc:Work>
    </rdf:RDF>
  </metadata>
  <g
     id="layer1"
     inkscape:label="Layer 1"
     inkscape:groupmode="layer">
    <g
       transform="matrix(1.0481375,0,0,1.0481375,-453.4145,-52.812663)"
       id="g119">
      <path
         style="fill:#919fb8"
         inkscape:connector-curvature="0"
         id="path121"
         d="m 472.817,89.447 c -0.541,-0.445 -0.614,-1.232 -0.172,-1.773 2.091,-2.545 3.246,-5.837 3.246,-9.271 0,-3.861 -1.464,-7.364 -3.849,-10.033 l -7.514,10.267 c -0.122,1.967 -1.743,3.541 -3.749,3.541 -2.09,0 -3.774,-1.684 -3.774,-3.774 0,-2.004 1.563,-3.639 3.541,-3.763 l 10.267,-7.5 c -2.669,-2.386 -6.186,-3.849 -10.033,-3.849 -8.339,0 -15.112,6.775 -15.112,15.111 0,3.434 1.156,6.717 3.247,9.271 0.431,0.541 0.357,1.328 -0.183,1.773 -0.236,0.194 -0.517,0.28 -0.801,0.28 -0.358,0 -0.729,-0.145 -0.972,-0.455 -2.459,-3 -3.812,-6.861 -3.812,-10.87 0,-9.725 7.906,-17.632 17.632,-17.632 4.684,0 8.938,1.857 12.11,4.856 l 2.496,-1.831 -1.831,2.496 c 2.999,3.16 4.843,7.414 4.843,12.111 0,4.009 -1.352,7.869 -3.811,10.87 -0.429,0.529 -1.228,0.615 -1.769,0.175 l 0,0 z m -3.22,9.6 c -2.521,1.27 -5.546,2.017 -8.816,2.017 -12.59,0 -22.659,-10.071 -22.659,-22.661 0,-12.591 10.069,-22.661 22.659,-22.661 11.323,0 20.902,8.558 22.415,19.39 l 0.245,-0.257 3.024,3.774 c 0.505,0.504 0.997,1.266 2.017,2.521 0,-1.008 0.246,-1.758 0.246,-2.767 0,-15.357 -12.332,-27.702 -27.702,-27.702 -15.357,0 -27.947,12.345 -27.947,27.702 0,15.36 12.345,27.706 27.702,27.706 3.271,0 6.295,-0.508 9.319,-1.773 -0.258,-1.009 -0.503,-2.264 -0.503,-3.775 V 99.047 z M 483.44,80.924 c 0,0 -10.069,12.839 -10.069,19.636 0,5.794 4.524,10.574 10.069,10.574 5.546,0 10.07,-4.78 10.07,-10.574 0.001,-6.797 -10.07,-19.636 -10.07,-19.636 l 0,0 z m 0,0" />
    </g>
  </g>
</svg>
