<?xml version="1.0" encoding="UTF-8" standalone="no"?>
<!-- Created with Inkscape (http://www.inkscape.org/) -->

<svg
   xmlns:dc="http://purl.org/dc/elements/1.1/"
   xmlns:cc="http://creativecommons.org/ns#"
   xmlns:rdf="http://www.w3.org/1999/02/22-rdf-syntax-ns#"
   xmlns:svg="http://www.w3.org/2000/svg"
   xmlns="http://www.w3.org/2000/svg"
   xmlns:sodipodi="http://sodipodi.sourceforge.net/DTD/sodipodi-0.dtd"
   xmlns:inkscape="http://www.inkscape.org/namespaces/inkscape"
   width="64px"
   height="64px"
   id="svg4260"
   version="1.1"
   inkscape:version="0.48.4 r9939"
   sodipodi:docname="New document 37">
  <defs
     id="defs4262" />
  <sodipodi:namedview
     id="base"
     pagecolor="#ffffff"
     bordercolor="#666666"
     borderopacity="1.0"
     inkscape:pageopacity="0.0"
     inkscape:pageshadow="2"
     inkscape:zoom="5.5"
     inkscape:cx="32"
     inkscape:cy="32"
     inkscape:current-layer="layer1"
     showgrid="true"
     inkscape:document-units="px"
     inkscape:grid-bbox="true"
     inkscape:window-width="1920"
     inkscape:window-height="1018"
     inkscape:window-x="0"
     inkscape:window-y="27"
     inkscape:window-maximized="1" />
  <metadata
     id="metadata4265">
    <rdf:RDF>
      <cc:Work
         rdf:about="">
        <dc:format>image/svg+xml</dc:format>
        <dc:type
           rdf:resource="http://purl.org/dc/dcmitype/StillImage" />
        <dc:title></dc:title>
      </cc:Work>
    </rdf:RDF>
  </metadata>
  <g
     id="layer1"
     inkscape:label="Layer 1"
     inkscape:groupmode="layer">
    <g
       transform="matrix(1.1588163,0,0,1.1588163,-389.51247,-168.68265)"
       id="g240">
      <path
         style="fill:#919fb8"
         inkscape:connector-curvature="0"
         id="path242"
         d="m 344.886,168.181 h -6.117 c -1.38,0 -2.501,1.118 -2.501,2.501 v 27.476 c 0,1.381 1.121,2.495 2.501,2.495 h 6.117 c 1.378,0 2.495,-1.119 2.495,-2.495 v -27.476 c 0,-1.383 -1.117,-2.501 -2.495,-2.501 l 0,0 z m 0,0" />
      <path
         style="fill:#919fb8"
         inkscape:connector-curvature="0"
         id="path244"
         d="m 359.498,175.676 h -6.122 c -1.38,0 -2.494,1.119 -2.494,2.5 v 19.981 c 0,1.376 1.114,2.495 2.494,2.495 h 6.122 c 1.38,0 2.498,-1.119 2.498,-2.495 v -19.981 c 0,-1.381 -1.118,-2.5 -2.498,-2.5 l 0,0 z m 0,0" />
      <path
         style="fill:#919fb8"
         inkscape:connector-curvature="0"
         id="path246"
         d="m 374.105,175.676 h -6.12 c -1.376,0 -2.495,1.119 -2.495,2.5 v 19.981 c 0,1.376 1.119,2.495 2.495,2.495 h 6.12 c 1.382,0 2.5,-1.119 2.5,-2.495 v -19.981 c 0,-1.381 -1.118,-2.5 -2.5,-2.5 l 0,0 z m 0,0" />
      <path
         style="fill:#919fb8"
         inkscape:connector-curvature="0"
         id="path248"
         d="M 388.719,168.181 H 382.6 c -1.381,0 -2.495,1.118 -2.495,2.501 v 27.476 c 0,1.381 1.114,2.495 2.495,2.495 h 6.119 c 1.383,0 2.501,-1.119 2.501,-2.495 v -27.476 c 0,-1.383 -1.118,-2.501 -2.501,-2.501 l 0,0 z m 0,0" />
      <path
         style="fill:#919fb8"
         inkscape:connector-curvature="0"
         id="path250"
         d="m 364.469,160.754 v 4.492 c 1.365,-0.092 2.798,-0.725 2.798,-2.227 0,-1.541 -1.571,-1.998 -2.798,-2.265 l 0,0 z m 0,0" />
      <path
         style="fill:#919fb8"
         inkscape:connector-curvature="0"
         id="path252"
         d="m 360.558,155.37 c 0,1.135 0.846,1.793 2.553,2.135 v -4.071 c -1.547,0.052 -2.553,0.96 -2.553,1.936 l 0,0 z m 0,0" />
      <path
         style="fill:#919fb8"
         inkscape:connector-curvature="0"
         id="path254"
         d="m 363.744,145.705 c -7.575,0 -13.742,6.166 -13.742,13.734 0,7.57 6.167,13.736 13.742,13.736 7.575,0 13.734,-6.166 13.734,-13.736 10e-4,-7.568 -6.159,-13.734 -13.734,-13.734 l 0,0 z m 0.725,21.858 v 1.411 c 0,0.387 -0.297,0.77 -0.685,0.77 -0.385,0 -0.674,-0.383 -0.674,-0.77 v -1.411 c -3.844,-0.092 -5.747,-2.386 -5.747,-4.179 0,-0.908 0.548,-1.432 1.403,-1.432 2.547,0 0.563,3.135 4.344,3.294 v -4.744 c -3.369,-0.616 -5.406,-2.089 -5.406,-4.612 0,-3.09 2.568,-4.683 5.406,-4.768 v -1.21 c 0,-0.389 0.289,-0.777 0.674,-0.777 0.388,0 0.685,0.389 0.685,0.777 v 1.21 c 1.77,0.045 5.406,1.159 5.406,3.385 0,0.885 -0.662,1.404 -1.433,1.404 -1.479,0 -1.456,-2.425 -3.974,-2.471 v 4.31 c 2.997,0.639 5.657,1.524 5.657,5.023 10e-4,3.045 -2.271,4.584 -5.656,4.79 l 0,0 z m 0,0" />
    </g>
  </g>
</svg>
