<?xml version="1.0" encoding="UTF-8" standalone="no"?>
<!-- Created with Inkscape (http://www.inkscape.org/) -->

<svg
   xmlns:dc="http://purl.org/dc/elements/1.1/"
   xmlns:cc="http://creativecommons.org/ns#"
   xmlns:rdf="http://www.w3.org/1999/02/22-rdf-syntax-ns#"
   xmlns:svg="http://www.w3.org/2000/svg"
   xmlns="http://www.w3.org/2000/svg"
   xmlns:sodipodi="http://sodipodi.sourceforge.net/DTD/sodipodi-0.dtd"
   xmlns:inkscape="http://www.inkscape.org/namespaces/inkscape"
   width="64px"
   height="64px"
   id="svg3574"
   version="1.1"
   inkscape:version="0.48.4 r9939"
   sodipodi:docname="New document 8">
  <defs
     id="defs3576" />
  <sodipodi:namedview
     id="base"
     pagecolor="#ffffff"
     bordercolor="#666666"
     borderopacity="1.0"
     inkscape:pageopacity="0.0"
     inkscape:pageshadow="2"
     inkscape:zoom="5.5"
     inkscape:cx="32"
     inkscape:cy="32"
     inkscape:current-layer="layer1"
     showgrid="true"
     inkscape:document-units="px"
     inkscape:grid-bbox="true"
     inkscape:window-width="1920"
     inkscape:window-height="1018"
     inkscape:window-x="0"
     inkscape:window-y="27"
     inkscape:window-maximized="1" />
  <metadata
     id="metadata3579">
    <rdf:RDF>
      <cc:Work
         rdf:about="">
        <dc:format>image/svg+xml</dc:format>
        <dc:type
           rdf:resource="http://purl.org/dc/dcmitype/StillImage" />
        <dc:title></dc:title>
      </cc:Work>
    </rdf:RDF>
  </metadata>
  <g
     id="layer1"
     inkscape:label="Layer 1"
     inkscape:groupmode="layer">
    <g
       transform="matrix(0.98867212,0,0,0.98867212,-132.76418,-46.689306)"
       id="g43">
      <g
         id="g45">
        <path
           style="fill:#919fb8"
           inkscape:connector-curvature="0"
           id="path47"
           d="M 147.822,49.527 136.183,61.27 h 11.639 V 49.527 z m 0,0" />
        <path
           style="fill:#919fb8"
           inkscape:connector-curvature="0"
           id="path49"
           d="m 163.905,87.723 c 0,-10.991 8.943,-19.935 19.934,-19.935 1.052,0 2.086,0.082 3.095,0.24 V 48 h -36.319 v 16.064 h -16.064 v 47.493 h 52.383 v -4.141 c -1.009,0.158 -2.043,0.241 -3.095,0.241 -10.991,0 -19.934,-8.943 -19.934,-19.934 l 0,0 z m 0,0" />
      </g>
      <g
         id="g51">
        <path
           style="fill:#919fb8"
           inkscape:connector-curvature="0"
           id="path53"
           d="m 186.356,71.528 c -6.836,0 -12.397,5.561 -12.397,12.397 0,2.604 0.811,5.103 2.34,7.228 l 0.325,0.456 8.906,12.565 c 0.195,0.26 0.502,0.414 0.827,0.414 0.324,0 0.631,-0.153 0.826,-0.414 l 8.794,-12.415 0.434,-0.602 c 1.532,-2.129 2.342,-4.627 2.342,-7.231 -10e-4,-6.837 -5.562,-12.398 -12.397,-12.398 l 0,0 z m 0,16.53 c -2.28,0 -4.133,-1.854 -4.133,-4.132 0,-2.279 1.853,-4.133 4.133,-4.133 2.279,0 4.132,1.854 4.132,4.133 0,2.279 -1.853,4.132 -4.132,4.132 l 0,0 z m 0,0" />
      </g>
    </g>
  </g>
</svg>
