<?xml version="1.0" encoding="UTF-8" standalone="no"?>
<!-- Created with Inkscape (http://www.inkscape.org/) -->

<svg
   xmlns:dc="http://purl.org/dc/elements/1.1/"
   xmlns:cc="http://creativecommons.org/ns#"
   xmlns:rdf="http://www.w3.org/1999/02/22-rdf-syntax-ns#"
   xmlns:svg="http://www.w3.org/2000/svg"
   xmlns="http://www.w3.org/2000/svg"
   xmlns:sodipodi="http://sodipodi.sourceforge.net/DTD/sodipodi-0.dtd"
   xmlns:inkscape="http://www.inkscape.org/namespaces/inkscape"
   width="64px"
   height="64px"
   id="svg3497"
   version="1.1"
   inkscape:version="0.48.4 r9939"
   sodipodi:docname="New document 5">
  <defs
     id="defs3499" />
  <sodipodi:namedview
     id="base"
     pagecolor="#ffffff"
     bordercolor="#666666"
     borderopacity="1.0"
     inkscape:pageopacity="0.0"
     inkscape:pageshadow="2"
     inkscape:zoom="5.5"
     inkscape:cx="32"
     inkscape:cy="32"
     inkscape:current-layer="layer1"
     showgrid="true"
     inkscape:document-units="px"
     inkscape:grid-bbox="true"
     inkscape:window-width="1920"
     inkscape:window-height="1018"
     inkscape:window-x="0"
     inkscape:window-y="27"
     inkscape:window-maximized="1" />
  <metadata
     id="metadata3502">
    <rdf:RDF>
      <cc:Work
         rdf:about="">
        <dc:format>image/svg+xml</dc:format>
        <dc:type
           rdf:resource="http://purl.org/dc/dcmitype/StillImage" />
        <dc:title></dc:title>
      </cc:Work>
    </rdf:RDF>
  </metadata>
  <g
     id="layer1"
     inkscape:label="Layer 1"
     inkscape:groupmode="layer">
    <g
       transform="matrix(0.93853702,0,0,0.93853702,-24.390249,-42.953602)"
       id="g6">
      <g
         id="g8">
        <path
           style="fill:#919fb8"
           inkscape:connector-curvature="0"
           id="path10"
           d="m 39.431,49.66 -11.64,11.743 h 11.64 V 49.66 z m 0,0" />
        <path
           style="fill:#919fb8"
           inkscape:connector-curvature="0"
           id="path12"
           d="m 55.514,87.856 c 0,-10.991 8.943,-19.934 19.935,-19.934 1.052,0 2.086,0.082 3.095,0.24 V 48.133 H 42.225 V 64.197 H 26.161 v 47.494 h 52.382 v -4.141 c -1.009,0.158 -2.042,0.241 -3.095,0.241 -10.991,0 -19.934,-8.944 -19.934,-19.935 l 0,0 z m 0,0" />
      </g>
      <g
         id="g14">
        <path
           style="fill:#919fb8"
           inkscape:connector-curvature="0"
           id="path16"
           d="m 94.199,87.913 c 0,9.49 -7.694,17.184 -17.184,17.184 -9.489,0 -17.183,-7.694 -17.183,-17.184 0,-9.489 7.694,-17.183 17.183,-17.183 9.489,0 17.184,7.694 17.184,17.183 l 0,0 z m -4.297,0 c 0,-7.106 -5.781,-12.887 -12.887,-12.887 -7.106,0 -12.888,5.781 -12.888,12.887 0,7.107 5.781,12.888 12.888,12.888 7.107,0 12.887,-5.781 12.887,-12.888 l 0,0 z m -6.443,0 H 77.015 V 81.47 c 0,-1.187 -0.96,-2.148 -2.148,-2.148 -1.187,0 -2.147,0.961 -2.147,2.148 v 8.591 c 0,1.187 0.96,2.148 2.147,2.148 h 8.592 c 1.187,0 2.147,-0.961 2.147,-2.148 0,-1.187 -0.96,-2.148 -2.147,-2.148 l 0,0 z m 0,0" />
      </g>
    </g>
  </g>
</svg>
