<?xml version="1.0" encoding="UTF-8" standalone="no"?>
<!-- Created with Inkscape (http://www.inkscape.org/) -->

<svg
   xmlns:dc="http://purl.org/dc/elements/1.1/"
   xmlns:cc="http://creativecommons.org/ns#"
   xmlns:rdf="http://www.w3.org/1999/02/22-rdf-syntax-ns#"
   xmlns:svg="http://www.w3.org/2000/svg"
   xmlns="http://www.w3.org/2000/svg"
   xmlns:sodipodi="http://sodipodi.sourceforge.net/DTD/sodipodi-0.dtd"
   xmlns:inkscape="http://www.inkscape.org/namespaces/inkscape"
   width="64px"
   height="64px"
   id="svg4321"
   version="1.1"
   inkscape:version="0.48.4 r9939"
   sodipodi:docname="New document 40">
  <defs
     id="defs4323" />
  <sodipodi:namedview
     id="base"
     pagecolor="#ffffff"
     bordercolor="#666666"
     borderopacity="1.0"
     inkscape:pageopacity="0.0"
     inkscape:pageshadow="2"
     inkscape:zoom="5.5"
     inkscape:cx="32"
     inkscape:cy="32"
     inkscape:current-layer="layer1"
     showgrid="true"
     inkscape:document-units="px"
     inkscape:grid-bbox="true"
     inkscape:window-width="1920"
     inkscape:window-height="1018"
     inkscape:window-x="0"
     inkscape:window-y="27"
     inkscape:window-maximized="1" />
  <metadata
     id="metadata4326">
    <rdf:RDF>
      <cc:Work
         rdf:about="">
        <dc:format>image/svg+xml</dc:format>
        <dc:type
           rdf:resource="http://purl.org/dc/dcmitype/StillImage" />
        <dc:title></dc:title>
      </cc:Work>
    </rdf:RDF>
  </metadata>
  <g
     id="layer1"
     inkscape:label="Layer 1"
     inkscape:groupmode="layer">
    <g
       transform="matrix(1.1371498,0,0,1.1371498,-487.85201,-167.00065)"
       id="g256">
      <g
         id="g258">
        <path
           style="fill:#919fb8"
           inkscape:connector-curvature="0"
           id="path260"
           d="m 468.729,154.329 -5.916,-5.924 h 7.895 l 6.909,6.142 v -6.142 h 3.944 v 15.791 h -3.944 v -6.143 l -6.909,6.143 h -7.895 l 5.916,-5.924 H 449.73 c -0.876,3.41 -3.969,5.924 -7.645,5.924 -4.359,0 -7.896,-3.538 -7.896,-7.896 0,-4.357 3.536,-7.895 7.896,-7.895 3.676,0 6.769,2.514 7.645,5.924 h 18.999 z m 0,0 m 3.917,36.92 c -2.857,0 -5.171,2.313 -5.171,5.172 0,2.858 2.313,5.173 5.171,5.173 2.858,0 5.175,-2.314 5.175,-5.173 0,-2.859 -2.316,-5.172 -5.175,-5.172 l 0,0 z m 0,7.422 c -1.239,0 -2.247,-1.006 -2.247,-2.25 0,-1.243 1.008,-2.249 2.247,-2.249 1.243,0 2.25,1.006 2.25,2.249 0,1.244 -1.006,2.25 -2.25,2.25 l 0,0 z m 0,0 m -30.367,-7.422 c -2.858,0 -5.173,2.313 -5.173,5.172 0,2.858 2.314,5.173 5.173,5.173 2.856,0 5.172,-2.314 5.172,-5.173 0,-2.859 -2.315,-5.172 -5.172,-5.172 l 0,0 z m 0,7.422 c -1.244,0 -2.25,-1.006 -2.25,-2.25 0,-1.243 1.006,-2.249 2.25,-2.249 1.241,0 2.248,1.006 2.248,2.249 0,1.244 -1.006,2.25 -2.248,2.25 l 0,0 z m 0,0 m -9.872,-28.37 c -1.701,0 -3.093,1.391 -3.093,3.092 v 19.937 c 0,1.701 1.392,3.091 3.093,3.091 h 3.771 c 0,-3.363 2.735,-6.1 6.101,-6.1 3.364,0 6.1,2.737 6.1,6.1 h 18.169 c 0,-3.363 2.736,-6.1 6.099,-6.1 3.365,0 6.102,2.737 6.102,6.1 h 3.152 c 1.7,0 3.092,-1.39 3.092,-3.091 v -7.109 c 0,-1.699 -0.279,-4.454 -0.617,-6.119 l -1.854,-6.771 c -0.343,-1.666 -2.011,-3.029 -3.712,-3.029 h -46.403 l 0,-0.001 z m 39.738,13.042 v -11.189 h 6.124 c 1.274,0 2.51,1.024 2.742,2.279 l 1.661,6.631 c 0.196,1.061 -0.385,1.956 -1.34,2.206 l -1.416,-3.352 c -0.201,-0.472 -0.741,-0.694 -1.214,-0.494 -0.473,0.198 -0.692,0.743 -0.496,1.215 l 1.145,2.703 h -7.204 -0.002 z M 458.39,172.154 h 11.9 v 11.189 h -11.9 v -11.189 z m -13.754,0 h 11.901 v 11.189 h -11.901 v -11.189 z m -13.425,2.318 c 0,-1.274 1.043,-2.317 2.317,-2.317 h 9.251 v 11.189 h -9.251 c -1.274,0 -2.317,-1.044 -2.317,-2.317 v -6.555 z m 0,6.554" />
      </g>
    </g>
  </g>
</svg>
