<?xml version="1.0" encoding="UTF-8" standalone="no"?>
<!-- Created with Inkscape (http://www.inkscape.org/) -->

<svg
   xmlns:dc="http://purl.org/dc/elements/1.1/"
   xmlns:cc="http://creativecommons.org/ns#"
   xmlns:rdf="http://www.w3.org/1999/02/22-rdf-syntax-ns#"
   xmlns:svg="http://www.w3.org/2000/svg"
   xmlns="http://www.w3.org/2000/svg"
   xmlns:sodipodi="http://sodipodi.sourceforge.net/DTD/sodipodi-0.dtd"
   xmlns:inkscape="http://www.inkscape.org/namespaces/inkscape"
   width="64px"
   height="64px"
   id="svg4381"
   version="1.1"
   inkscape:version="0.48.4 r9939"
   sodipodi:docname="New document 43">
  <defs
     id="defs4383" />
  <sodipodi:namedview
     id="base"
     pagecolor="#ffffff"
     bordercolor="#666666"
     borderopacity="1.0"
     inkscape:pageopacity="0.0"
     inkscape:pageshadow="2"
     inkscape:zoom="5.5"
     inkscape:cx="32"
     inkscape:cy="32"
     inkscape:current-layer="layer1"
     showgrid="true"
     inkscape:document-units="px"
     inkscape:grid-bbox="true"
     inkscape:window-width="1920"
     inkscape:window-height="1018"
     inkscape:window-x="0"
     inkscape:window-y="27"
     inkscape:window-maximized="1" />
  <metadata
     id="metadata4386">
    <rdf:RDF>
      <cc:Work
         rdf:about="">
        <dc:format>image/svg+xml</dc:format>
        <dc:type
           rdf:resource="http://purl.org/dc/dcmitype/StillImage" />
        <dc:title></dc:title>
      </cc:Work>
    </rdf:RDF>
  </metadata>
  <g
     id="layer1"
     inkscape:label="Layer 1"
     inkscape:groupmode="layer">
    <g
       transform="matrix(1.0606162,0,0,1.0606162,-562.14869,-152.88449)"
       id="g262">
      <g
         id="g264">
        <g
           id="g266">
          <g
             id="g268">
            <path
               style="fill:#919fb8"
               inkscape:connector-curvature="0"
               id="path270"
               d="m 558.279,166.519 c 0,-3.473 -2.9,-5.004 -5.574,-5.004 -4.252,0 -5.76,3.52 -5.76,3.52 l 2.971,1.988 c 0,0 0.869,-1.737 2.422,-1.737 0.846,0 1.762,0.479 1.762,1.623 0,2.354 -7.063,3.428 -7.063,9.46 0,0.55 0.066,1.121 0.182,1.76 h 11.314 v -3.428 h -6.949 c 0.115,-2.103 6.695,-3.085 6.695,-8.182 z" />
            <path
               style="fill:#919fb8"
               inkscape:connector-curvature="0"
               id="path272"
               d="m 571.402,161.788 h -4.891 l -6.309,9.965 v 2.422 h 7.244 v 3.955 h 3.955 v -3.955 h 1.941 v -3.313 h -1.941 v -9.074 z m -3.955,5.417 v 3.657 l 0,0 h -3.174 v -0.046 l 2.467,-3.748 c 0.457,-0.686 0.799,-1.692 0.799,-1.692 h 0.047 c 0,-0.001 -0.139,0.937 -0.139,1.829 z" />
            <path
               style="fill:#919fb8"
               inkscape:connector-curvature="0"
               id="path274"
               d="m 565.67,144.833 c -0.01,-0.002 -0.021,-0.004 -0.029,-0.006 -0.146,-0.026 -0.291,-0.053 -0.434,-0.078 -0.01,-0.001 -0.018,-0.002 -0.025,-0.003 -0.252,-0.043 -0.504,-0.083 -0.76,-0.12 -0.08,-0.012 -0.162,-0.023 -0.244,-0.034 -0.145,-0.02 -0.293,-0.039 -0.439,-0.057 -0.133,-0.016 -0.266,-0.031 -0.398,-0.045 -0.096,-0.01 -0.193,-0.02 -0.289,-0.029 -0.164,-0.016 -0.326,-0.031 -0.492,-0.043 -0.082,-0.007 -0.166,-0.013 -0.248,-0.019 -0.16,-0.012 -0.316,-0.022 -0.477,-0.031 -0.064,-0.003 -0.133,-0.007 -0.197,-0.01 -0.205,-0.011 -0.408,-0.019 -0.615,-0.023 -0.057,-0.002 -0.109,-0.003 -0.166,-0.004 -0.217,-0.004 -0.434,-0.008 -0.65,-0.008 -0.004,0 -0.008,0 -0.012,0 -0.002,0 -0.002,0 -0.006,0 h -0.002 c -0.004,0 -0.008,0 -0.014,0 -0.217,0 -0.434,0.004 -0.648,0.008 -0.057,0.001 -0.111,0.002 -0.168,0.004 -0.205,0.005 -0.408,0.013 -0.613,0.023 -0.066,0.003 -0.133,0.007 -0.199,0.01 -0.158,0.009 -0.316,0.019 -0.475,0.031 -0.082,0.006 -0.166,0.012 -0.25,0.019 -0.164,0.013 -0.328,0.027 -0.49,0.043 -0.098,0.01 -0.193,0.019 -0.289,0.029 -0.133,0.014 -0.266,0.03 -0.398,0.045 -0.148,0.018 -0.295,0.037 -0.441,0.057 -0.08,0.011 -0.162,0.022 -0.242,0.034 -0.256,0.037 -0.508,0.077 -0.76,0.12 -0.01,0.001 -0.018,0.002 -0.025,0.003 -0.145,0.024 -0.289,0.051 -0.432,0.078 -0.01,0.002 -0.021,0.004 -0.031,0.006 -13.625,2.574 -23.965,14.565 -23.965,28.928 0,11.214 6.305,20.981 15.553,25.951 -0.145,-0.623 -0.215,-1.28 -0.188,-1.975 0.041,-0.951 0.264,-1.874 0.658,-2.777 -6.213,-3.945 -10.592,-10.529 -11.514,-18.177 l 5.115,-3.023 -5.115,-3.023 c 0.482,-4 1.908,-7.713 4.049,-10.91 0.006,0.006 0.012,0.013 0.018,0.02 3.852,-5.759 10.002,-9.854 17.145,-10.922 0.006,-0.001 0.012,-0.001 0.016,-0.003 0.227,-0.033 0.455,-0.064 0.684,-0.092 l 3.021,5.114 0.002,-0.006 0.006,0.006 3.021,-5.114 c 0.227,0.028 0.455,0.059 0.682,0.092 0.006,0.001 0.012,0.002 0.018,0.003 7.143,1.068 13.293,5.163 17.145,10.922 0.006,-0.007 0.01,-0.014 0.018,-0.02 2.139,3.197 3.566,6.91 4.049,10.91 l -5.115,3.023 5.115,3.023 c -0.922,7.647 -5.301,14.231 -11.516,18.177 0.396,0.903 0.619,1.826 0.658,2.777 0.031,0.694 -0.043,1.352 -0.186,1.975 9.248,-4.97 15.551,-14.737 15.551,-25.951 -0.004,-14.363 -10.342,-26.354 -23.967,-28.928 z" />
          </g>
        </g>
      </g>
      <g
         id="g276">
        <g
           id="g278">
          <path
             style="fill:#919fb8"
             inkscape:connector-curvature="0"
             id="path280"
             d="m 570.873,197.18 c -1.971,0 -3.566,1.596 -3.566,3.566 0,1.971 1.596,3.567 3.566,3.567 1.97,0 3.566,-1.596 3.566,-3.567 0,-1.97 -1.595,-3.566 -3.566,-3.566 l 0,0 z m 0,5.118 c -0.855,0 -1.551,-0.694 -1.551,-1.552 0,-0.856 0.695,-1.55 1.551,-1.55 0.856,0 1.551,0.694 1.551,1.55 0,0.858 -0.695,1.552 -1.551,1.552 l 0,0 z m 0,0" />
          <path
             style="fill:#919fb8"
             inkscape:connector-curvature="0"
             id="path282"
             d="m 549.934,197.18 c -1.971,0 -3.566,1.596 -3.566,3.566 0,1.971 1.596,3.567 3.566,3.567 1.969,0 3.566,-1.596 3.566,-3.567 0,-1.97 -1.598,-3.566 -3.566,-3.566 l 0,0 z m 0,5.118 c -0.857,0 -1.551,-0.694 -1.551,-1.552 0,-0.856 0.693,-1.55 1.551,-1.55 0.855,0 1.549,0.694 1.549,1.55 -10e-4,0.858 -0.694,1.552 -1.549,1.552 l 0,0 z m 0,0" />
          <path
             style="fill:#919fb8"
             inkscape:connector-curvature="0"
             id="path284"
             d="m 543.125,182.737 c -1.172,0 -2.131,0.958 -2.131,2.131 v 13.748 c 0,1.172 0.959,2.13 2.131,2.13 h 2.602 c 0,-2.319 1.887,-4.205 4.207,-4.205 2.318,0 4.205,1.886 4.205,4.205 h 12.527 c 0,-2.319 1.889,-4.205 4.207,-4.205 2.318,0 4.205,1.886 4.205,4.205 h 2.174 c 1.174,0 2.133,-0.958 2.133,-2.13 v -4.903 c 0,-1.172 -0.193,-3.071 -0.426,-4.219 l -1.279,-4.669 c -0.236,-1.148 -1.387,-2.088 -2.559,-2.088 h -31.996 l 0,0 z m 27.4,8.992 v -7.715 h 4.223 c 0.879,0 1.73,0.707 1.891,1.571 l 1.146,4.573 c 0.135,0.731 -0.266,1.348 -0.926,1.521 l -0.975,-2.311 c -0.139,-0.325 -0.512,-0.478 -0.838,-0.34 -0.326,0.137 -0.479,0.512 -0.342,0.838 l 0.789,1.863 h -4.967 -10e-4 z m -9.484,-7.715 h 8.207 v 7.715 h -8.207 v -7.715 z m -9.484,0 h 8.207 v 7.715 h -8.207 v -7.715 z m -9.256,1.599 c 0,-0.879 0.719,-1.599 1.598,-1.599 h 6.379 v 7.715 h -6.379 c -0.879,0 -1.598,-0.719 -1.598,-1.598 v -4.518 z m 0,4.518" />
        </g>
      </g>
    </g>
  </g>
</svg>
