<svg width="54" height="54" xmlns="http://www.w3.org/2000/svg">

 <g>
  <title>background</title>
  <rect fill="none" id="canvas_background" height="56" width="56" y="-1" x="-1"/>
 </g>
 <g>
  <title>Layer 1</title>
  <g transform="rotate(90 27,27.000000000000004) " id="svg_1">
   <g id="svg_2">
    <path id="svg_3" fill="#293040" d="m27,53l0,0c-14.359,0 -26,-11.641 -26,-26l0,0c0,-14.359 11.641,-26 26,-26l0,0c14.359,0 26,11.641 26,26l0,0c0,14.359 -11.641,26 -26,26z"/>
    <path id="svg_4" fill="#293040" d="m27,54c-14.888,0 -27,-12.112 -27,-27s12.112,-27 27,-27s27,12.112 27,27s-12.112,27 -27,27zm0,-52c-13.785,0 -25,11.215 -25,25s11.215,25 25,25s25,-11.215 25,-25s-11.215,-25 -25,-25z"/>
   </g>
   <path id="svg_5" fill="#FFFFFF" d="m22.294,40c-0.256,0 -0.512,-0.098 -0.707,-0.293c-0.391,-0.391 -0.391,-1.023 0,-1.414l11.293,-11.293l-11.293,-11.293c-0.391,-0.391 -0.391,-1.023 0,-1.414s1.023,-0.391 1.414,0l11.498,11.498c0.667,0.667 0.667,1.751 0,2.418l-11.498,11.498c-0.195,0.195 -0.451,0.293 -0.707,0.293z"/>
   <ellipse stroke="#ffffff" ry="24.75524" rx="24.695155" id="svg_21" cy="27" cx="27" stroke-width="1.6" fill="none"/>
   <ellipse id="svg_22" cy="51.820196" cx="52.070275" stroke-width="1.5" stroke="#000" fill="#ffffff"/>
  </g>
  <g id="svg_6"/>
  <g id="svg_7"/>
  <g id="svg_8"/>
  <g id="svg_9"/>
  <g id="svg_10"/>
  <g id="svg_11"/>
  <g id="svg_12"/>
  <g id="svg_13"/>
  <g id="svg_14"/>
  <g id="svg_15"/>
  <g id="svg_16"/>
  <g id="svg_17"/>
  <g id="svg_18"/>
  <g id="svg_19"/>
  <g transform="rotate(90 0,0) " id="svg_20"/>
 </g>
</svg>