<svg width="512" height="512" xmlns="http://www.w3.org/2000/svg">

 <g>
  <title>background</title>
  <rect fill="none" id="canvas_background" height="402" width="582" y="-1" x="-1"/>
 </g>
 <g>
  <title>Layer 1</title>
  <path fill="#283140" d="m335.474,115l6.41,22.69l-171.609,0l6.379,-22.69l158.82,0zm-177.495,66.42l196.258,0l-7.627,-27l-181.04,0l-7.591,27zm-27.809,0l25.993,-91.42l199.776,0l26.115,91.42l41.385,0l-37.886,-131.42l-258.982,0l-37.976,131.42l41.575,0zm-79.764,30.812l21.174,109.268l368.84,0l21.174,-109.268l-411.188,0zm237.063,62.393l-62.938,0c-7.247,0 -13.125,-5.876 -13.125,-13.125s5.878,-13.125 13.125,-13.125l62.938,0c7.247,0 13.124,5.876 13.124,13.125s-5.877,13.125 -13.124,13.125zm-237.063,77.107l23.174,110.268l364.84,0l23.174,-110.268l-411.188,0zm237.063,62.393l-62.938,0c-7.247,0 -13.125,-5.875 -13.125,-13.125c0,-7.248 5.878,-13.125 13.125,-13.125l62.938,0c7.247,0 13.124,5.877 13.124,13.125c0,7.25 -5.877,13.125 -13.124,13.125z" id="archive-7-icon"/>
 </g>
</svg>